<?xml version="1.0" encoding="UTF-8"?>
<svg width="50px" height="50px" viewBox="0 0 50 50" version="1.1" xmlns="http://www.w3.org/2000/svg" xmlns:xlink="http://www.w3.org/1999/xlink">
    <title>tab/ schedule/ select</title>
    <defs>
        <circle id="path-1" cx="24" cy="24" r="24"></circle>
        <filter x="-10.4%" y="-6.3%" width="125.0%" height="125.0%" filterUnits="objectBoundingBox" id="filter-2">
            <feMorphology radius="0.5" operator="erode" in="SourceAlpha" result="shadowSpreadOuter1"></feMorphology>
            <feOffset dx="1" dy="3" in="shadowSpreadOuter1" result="shadowOffsetOuter1"></feOffset>
            <feGaussianBlur stdDeviation="2" in="shadowOffsetOuter1" result="shadowBlurOuter1"></feGaussianBlur>
            <feColorMatrix values="0 0 0 0 0   0 0 0 0 0.341176471   0 0 0 0 0.654901961  0 0 0 0.60508632 0" type="matrix" in="shadowBlurOuter1"></feColorMatrix>
        </filter>
    </defs>
    <g id="tab/-schedule/-select" stroke="none" stroke-width="1" fill="none" fill-rule="evenodd">
        <g id="Group" transform="translate(1.000000, 1.000000)">
            <g id="椭圆形-copy">
                <use fill="black" fill-opacity="1" filter="url(#filter-2)" xlink:href="#path-1"></use>
                <use fill="#0057A7" fill-rule="evenodd" xlink:href="#path-1"></use>
            </g>
            <path d="M33.7540453,24.1086435 L33.7540453,16.7610094 C33.7540453,15.6794565 32.8772735,14.8026847 31.7957206,14.8026847 L29.6415635,14.8026847 L29.6415635,13.3874688 C29.6415635,13.0269512 29.3493062,12.7346939 28.9887886,12.7346939 C28.628271,12.7346939 28.3360137,13.0269512 28.3360137,13.3874688 L28.3360137,14.8026847 L18.0247816,14.8026847 L18.0247816,13.3874688 C18.0247816,13.0269512 17.7325243,12.7346939 17.3720067,12.7346939 C17.0114891,12.7346939 16.7192318,13.0269512 16.7192318,13.3874688 L16.7192318,14.8026847 L14.6930185,14.8026847 C13.6114657,14.8026847 12.7346939,15.6794565 12.7346939,16.7610094 L12.7346939,31.7957206 C12.7346939,32.8772735 13.6114657,33.7540453 14.6930185,33.7540453 L24.1086435,33.7540453 C25.7662328,35.7626935 28.4192766,36.6579359 30.9549885,36.064274 C33.4907005,35.4706122 35.4706122,33.4907005 36.064274,30.9549885 C36.6579359,28.4192766 35.7626935,25.7662328 33.7540453,24.1086435 Z M14.6930185,16.1082345 L16.7192318,16.1082345 L16.7192318,17.5208394 C16.7192318,17.881357 17.0114891,18.1736143 17.3720067,18.1736143 C17.7325243,18.1736143 18.0247816,17.881357 18.0247816,17.5208394 L18.0247816,16.1082345 L28.3360137,16.1082345 L28.3360137,17.5208394 C28.3360137,17.881357 28.628271,18.1736143 28.9887886,18.1736143 C29.3493062,18.1736143 29.6415635,17.881357 29.6415635,17.5208394 L29.6415635,16.1082345 L31.7957206,16.1082345 C32.1562383,16.1082345 32.4484955,16.4004918 32.4484955,16.7610094 L32.4484955,19.9152177 L14.0402437,19.9152177 L14.0402437,16.7610094 C14.0402437,16.4004918 14.3325009,16.1082345 14.6930185,16.1082345 Z M14.6930185,32.4484955 C14.3325009,32.4484955 14.0402437,32.1562383 14.0402437,31.7957206 L14.0402437,21.2207674 L32.4484955,21.2207674 L32.4484955,23.254814 C29.8102458,21.9303975 26.6202323,22.4454411 24.5328367,24.5328367 C22.4454411,26.6202323 21.9303975,29.8102458 23.254814,32.4484955 L14.6930185,32.4484955 Z M29.3804536,34.9290401 C26.3160538,34.9290401 23.831867,32.4448533 23.831867,29.3804536 C23.831867,26.3160538 26.3160538,23.831867 29.3804536,23.831867 C32.4448533,23.831867 34.9290401,26.3160538 34.9290401,29.3804536 C34.9261612,32.44366 32.44366,34.9261612 29.3804536,34.9290401 L29.3804536,34.9290401 Z" id="Shape" fill="#FFFFFF" fill-rule="nonzero"></path>
            <path d="M30.0332284,28.7276787 L30.0332284,26.5317439 C30.0332284,26.1712263 29.7409712,25.878969 29.3804536,25.878969 C29.0199359,25.878969 28.7276787,26.1712263 28.7276787,26.5317439 L28.7276787,29.1846211 C28.7276787,29.6475257 29.102937,30.022784 29.5658416,30.022784 L33.0568817,30.022784 C33.4173993,30.022784 33.7096566,29.7305268 33.7096566,29.3700092 C33.7096566,29.0094915 33.4173993,28.7172343 33.0568817,28.7172343 L30.0332284,28.7276787 Z" id="Path" fill="#FFFFFF" fill-rule="nonzero"></path>
        </g>
    </g>
</svg>