<?xml version="1.0" encoding="UTF-8"?>
<svg width="50px" height="27px" viewBox="0 0 50 27" version="1.1" xmlns="http://www.w3.org/2000/svg" xmlns:xlink="http://www.w3.org/1999/xlink">
    <title>Air blade</title>
    <g id="IO-configuration" stroke="none" stroke-width="1" fill="none" fill-rule="evenodd">
        <g id="4.4.-Equipment" transform="translate(-163.000000, -412.000000)">
            <g id="Air-blade" transform="translate(163.000000, 412.000000)">
                <g id="VRF" transform="translate(2.000000, 2.000000)">
                    <g id="noun_conditioner-with-cold-air_1218796">
                        <path d="M0,0 L48,0 L48,5 C48,6.1045695 47.1045695,7 46,7 L2,7 C0.8954305,7 1.3527075e-16,6.1045695 0,5 L0,0 L0,0 Z" id="Rectangle" fill-opacity="0.705228365" fill="#82B3E0"></path>
                        <rect id="Rectangle" stroke="#0057A7" stroke-width="0.85" x="4.425" y="2.425" width="35.15" height="3.15"></rect>
                        <rect id="Rectangle" fill="#0057A7" fill-rule="nonzero" x="0" y="-9.09494702e-13" width="5.44680851" height="1.36170213"></rect>
                        <rect id="Rectangle" fill="#0057A7" fill-rule="nonzero" x="6.80851064" y="-9.09494702e-13" width="1.36170213" height="1.36170213"></rect>
                        <path d="M7.53191489,8.46808511 L6.17021277,8.46808511 C6.17021277,9.01004255 5.96459574,9.24970213 5.65344681,9.6132766 C5.27693617,10.0517447 4.80851064,10.5984681 4.80851064,11.6442553 C4.80851064,12.6907234 5.27693617,13.236766 5.65344681,13.6759149 C5.96459574,14.0394894 6.17021277,14.2791489 6.17021277,14.8217872 C6.17021277,15.3644255 5.96459574,15.604766 5.65276596,15.9676596 C5.27693617,16.4068085 4.80851064,16.9535319 4.80851064,18 L6.17021277,18 C6.17021277,17.4573617 6.37582979,17.2170213 6.68765957,16.8541277 C7.06348936,16.4149787 7.53191489,15.8675745 7.53191489,14.8217872 C7.53191489,13.776 7.06417021,13.2292766 6.68765957,12.7901277 C6.37582979,12.427234 6.17021277,12.1868936 6.17021277,11.6442553 C6.17021277,11.101617 6.37582979,10.8619574 6.68697872,10.4990638 C7.06348936,10.0599149 7.53191489,9.51387234 7.53191489,8.46808511 Z" id="Path" fill="#0057A7" fill-rule="nonzero"></path>
                        <path d="M7.53191489,15 L6.17021277,15 C6.17021277,15.5419574 5.96459574,15.781617 5.65344681,16.1451915 C5.27693617,16.5836596 4.80851064,17.130383 4.80851064,18.1761702 C4.80851064,19.2226383 5.27693617,19.7686809 5.65344681,20.2078298 C5.96459574,20.5714043 6.17021277,20.8110638 6.17021277,21.3537021 C6.17021277,21.8963404 5.96459574,22.1366809 5.65276596,22.4995745 C5.27693617,22.9387234 4.80851064,23.4854468 4.80851064,24.5319149 L6.17021277,24.5319149 C6.17021277,23.9892766 6.37582979,23.7489362 6.68765957,23.3860426 C7.06348936,22.9468936 7.53191489,22.3994894 7.53191489,21.3537021 C7.53191489,20.3079149 7.06417021,19.7611915 6.68765957,19.3220426 C6.37582979,18.9591489 6.17021277,18.7188085 6.17021277,18.1761702 C6.17021277,17.6335319 6.37582979,17.3938723 6.68697872,17.0309787 C7.06348936,16.5918298 7.53191489,16.0457872 7.53191489,15 Z" id="Path-Copy" fill="#0057A7" fill-rule="nonzero"></path>
                        <path d="M15.7021277,8.46808511 L14.3404255,8.46808511 C14.3404255,9.01004255 14.1348085,9.24970213 13.8236596,9.6132766 C13.4471489,10.0517447 12.9787234,10.5984681 12.9787234,11.6442553 C12.9787234,12.6907234 13.4471489,13.236766 13.8236596,13.6759149 C14.1348085,14.0394894 14.3404255,14.2791489 14.3404255,14.8217872 C14.3404255,15.3644255 14.1348085,15.604766 13.8229787,15.9676596 C13.4471489,16.4068085 12.9787234,16.9535319 12.9787234,18 L14.3404255,18 C14.3404255,17.4573617 14.5460426,17.2170213 14.8578723,16.8541277 C15.2337021,16.4149787 15.7021277,15.8675745 15.7021277,14.8217872 C15.7021277,13.776 15.234383,13.2292766 14.8578723,12.7901277 C14.5460426,12.427234 14.3404255,12.1868936 14.3404255,11.6442553 C14.3404255,11.101617 14.5460426,10.8619574 14.8571915,10.4990638 C15.2337021,10.0599149 15.7021277,9.51387234 15.7021277,8.46808511 Z" id="Path" fill="#0057A7" fill-rule="nonzero"></path>
                        <path d="M15.7021277,15 L14.3404255,15 C14.3404255,15.5419574 14.1348085,15.781617 13.8236596,16.1451915 C13.4471489,16.5836596 12.9787234,17.130383 12.9787234,18.1761702 C12.9787234,19.2226383 13.4471489,19.7686809 13.8236596,20.2078298 C14.1348085,20.5714043 14.3404255,20.8110638 14.3404255,21.3537021 C14.3404255,21.8963404 14.1348085,22.1366809 13.8229787,22.4995745 C13.4471489,22.9387234 12.9787234,23.4854468 12.9787234,24.5319149 L14.3404255,24.5319149 C14.3404255,23.9892766 14.5460426,23.7489362 14.8578723,23.3860426 C15.2337021,22.9468936 15.7021277,22.3994894 15.7021277,21.3537021 C15.7021277,20.3079149 15.234383,19.7611915 14.8578723,19.3220426 C14.5460426,18.9591489 14.3404255,18.7188085 14.3404255,18.1761702 C14.3404255,17.6335319 14.5460426,17.3938723 14.8571915,17.0309787 C15.2337021,16.5918298 15.7021277,16.0457872 15.7021277,15 Z" id="Path-Copy-2" fill="#0057A7" fill-rule="nonzero"></path>
                        <path d="M23.8723404,8.46808511 L22.5106383,8.46808511 C22.5106383,9.01004255 22.3050213,9.24970213 21.9938723,9.6132766 C21.6173617,10.0517447 21.1489362,10.5984681 21.1489362,11.6442553 C21.1489362,12.6907234 21.6173617,13.236766 21.9938723,13.6759149 C22.3050213,14.0394894 22.5106383,14.2791489 22.5106383,14.8217872 C22.5106383,15.3644255 22.3050213,15.604766 21.9931915,15.9676596 C21.6173617,16.4068085 21.1489362,16.9535319 21.1489362,18 L22.5106383,18 C22.5106383,17.4573617 22.7162553,17.2170213 23.0280851,16.8541277 C23.4039149,16.4149787 23.8723404,15.8675745 23.8723404,14.8217872 C23.8723404,13.776 23.4045957,13.2292766 23.0280851,12.7901277 C22.7162553,12.427234 22.5106383,12.1868936 22.5106383,11.6442553 C22.5106383,11.101617 22.7162553,10.8619574 23.0274043,10.4990638 C23.4039149,10.0599149 23.8723404,9.51387234 23.8723404,8.46808511 Z" id="Path" fill="#0057A7" fill-rule="nonzero"></path>
                        <path d="M23.8723404,15 L22.5106383,15 C22.5106383,15.5419574 22.3050213,15.781617 21.9938723,16.1451915 C21.6173617,16.5836596 21.1489362,17.130383 21.1489362,18.1761702 C21.1489362,19.2226383 21.6173617,19.7686809 21.9938723,20.2078298 C22.3050213,20.5714043 22.5106383,20.8110638 22.5106383,21.3537021 C22.5106383,21.8963404 22.3050213,22.1366809 21.9931915,22.4995745 C21.6173617,22.9387234 21.1489362,23.4854468 21.1489362,24.5319149 L22.5106383,24.5319149 C22.5106383,23.9892766 22.7162553,23.7489362 23.0280851,23.3860426 C23.4039149,22.9468936 23.8723404,22.3994894 23.8723404,21.3537021 C23.8723404,20.3079149 23.4045957,19.7611915 23.0280851,19.3220426 C22.7162553,18.9591489 22.5106383,18.7188085 22.5106383,18.1761702 C22.5106383,17.6335319 22.7162553,17.3938723 23.0274043,17.0309787 C23.4039149,16.5918298 23.8723404,16.0457872 23.8723404,15 Z" id="Path-Copy-3" fill="#0057A7" fill-rule="nonzero"></path>
                        <path d="M32.0425532,8.46808511 L30.6808511,8.46808511 C30.6808511,9.01004255 30.475234,9.24970213 30.1640851,9.6132766 C29.7875745,10.0517447 29.3191489,10.5984681 29.3191489,11.6442553 C29.3191489,12.6907234 29.7875745,13.236766 30.1640851,13.6759149 C30.475234,14.0394894 30.6808511,14.2791489 30.6808511,14.8217872 C30.6808511,15.3644255 30.475234,15.604766 30.1634043,15.9676596 C29.7875745,16.4068085 29.3191489,16.9535319 29.3191489,18 L30.6808511,18 C30.6808511,17.4573617 30.8864681,17.2170213 31.1982979,16.8541277 C31.5741277,16.4149787 32.0425532,15.8675745 32.0425532,14.8217872 C32.0425532,13.776 31.5748085,13.2292766 31.1982979,12.7901277 C30.8864681,12.427234 30.6808511,12.1868936 30.6808511,11.6442553 C30.6808511,11.101617 30.8864681,10.8619574 31.197617,10.4990638 C31.5741277,10.0599149 32.0425532,9.51387234 32.0425532,8.46808511 Z" id="Path" fill="#0057A7" fill-rule="nonzero"></path>
                        <path d="M32.0425532,15 L30.6808511,15 C30.6808511,15.5419574 30.475234,15.781617 30.1640851,16.1451915 C29.7875745,16.5836596 29.3191489,17.130383 29.3191489,18.1761702 C29.3191489,19.2226383 29.7875745,19.7686809 30.1640851,20.2078298 C30.475234,20.5714043 30.6808511,20.8110638 30.6808511,21.3537021 C30.6808511,21.8963404 30.475234,22.1366809 30.1634043,22.4995745 C29.7875745,22.9387234 29.3191489,23.4854468 29.3191489,24.5319149 L30.6808511,24.5319149 C30.6808511,23.9892766 30.8864681,23.7489362 31.1982979,23.3860426 C31.5741277,22.9468936 32.0425532,22.3994894 32.0425532,21.3537021 C32.0425532,20.3079149 31.5748085,19.7611915 31.1982979,19.3220426 C30.8864681,18.9591489 30.6808511,18.7188085 30.6808511,18.1761702 C30.6808511,17.6335319 30.8864681,17.3938723 31.197617,17.0309787 C31.5741277,16.5918298 32.0425532,16.0457872 32.0425532,15 Z" id="Path-Copy-4" fill="#0057A7" fill-rule="nonzero"></path>
                        <path d="M40.212766,8.46808511 L38.8510638,8.46808511 C38.8510638,9.01004255 38.6454468,9.24970213 38.3342979,9.6132766 C37.9577872,10.0517447 37.4893617,10.5984681 37.4893617,11.6442553 C37.4893617,12.6907234 37.9577872,13.236766 38.3342979,13.6759149 C38.6454468,14.0394894 38.8510638,14.2791489 38.8510638,14.8217872 C38.8510638,15.3644255 38.6454468,15.604766 38.333617,15.9676596 C37.9577872,16.4068085 37.4893617,16.9535319 37.4893617,18 L38.8510638,18 C38.8510638,17.4573617 39.0566809,17.2170213 39.3685106,16.8541277 C39.7443404,16.4149787 40.212766,15.8675745 40.212766,14.8217872 C40.212766,13.776 39.7450213,13.2292766 39.3685106,12.7901277 C39.0566809,12.427234 38.8510638,12.1868936 38.8510638,11.6442553 C38.8510638,11.101617 39.0566809,10.8619574 39.3678298,10.4990638 C39.7443404,10.0599149 40.212766,9.51387234 40.212766,8.46808511 Z" id="Path" fill="#0057A7" fill-rule="nonzero"></path>
                        <path d="M40.212766,15 L38.8510638,15 C38.8510638,15.5419574 38.6454468,15.781617 38.3342979,16.1451915 C37.9577872,16.5836596 37.4893617,17.130383 37.4893617,18.1761702 C37.4893617,19.2226383 37.9577872,19.7686809 38.3342979,20.2078298 C38.6454468,20.5714043 38.8510638,20.8110638 38.8510638,21.3537021 C38.8510638,21.8963404 38.6454468,22.1366809 38.333617,22.4995745 C37.9577872,22.9387234 37.4893617,23.4854468 37.4893617,24.5319149 L38.8510638,24.5319149 C38.8510638,23.9892766 39.0566809,23.7489362 39.3685106,23.3860426 C39.7443404,22.9468936 40.212766,22.3994894 40.212766,21.3537021 C40.212766,20.3079149 39.7450213,19.7611915 39.3685106,19.3220426 C39.0566809,18.9591489 38.8510638,18.7188085 38.8510638,18.1761702 C38.8510638,17.6335319 39.0566809,17.3938723 39.3678298,17.0309787 C39.7443404,16.5918298 40.212766,16.0457872 40.212766,15 Z" id="Path-Copy-5" fill="#0057A7" fill-rule="nonzero"></path>
                    </g>
                </g>
                <path d="M48.575,0.425 L0.425,0.425 L0.425,5 C0.425,5.71106662 0.713216692,6.35481662 1.17920004,6.82079996 C1.64518338,7.28678331 2.28893338,7.575 3,7.575 L46,7.575 C46.7110666,7.575 47.3548166,7.28678331 47.8208,6.82079996 C48.2867833,6.35481662 48.575,5.71106662 48.575,5 L48.575,0.425 Z" id="Rectangle" stroke="#0057A7" stroke-width="0.85"></path>
            </g>
        </g>
    </g>
</svg>