<?xml version="1.0" encoding="UTF-8"?>
<svg width="8px" height="14px" viewBox="0 0 8 14" version="1.1" xmlns="http://www.w3.org/2000/svg" xmlns:xlink="http://www.w3.org/1999/xlink">
    <!-- Generator: Sketch 64 (93537) - https://sketch.com -->
    <title>Group 37</title>
    <desc>Created with Sketch.</desc>
    <g id="Master" stroke="none" stroke-width="1" fill="none" fill-rule="evenodd">
        <g id="Group-37">
            <rect id="Rectangle" fill="#82B3E0" x="0.717948718" y="1.79487179" width="6.82051282" height="9.69230769"></rect>
            <g id="Group" fill-rule="nonzero">
                <path d="M3.56199584,11.4228649 C3.11453915,11.4228649 2.75051975,11.7775946 2.75051975,12.2138649 C2.75051975,12.6501351 3.11453915,13.0048649 3.56199584,13.0048649 C4.00925849,13.0048649 4.37288981,12.6501351 4.37288981,12.2138649 C4.37288981,11.7775946 4.00925849,11.4228649 3.56199584,11.4228649 Z M3.56199584,12.6830541 C3.29654886,12.6830541 3.08038808,12.4724865 3.08038808,12.2138649 C3.08038808,11.9552432 3.29654886,11.7446757 3.56199584,11.7446757 C3.82724879,11.7446757 4.04302148,11.9552432 4.04302148,12.2138649 C4.04302148,12.4724865 3.82744283,12.6830541 3.56199584,12.6830541 Z" id="Shape" fill="#0057A7"></path>
                <path d="M1.08759529,13.8450541 L6.03581428,13.8450541 C6.60182952,13.8450541 7.0622869,13.3959189 7.0622869,12.8438649 L7.0622869,1.08178378 C7.0622869,0.529918919 6.60182952,0.0807837838 6.03581428,0.0807837838 L1.08759529,0.0807837838 C0.521580042,0.0807837838 0.0611226611,0.529918919 0.0611226611,1.08178378 L0.0611226611,12.8438649 C0.0611226611,13.3959189 0.521580042,13.8450541 1.08759529,13.8450541 Z M6.03581428,13.5232432 L1.08759529,13.5232432 C0.703589744,13.5232432 0.390796951,13.2184595 0.390796951,12.8438649 L0.390796951,11.1142973 L6.73261261,11.1142973 L6.73261261,12.8438649 C6.73261261,13.2186486 6.42001386,13.5232432 6.03581428,13.5232432 Z M6.73261261,1.40018919 L6.73261261,10.7926757 L0.390990991,10.7926757 L0.390990991,1.40018919 L6.73261261,1.40018919 Z M1.08759529,0.402405405 L6.03581428,0.402405405 C6.41884962,0.402405405 6.73047817,0.705297297 6.73222453,1.07837838 L0.391379071,1.07837838 C0.393125433,0.705486486 0.704753985,0.402405405 1.08759529,0.402405405 Z" id="Shape" fill="#0057A7"></path>
                <rect id="Rectangle" fill="#FFFFFF" x="2.32712405" y="6.08356757" width="1.77372141" height="1"></rect>
                <rect id="Rectangle" fill="#FFFFFF" x="4.34979903" y="6.08356757" width="1" height="1"></rect>
            </g>
        </g>
    </g>
</svg>