<?xml version="1.0" encoding="UTF-8"?>
<svg width="85px" height="85px" viewBox="0 0 85 85" version="1.1" xmlns="http://www.w3.org/2000/svg" xmlns:xlink="http://www.w3.org/1999/xlink">
    <title>058BC6BC-AC08-447C-BD4A-099011C531CE</title>
    <g id="BETA-Feedback-VOC-Round2" stroke="none" stroke-width="1" fill="none" fill-rule="evenodd">
        <g id="5.8-Wizard_SyncApplyToTstat" transform="translate(-145.000000, -79.000000)" fill="#FFFFFF">
            <g id="Group" transform="translate(34.000000, 66.000000)">
                <g id="logo" transform="translate(82.500000, 0.000000)">
                    <g id="icon-backup" transform="translate(29.000000, 13.000000)">
                        <path d="M52.9813573,64.0066513 L60.6845206,79.9062017 L53.0249395,82.5306359 L48.8481368,65.3658485 L52.9813573,64.0066513 Z M62.0467435,56.5576028 L76.1285571,67.2270429 L70.4952886,73.042808 L58.9810797,59.6450992 L62.0467435,56.5576028 Z M66.4816008,45.8530876 L83.924103,48.6626331 L81.6805584,56.4423082 L65.2242721,50.0184271 L66.4816008,45.8530876 Z M82.1778407,28.6136276 L83.8492447,36.5359535 L66.3033768,38.5897615 L65.4580237,34.321705 L82.1778407,28.6136276 Z M71.4559909,11.7489679 L76.5418834,18.0490104 L61.84081,27.8446241 L59.1499378,24.4255401 L71.4559909,11.7489679 Z M53.9672545,1.76646707 L61.4155218,4.94139252 L53.0340065,20.4921419 L49.0529446,18.736558 L53.9672545,1.76646707 Z" id="形状结合"></path>
                        <path d="M41.8174583,-4.62705429e-13 L41.8175003,5.56816382 C22.032318,5.56816382 5.92625331,21.5956426 5.60611054,41.5247355 L5.60125365,42.1298292 C5.60125365,62.1365054 21.5094666,78.3640509 41.219088,78.6866012 L41.8175003,78.6918639 L41.8174583,84.259289 C18.7223138,84.259289 4.2751827e-13,65.3972046 4.28942998e-13,42.1296445 C4.30353477e-13,19.0947599 18.3497398,0.377682234 41.1259302,0.00564416869 L41.8174583,-4.62705429e-13 Z M41.4672531,11.9619735 L41.4672531,17.5297679 C27.6729199,17.5297679 16.4826837,28.6600332 16.4826837,42.3992497 C16.4826837,56.001074 27.4502342,67.0458653 41.0542129,67.2654009 L41.4672531,67.2687315 L41.4672531,72.8365259 C24.5519275,72.8365259 10.8470665,59.2051122 10.8470665,42.3992497 C10.8470665,25.7614458 24.2792008,12.2349192 40.960767,11.9660525 L41.4672531,11.9619735 Z M49.3537468,24.7815879 C52.1668067,25.984092 54.655604,27.8525213 56.5927829,30.2253169 L56.7574707,30.4299308 L52.3831962,33.8901278 C50.999912,32.1467617 49.1973627,30.7746354 47.1533612,29.9008821 C44.436679,28.7395768 41.4190753,28.5071112 38.5074377,29.2872821 C35.588835,30.0693194 33.0868158,31.7857803 31.3141502,34.1583377 C28.8769504,37.4203156 28.0328399,41.6207561 29.1096593,45.6395011 C31.0205482,52.7710354 38.3271503,57.0037737 45.4244837,55.102049 C48.149519,54.371878 50.5121485,52.8273778 52.2587699,50.6902821 L52.3886075,50.5288923 L56.7635225,53.9793615 C54.2665427,57.1326178 50.829197,59.4180653 46.8655349,60.4801254 C36.7858871,63.1809589 26.4257472,57.1792962 23.7205864,47.0834988 C22.1983985,41.4026162 23.3950769,35.447737 26.843707,30.8320483 C29.3597977,27.4644819 32.9244217,25.0190418 37.0663865,23.9092057 C41.198451,22.8020223 45.4976578,23.1332182 49.3537468,24.7815879 Z" id="shape-c" fill-rule="nonzero"></path>
                    </g>
                </g>
            </g>
        </g>
    </g>
</svg>