<?xml version="1.0" encoding="UTF-8"?>
<svg width="62px" height="62px" viewBox="0 0 62 62" version="1.1" xmlns="http://www.w3.org/2000/svg" xmlns:xlink="http://www.w3.org/1999/xlink">
    <title>Group 26</title>
    <g id="Add-Thermostat-100" stroke="none" stroke-width="1" fill="none" fill-rule="evenodd">
        <g id="Group-26">
            <circle id="椭圆形" fill="#EE3124" cx="31" cy="31" r="31"></circle>
            <path d="M34.901922,8.82782179 L36.4546016,13.5142983 L39.3906058,15.271727 L44.7941152,12.9284887 L50.2850952,18.2281126 L47.5174438,23.277791 L48.4878686,25.4257594 L53.8252047,27.1831881 L53.8252047,34.7987124 L48.5150405,36.5561411 L47.5174438,38.7041095 L50.2850952,43.7811257 L44.7941152,49.0534117 L39.3906058,46.7101735 L36.4546016,48.4676022 L34.901922,53.1540787 L30.9148815,53.1540787 C18.9081634,53.1540787 9.17479526,43.2313081 9.17479526,30.9909502 C9.17479526,18.872996 18.7144694,9.02650896 30.5553694,8.83079101 L30.9148815,8.82782179 L34.901922,8.82782179 Z M32.8034274,11.7570639 L30.9149033,11.7570639 C20.6289704,11.7570639 12.2557395,20.1886345 12.0893035,30.672726 L12.0867785,30.9910474 C12.0867785,41.515953 20.3571501,50.0527727 30.6038003,50.2224566 L30.9149033,50.2252252 L32.8034274,50.2252252 L34.0351442,46.5075657 L39.1784602,43.4287911 L44.1769728,45.5967672 L46.6561235,43.2162444 L44.2543433,38.8101263 L46.409602,34.1693998 L50.9132215,32.6789505 L50.9132215,29.3066572 L46.3662523,27.8093848 L44.2618385,23.1512632 L46.6551531,18.7842037 L44.1721208,16.3876689 L39.1784602,18.5533037 L34.0351442,15.474529 L32.8034274,11.7570639 Z M30.6289284,15.1189847 L30.6289284,18.0480325 C23.4575219,18.0480325 17.6399349,23.9033276 17.6399349,31.1311127 C17.6399349,38.28662 23.3417519,44.0969498 30.4141968,44.2124409 L30.6289284,44.214193 L30.6289284,47.1432408 C21.8349784,47.1432408 14.7100868,39.9721674 14.7100868,31.1311127 C14.7100868,22.3784686 21.6931931,15.2625732 30.3656161,15.1211305 L30.6289284,15.1189847 Z M34.7982728,21.8829114 C36.263755,22.5193663 37.5615552,23.5053665 38.5731315,24.7556359 L38.6591343,24.8634471 L36.3885741,26.6755491 C35.6661605,25.7569995 34.7261797,25.0329453 33.6613436,24.5704899 C32.24607,23.9558404 30.6756656,23.8289746 29.1619616,24.2345704 C27.6446366,24.6411364 26.3455038,25.5395316 25.4268654,26.7839356 C24.1638491,28.4948399 23.7311617,30.7015168 24.2976437,32.8156567 C25.3029044,36.5673406 29.1110437,38.8036063 32.8008097,37.8149364 C34.2175028,37.4353347 35.4443779,36.6271159 36.3498299,35.5064432 L36.4171341,35.4218087 L38.6987202,37.2423345 C37.4044325,38.8959963 35.6195342,40.0920349 33.5589031,40.6441794 C28.3186895,42.0482904 22.9190722,38.877456 21.4959692,33.5663631 C20.6951923,30.577823 21.3086045,27.4494621 23.0957686,25.0285377 C24.399668,23.2622523 26.250541,21.9823098 28.4038683,21.4053275 C30.5520485,20.8297243 32.7894177,21.0104711 34.7982728,21.8829114 Z" id="shape备份" fill="#FFFFFF" fill-rule="nonzero"></path>
        </g>
    </g>
</svg>