<?xml version="1.0" encoding="UTF-8"?>
<svg width="47px" height="46px" viewBox="0 0 47 46" version="1.1" xmlns="http://www.w3.org/2000/svg" xmlns:xlink="http://www.w3.org/1999/xlink">
    <title>shape备份</title>
    <g id="Nav_Site_User" stroke="none" stroke-width="1" fill="none" fill-rule="evenodd">
        <g id="NAV-02" transform="translate(-20.000000, -46.000000)" fill="#FFFFFF" fill-rule="nonzero">
            <path d="M47.0047475,46.5 L48.604358,51.2733725 L51.629105,53.0633872 L57.1959394,50.6767009 L62.8528881,56.0745897 L60.0015825,61.2178985 L61.001339,63.4056942 L66.5,65.1957089 L66.5,72.9524392 L61.0293322,74.7424539 L60.0015825,76.9302496 L62.8528881,82.1014032 L57.1959394,87.4714472 L51.629105,85.084761 L48.604358,86.8747757 L47.0047475,91.6481481 L42.8971959,91.6481481 C30.5275661,91.6481481 20.5,81.5413909 20.5,69.0740741 C20.5,56.7314304 30.3280176,46.7023712 42.5268173,46.5030243 L42.8971959,46.5 L47.0047475,46.5 Z M44.8428245,49.4835557 L42.8972183,49.4835557 C32.3003858,49.4835557 23.674068,58.0714633 23.5026013,68.7499493 L23.5,69.074173 C23.5,79.79423 32.0203495,88.4893382 42.576712,88.6621684 L42.8972183,88.6649883 L44.8428245,88.6649883 L46.1117707,84.8783965 L51.4105471,81.7425357 L56.5601433,83.9507101 L59.1142281,81.526048 L56.6398524,77.0382322 L58.8602554,72.3114581 L63.5,70.7933731 L63.5,67.3585511 L58.8155954,65.8335165 L56.6475742,61.0890247 L59.1132284,56.6409918 L56.5551447,54.2000208 L51.4105471,56.4058104 L46.1117707,53.2699496 L44.8428245,49.4835557 Z M41.7962963,53.3148148 L41.7962963,56.2755194 C34.5049025,56.2755194 28.5899796,62.1940978 28.5899796,69.5 C28.5899796,76.7328432 34.3871956,82.6059703 41.577972,82.7227095 L41.7962963,82.7244806 L41.7962963,85.6851852 C32.8552118,85.6851852 25.6111111,78.4366077 25.6111111,69.5 C25.6111111,60.6527584 32.7110542,53.4599552 41.5285784,53.3169838 L41.7962963,53.3148148 Z M46.4724275,60.1829779 C47.9756644,60.8321861 49.306446,61.8389878 50.3432125,63.1163146 L50.4313553,63.2264602 L48.0992954,65.0817901 C47.3589198,64.1433396 46.3950618,63.4039962 45.3027926,62.9322741 C43.8510579,62.3053084 42.2395997,62.1772728 40.6857576,62.5936236 C39.1281984,63.0109703 37.7940263,63.9309829 36.8499571,65.2043846 C35.5519766,66.9551572 35.1055711,69.2119705 35.6846417,71.3730913 C36.7122415,75.208146 40.6178631,77.4906615 44.405469,76.4757755 C45.8597279,76.086108 47.1196502,75.2583792 48.0500544,74.1115082 L48.1192147,74.0248963 L50.4586898,75.8839525 C49.128679,77.5762275 47.2956808,78.8011051 45.1804089,79.3678905 C39.801243,80.8092337 34.263404,77.5728211 32.8086764,72.1437039 C31.9901045,69.0887518 32.6229644,65.8893133 34.4596028,63.4119755 C35.7995982,61.6045314 37.7003917,60.2937904 39.9108177,59.7015086 C42.1159603,59.1106424 44.4118191,59.2930558 46.4724275,60.1829779 Z" id="shape备份"></path>
        </g>
    </g>
</svg>