<?xml version="1.0" encoding="UTF-8"?>
<svg width="24px" height="24px" viewBox="0 0 24 24" version="1.1" xmlns="http://www.w3.org/2000/svg" xmlns:xlink="http://www.w3.org/1999/xlink">
    <title>0FA99C94-FD69-4F55-8971-AD52771AACA6</title>
    <defs>
        <path d="M12,0 C18.627417,0 24,5.372583 24,12 C24,18.627417 18.627417,24 12,24 C5.372583,24 0,18.627417 0,12 C0,5.372583 5.372583,0 12,0 Z M12,2 C6.4771525,2 2,6.4771525 2,12 C2,17.5228475 6.4771525,22 12,22 C17.5228475,22 22,17.5228475 22,12 C22,6.4771525 17.5228475,2 12,2 Z M12,14 C13.1045695,14 14,14.8954305 14,16 C14,17.1045695 13.1045695,18 12,18 C10.8954305,18 10,17.1045695 10,16 C10,14.8954305 10.8954305,14 12,14 Z M14,6 L13,13 L11,13 L10,6 L14,6 Z" id="path-1"></path>
    </defs>
    <g id="22.1" stroke="none" stroke-width="1" fill="none" fill-rule="evenodd">
        <g id="Purge-1-unable1" transform="translate(-32.000000, -118.000000)">
            <rect fill="#000000" x="0" y="0" width="375" height="766"></rect>
            <path d="M24,38 L351,38 C364.254834,38 375,48.745166 375,62 L375,658 L375,658 L0,658 L0,62 C-1.623249e-15,48.745166 10.745166,38 24,38 Z" id="矩形-copy" fill="#0057A7"></path>
            <polygon id="矩形-copy-2" fill="#FFFFFF" points="0 129 375 129 375 1514 0 1514"></polygon>
            <rect id="layout" fill-opacity="0.3" fill="#000000" x="0" y="0" width="375" height="812"></rect>
            <path d="M24,32 L351,32 C364.254834,32 375,42.745166 375,56 L375,769 L375,769 L0,769 L0,56 C-1.623249e-15,42.745166 10.745166,32 24,32 Z" id="Rectangle" fill="#FFFFFF"></path>
            <g id="notification/-yellow/-mark" transform="translate(16.000000, 102.000000)">
                <rect id="矩形" fill="#F5A623" x="0" y="0" width="343" height="56" rx="8"></rect>
                <g id="Icon-/-mark/-ye-Copy" transform="translate(16.000000, 16.000000)">
                    <mask id="mask-2" fill="white">
                        <use xlink:href="#path-1"></use>
                    </mask>
                    <use id="Mask" fill="#FFFFFF" xlink:href="#path-1"></use>
                </g>
            </g>
        </g>
    </g>
</svg>