<?xml version="1.0" encoding="UTF-8"?>
<svg width="13px" height="16px" viewBox="0 0 13 16" version="1.1" xmlns="http://www.w3.org/2000/svg" xmlns:xlink="http://www.w3.org/1999/xlink">
    <!-- Generator: Sketch 64 (93537) - https://sketch.com -->
    <title>Document / Certification / 16px@1.5x</title>
    <desc>Created with Sketch.</desc>
    <defs>
        <path d="M9.499,12.916 C9.82,12.916 10.083,13.178 10.083,13.5 C10.083,13.822 9.82,14.084 9.499,14.084 C9.177,14.084 8.914,13.822 8.914,13.5 C8.914,13.178 9.177,12.916 9.499,12.916 L9.499,12.916 Z M9.49,15.834 L9,16.154 L9,14.996 C9.157,15.049 9.323,15.084 9.499,15.084 C9.675,15.084 9.842,15.049 10,14.995 L10,16.162 L9.49,15.834 Z M8,14 L8,18.004 L9.494,17.025 L11,17.996 L11,14 L10.994,14 C11.047,13.842 11.083,13.676 11.083,13.5 C11.083,12.625 10.373,11.916 9.499,11.916 C8.624,11.916 7.914,12.625 7.914,13.5 C7.914,13.676 7.95,13.842 8.003,14 L8,14 Z M11.999,15 L15,15 L15,14 L11.999,14 L11.999,15 Z M11.999,13 L15,13 L15,12 L11.999,12 L11.999,13 Z M9,11 L15,11 L15,10 L9,10 L9,11 Z M9,9 L15,9 L15,8 L9,8 L9,9 Z M9,7 L15,7 L15,5.999 L9,5.999 L9,7 Z M6,20 L18,20 L18,4 L6,4 L6,20 Z M7,19 L17,19 L17,5 L7,5 L7,19 Z" id="path-1"></path>
    </defs>
    <g id="Sensor-" stroke="none" stroke-width="1" fill="none" fill-rule="evenodd">
        <g id="3.1.-Sensor---General-Copy-2" transform="translate(-43.000000, -163.000000)" fill="#0057A7">
            <g id="Group-3" transform="translate(25.000000, 147.000000)">
                <g id="Document-/-Certification-/-16px" transform="translate(12.500000, 12.000000)">
                    <mask id="mask-2" fill="none">
                        <use xlink:href="#path-1"></use>
                    </mask>
                    <use id="Mask" fill="#0057A7" xlink:href="#path-1"></use>
                    <g id="*Style*-/-Icon-/-Tint-/-Actionable---Dark-Background-/-Interactive" fill="none" mask="url(#mask-2)">
                        <rect id="Light-Theme" fill="#FFFFFF" x="0" y="0" width="24" height="24"></rect>
                    </g>
                </g>
            </g>
        </g>
    </g>
</svg>