<svg xmlns:xlink="http://www.w3.org/1999/xlink" xmlns="http://www.w3.org/2000/svg" version="1.1" viewBox="0 0 65 65" height="65px" width="65px">
    
    <title>Checkout</title>
    <desc>Created with Sketch.</desc>
    <defs>
        <path id="path-1" d="M49.637475,22.5223375 L46.7800167,19.6648792 L26.7980167,39.6468792 L18.2216,31.0704625 L15.3641417,33.9279208 L25.5612667,44.1331292 L25.5936,44.1048375 L26.8263083,45.3375458 L49.637475,22.5223375 Z M32.5,60.8862417 C16.846625,60.8862417 4.115375,48.1549917 4.115375,32.5016167 C4.115375,16.8482417 16.846625,4.11295 32.5,4.11295 C48.153375,4.11295 60.884625,16.8482417 60.884625,32.5016167 C60.884625,48.1549917 48.153375,60.8862417 32.5,60.8862417 M32.5,0.168283333 C14.6722083,0.168283333 0.166666667,14.6697833 0.166666667,32.5016167 C0.166666667,50.3294083 14.6722083,64.83495 32.5,64.83495 C50.3277917,64.83495 64.8333333,50.3294083 64.8333333,32.5016167 C64.8333333,14.6697833 50.3277917,0.168283333 32.5,0.168283333"></path>
    </defs>
    <g fill-rule="evenodd" fill="none" stroke-width="1" stroke="none" id="Master">
        <g id="Checkout">
            <mask fill="#0057A7" id="mask-2">
                <use xlink:href="#path-1"></use>
            </mask>
            <use xlink:href="#path-1" fill="#0057A7" id="Mask"></use>
            <g mask="url(#mask-2)" id="*Style*-/-Icon-/-Tint-/-Actionable---Light-Background-/-Interactive">
                <g id="*Style*-/-Color-/-Action-/-Secondary" transform="translate(-16.000000, -16.000000)">
                    <g>
                        <rect height="97" width="97" y="0" x="0" fill="#FFF" id="Light-Theme"></rect>
                    </g>
                </g>
            </g>
        </g>
    </g>
</svg>