<?xml version="1.0" encoding="UTF-8"?>
<svg width="75px" height="52px" viewBox="0 0 75 52" version="1.1" xmlns="http://www.w3.org/2000/svg" xmlns:xlink="http://www.w3.org/1999/xlink">
    <!-- Generator: Sketch 64 (93537) - https://sketch.com -->
    <title>Conventional</title>
    <desc>Created with Sketch.</desc>
    <g id="Thermostat-Copy" stroke="none" stroke-width="1" fill="none" fill-rule="evenodd">
        <g id="5.4.-Thermosat-equipment" transform="translate(-68.000000, -446.000000)">
            <g id="Conventional" transform="translate(68.000000, 446.000000)">
                <rect id="Rectangle-Copy" fill-opacity="0.705228365" fill="#82B3E0" x="29" y="16" width="46" height="36" rx="3.6"></rect>
                <rect id="Rectangle" fill-opacity="0.705228365" fill="#82B3E0" x="4" y="4" width="46" height="36" rx="3.6"></rect>
                <g id="编组-6" transform="translate(25.000000, 12.000000)">
                    <rect id="Rectangle" stroke="#0057A7" stroke-width="1.8" fill="#FFFFFF" x="0.9" y="0.9" width="45.0779221" height="35.539798" rx="3.6"></rect>
                    <path d="M42.0908635,22.2651916 C42.3327585,22.2573992 42.5219898,22.0705985 42.5135235,21.8479604 C42.5050572,21.6253223 42.3020992,21.4511554 42.0602042,21.4589477 L38.9285779,21.5597282 C38.6447794,21.5552651 38.3659526,21.4904178 38.1139171,21.3702609 L35.656795,20.048021 C35.5638467,20.0179448 35.501652,19.9371417 35.501652,19.8464601 C35.501652,19.7557784 35.5638467,19.6749753 35.656795,19.6448991 L38.1139171,18.3387841 C38.3659526,18.2186272 38.6447794,18.1537799 38.9285779,18.1493168 L42.0602042,18.2500972 C42.3020992,18.2578896 42.5050572,18.0837227 42.5135235,17.8610846 C42.5219899,17.6384465 42.3327585,17.4516457 42.0908635,17.4438534 L40.3389047,17.3874163 C40.0980104,17.3874163 40.071731,17.2826046 40.2819661,17.1697305 L42.5638924,15.9603647 C42.6670793,15.9099309 42.7440966,15.8236429 42.7778194,15.7206868 C42.8115423,15.6177308 42.7991752,15.5066412 42.7434681,15.4121189 L42.7434681,15.4121189 C42.6231924,15.2201779 42.3571521,15.1535612 42.1478022,15.2629638 L39.8658759,16.4723296 C39.6556408,16.5852037 39.5768027,16.5126418 39.69068,16.3191432 L40.5009609,14.9122477 C40.6140411,14.7162714 40.5337785,14.4730311 40.3213851,14.3680331 L40.3213851,14.3680331 C40.108458,14.2639551 39.8441787,14.3378281 39.7300991,14.5333131 L38.2584537,17.0770125 C38.1166972,17.304628 37.9167389,17.4969704 37.6759274,17.6373519 L35.2188053,18.9434669 C35.0085702,19.0523099 34.8377542,18.9434669 34.8377542,18.741906 L34.8377542,16.1337072 C34.8507373,15.871833 34.9302426,15.6164073 35.0698888,15.3879316 L36.7298697,12.9450128 C36.7916356,12.8541844 36.8115713,12.7444603 36.7852731,12.6400778 C36.7589749,12.5356953 36.6886069,12.4452442 36.589713,12.3887045 L36.589713,12.3887045 C36.4910285,12.3318557 36.3718139,12.3135071 36.2584029,12.3377117 C36.1449919,12.3619163 36.0467172,12.4266824 35.9852872,12.5177035 L35.0698888,13.868162 C34.9428718,14.053598 34.8377542,14.0253795 34.8377542,13.8036624 L34.8377542,11.3808997 C34.8377542,11.1582616 34.6416596,10.9777778 34.3997645,10.9777778 L34.3997645,10.9777778 C34.1578695,10.9777778 33.9617749,11.1582616 33.9617749,11.3808997 L33.9617749,13.7996312 C33.9617749,14.0213483 33.8566573,14.0495668 33.7296403,13.8641307 L32.8142419,12.5136723 C32.752105,12.4233189 32.6535104,12.3593897 32.5401542,12.3359528 C32.4267981,12.3125159 32.3079691,12.3314917 32.2098161,12.3887045 L32.2098161,12.3887045 C32.1109222,12.4452442 32.0405542,12.5356953 32.014256,12.6400778 C31.9879578,12.7444603 32.0078935,12.8541844 32.0696594,12.9450128 L33.7296403,15.3879316 C33.8692865,15.6164073 33.9487918,15.871833 33.9617749,16.1337072 L33.9617749,18.7459372 C33.9617749,18.9676543 33.7909589,19.0563411 33.5807238,18.9474982 L31.1236017,17.6413831 C30.8827902,17.5010016 30.6828319,17.3086592 30.5410754,17.0810437 L29.06943,14.5373443 C28.9553503,14.3418593 28.6910711,14.2679864 28.4781439,14.3720644 L28.4781439,14.3720644 C28.2657506,14.4770623 28.185488,14.7203026 28.2985682,14.916279 L29.1088491,16.3231745 C29.2227264,16.516673 29.1438883,16.5892349 28.9336532,16.4763608 L26.6517269,15.266995 C26.4486442,15.1700181 26.1986792,15.2332422 26.0779604,15.4121189 L26.0779604,15.4121189 C26.019106,15.5045583 26.0026545,15.614759 26.0322393,15.7183827 C26.0618241,15.8220064 26.1350112,15.9105276 26.2356367,15.9643959 L28.517563,17.1737617 C28.7277981,17.2866359 28.7015187,17.3833851 28.4606244,17.3914476 L26.7086656,17.4478846 C26.4667706,17.455677 26.2775392,17.6424777 26.2860055,17.8651158 C26.2944719,18.0877539 26.4974298,18.2619208 26.7393249,18.2541285 L29.8709512,18.153348 C30.1547497,18.1578111 30.4335765,18.2226585 30.685612,18.3428153 L33.1427341,19.6489303 C33.2356824,19.6790065 33.2978771,19.7598096 33.2978771,19.8504913 C33.2978771,19.941173 33.2356824,20.021976 33.1427341,20.0520522 L30.685612,21.3581673 C30.4335765,21.4783241 30.1547497,21.5431714 29.8709512,21.5476346 L26.7393249,21.4589477 C26.5828462,21.453907 26.4353322,21.5260837 26.3523498,21.6482897 C26.2693675,21.7704957 26.2635239,21.9241649 26.3370202,22.0514116 C26.4105165,22.1786584 26.5521869,22.2601508 26.7086656,22.2651916 L28.4606244,22.3216287 C28.7015187,22.3216287 28.7277981,22.4264404 28.517563,22.5393145 L26.2356367,23.7486803 C26.0388346,23.8600263 25.9698269,24.0929114 26.0779604,24.2808012 L26.0779604,24.2808012 C26.1982361,24.4727422 26.4642765,24.5393589 26.6736264,24.4299563 L28.9555527,23.2205905 C29.1657878,23.1077164 29.2446259,23.1802783 29.1307486,23.3737769 L28.3204677,24.7806724 C28.2073875,24.9766487 28.2876501,25.219889 28.5000434,25.324887 L28.5000434,25.324887 C28.7129706,25.428965 28.9772498,25.355092 29.0913295,25.159607 L30.5629749,22.6159077 C30.7047314,22.3882921 30.9046897,22.1959497 31.1455011,22.0555682 L33.6026233,20.7494532 C33.8128584,20.6406102 33.9836743,20.7494532 33.9836743,20.9510141 L33.9836743,23.5632442 C33.9706913,23.8251183 33.891186,24.0805441 33.7515398,24.3090197 L32.0915589,26.7519386 C31.9616876,26.9350782 32.0141584,27.180124 32.2098161,27.3042156 L32.2098161,27.3042156 C32.3085005,27.3610644 32.4277152,27.379413 32.5411262,27.3552084 C32.6545372,27.3310038 32.7528119,27.2662377 32.8142419,27.1752166 L33.7296403,25.8247582 C33.8566573,25.6393221 33.9617749,25.6675406 33.9617749,25.8892577 L33.9617749,28.3079892 C33.9617749,28.5306273 34.1578695,28.7111111 34.3997645,28.7111111 L34.3997645,28.7111111 C34.6416596,28.7111111 34.8377542,28.5306273 34.8377542,28.3079892 L34.8377542,25.8932889 C34.8377542,25.6715718 34.9428718,25.6433533 35.0698888,25.8287894 L35.9852872,27.1792478 C36.047424,27.2696012 36.1460187,27.3335304 36.2593748,27.3569673 C36.372731,27.3804042 36.49156,27.3614284 36.589713,27.3042156 L36.589713,27.3042156 C36.6886069,27.247676 36.7589749,27.1572248 36.7852731,27.0528423 C36.8115713,26.9484598 36.7916356,26.8387357 36.7298697,26.7479074 L35.0698888,24.3049885 C34.9302426,24.0765128 34.8507373,23.8210871 34.8377542,23.559213 L34.8377542,20.9469829 C34.8377542,20.7252658 35.0085702,20.636579 35.2188053,20.7454219 L37.6759274,22.051537 C37.9167389,22.1919185 38.1166972,22.3842609 38.2584537,22.6118764 L39.7300991,25.1555758 C39.8441787,25.3510608 40.108458,25.4249338 40.3213851,25.3208558 L40.3213851,25.3208558 C40.5337785,25.2158578 40.6140411,24.9726175 40.5009609,24.7766412 L39.69068,23.3697456 C39.5768027,23.1762471 39.6556408,23.1036852 39.8658759,23.2165593 L42.1478022,24.4259251 C42.3560107,24.5360105 42.6217021,24.4712793 42.7434681,24.2808012 L42.7434681,24.2808012 C42.8023225,24.1883618 42.818774,24.0781611 42.7891892,23.9745374 C42.7596045,23.8709137 42.6864174,23.7823925 42.5857918,23.7285242 L40.3038656,22.5191584 C40.0936305,22.4062843 40.1199099,22.309535 40.3608042,22.3014726 L42.0908635,22.2651916 Z" id="Path-Copy" fill="#A7C9E9" fill-rule="nonzero"></path>
                    <path d="M41.2515778,21.4207471 C41.4934728,21.4129548 41.6827041,21.226154 41.6742378,21.003516 C41.6657715,20.7808779 41.4628135,20.606711 41.2209185,20.6145033 L38.0892922,20.7152838 C37.8054937,20.7108206 37.5266669,20.6459733 37.2746314,20.5258165 L34.8175092,19.2035766 C34.724561,19.1735004 34.6623663,19.0926973 34.6623663,19.0020156 C34.6623663,18.9113339 34.724561,18.8305308 34.8175092,18.8004546 L37.2746314,17.4943396 C37.5266669,17.3741828 37.8054937,17.3093355 38.0892922,17.3048723 L41.2209185,17.4056528 C41.4628135,17.4134451 41.6657715,17.2392782 41.6742378,17.0166401 C41.6827042,16.7940021 41.4934728,16.6072013 41.2515778,16.599409 L39.499619,16.5429719 C39.2587247,16.5429719 39.2324453,16.4381602 39.4426804,16.325286 L41.7246066,15.1159203 C41.8277936,15.0654865 41.9048109,14.9791984 41.9385337,14.8762424 C41.9722566,14.7732864 41.9598895,14.6621968 41.9041824,14.5676745 L41.9041824,14.5676745 C41.7839067,14.3757334 41.5178664,14.3091168 41.3085164,14.4185194 L39.0265902,15.6278851 C38.8163551,15.7407593 38.737517,15.6681973 38.8513943,15.4746988 L39.6616752,14.0678033 C39.7747554,13.8718269 39.6944928,13.6285866 39.4820994,13.5235887 L39.4820994,13.5235887 C39.2691722,13.4195107 39.004893,13.4933837 38.8908134,13.6888687 L37.419168,16.232568 C37.2774115,16.4601835 37.0774532,16.6525259 36.8366417,16.7929075 L34.3795195,18.0990225 C34.1692845,18.2078654 33.9984685,18.0990225 33.9984685,17.8974615 L33.9984685,15.2892627 C34.0114516,15.0273886 34.0909569,14.7719628 34.2306031,14.5434872 L35.890584,12.1005683 C35.9523499,12.00974 35.9722856,11.9000158 35.9459874,11.7956334 C35.9196892,11.6912509 35.8493212,11.6007997 35.7504273,11.5442601 L35.7504273,11.5442601 C35.6517428,11.4874113 35.5325282,11.4690626 35.4191172,11.4932673 C35.3057062,11.5174719 35.2074315,11.582238 35.1460015,11.6732591 L34.2306031,13.0237175 C34.103586,13.2091536 33.9984685,13.1809351 33.9984685,12.959218 L33.9984685,10.5364553 C33.9984685,10.3138172 33.8023739,10.1333333 33.5604788,10.1333333 L33.5604788,10.1333333 C33.3185838,10.1333333 33.1224891,10.3138172 33.1224891,10.5364553 L33.1224891,12.9551868 C33.1224891,13.1769038 33.0173716,13.2051224 32.8903546,13.0196863 L31.9749562,11.6692279 C31.9128193,11.5788744 31.8142247,11.5149453 31.7008685,11.4915084 C31.5875124,11.4680715 31.4686833,11.4870473 31.3705304,11.5442601 L31.3705304,11.5442601 C31.2716365,11.6007997 31.2012685,11.6912509 31.1749703,11.7956334 C31.1486721,11.9000158 31.1686078,12.00974 31.2303737,12.1005683 L32.8903546,14.5434872 C33.0300008,14.7719628 33.1095061,15.0273886 33.1224891,15.2892627 L33.1224891,17.9014928 C33.1224891,18.1232098 32.9516732,18.2118966 32.7414381,18.1030537 L30.284316,16.7969387 C30.0435045,16.6565572 29.8435462,16.4642147 29.7017897,16.2365992 L28.2301443,13.6928999 C28.1160646,13.4974149 27.8517854,13.4235419 27.6388582,13.5276199 L27.6388582,13.5276199 C27.4264649,13.6326179 27.3462023,13.8758582 27.4592825,14.0718345 L28.2695634,15.47873 C28.3834407,15.6722285 28.3046026,15.7447905 28.0943675,15.6319163 L25.8124412,14.4225506 C25.6093585,14.3255736 25.3593935,14.3887978 25.2386747,14.5676745 L25.2386747,14.5676745 C25.1798203,14.6601138 25.1633688,14.7703145 25.1929536,14.8739382 C25.2225384,14.9775619 25.2957254,15.0660831 25.396351,15.1199515 L27.6782773,16.3293173 C27.8885123,16.4421914 27.862233,16.5389407 27.6213386,16.5470031 L25.8693799,16.6034402 C25.6274849,16.6112325 25.4382535,16.7980333 25.4467198,17.0206714 C25.4551862,17.2433095 25.6581441,17.4174764 25.9000392,17.409684 L29.0316654,17.3089035 C29.3154639,17.3133667 29.5942908,17.378214 29.8463263,17.4983708 L32.3034484,18.8044859 C32.3963967,18.8345621 32.4585914,18.9153651 32.4585914,19.0060468 C32.4585914,19.0967285 32.3963967,19.1775316 32.3034484,19.2076078 L29.8463263,20.5137228 C29.5942908,20.6338797 29.3154639,20.698727 29.0316654,20.7031901 L25.9000392,20.6145033 C25.7435605,20.6094625 25.5960465,20.6816393 25.5130641,20.8038453 C25.4300818,20.9260512 25.4242382,21.0797205 25.4977345,21.2069672 C25.5712308,21.3342139 25.7129012,21.4157064 25.8693799,21.4207471 L27.6213386,21.4771842 C27.862233,21.4771842 27.8885123,21.5819959 27.6782773,21.69487 L25.396351,22.9042358 C25.1995489,23.0155819 25.1305412,23.248467 25.2386747,23.4363567 L25.2386747,23.4363567 C25.3589504,23.6282978 25.6249908,23.6949144 25.8343407,23.5855119 L28.116267,22.3761461 C28.326502,22.263272 28.4053402,22.3358339 28.2914629,22.5293324 L27.4811819,23.9362279 C27.3681018,24.1322043 27.4483643,24.3754446 27.6607577,24.4804425 L27.6607577,24.4804425 C27.8736849,24.5845205 28.1379641,24.5106475 28.2520438,24.3151625 L29.7236891,21.7714632 C29.8654457,21.5438477 30.0654039,21.3515053 30.3062154,21.2111237 L32.7633376,19.9050087 C32.9735726,19.7961658 33.1443886,19.9050087 33.1443886,20.1065697 L33.1443886,22.7187997 C33.1314056,22.9806739 33.0519002,23.2360996 32.9122541,23.4645753 L31.2522732,25.9074941 C31.1224019,26.0906337 31.1748727,26.3356796 31.3705304,26.4597712 L31.3705304,26.4597712 C31.4692148,26.51662 31.5884295,26.5349686 31.7018405,26.510764 C31.8152515,26.4865593 31.9135261,26.4217932 31.9749562,26.3307721 L32.8903546,24.9803137 C33.0173716,24.7948776 33.1224891,24.8230962 33.1224891,25.0448132 L33.1224891,27.4635447 C33.1224891,27.6861828 33.3185838,27.8666667 33.5604788,27.8666667 L33.5604788,27.8666667 C33.8023739,27.8666667 33.9984685,27.6861828 33.9984685,27.4635447 L33.9984685,25.0488444 C33.9984685,24.8271274 34.103586,24.7989088 34.2306031,24.9843449 L35.1460015,26.3348034 C35.2081383,26.4251568 35.306733,26.4890859 35.4200891,26.5125228 C35.5334453,26.5359597 35.6522743,26.5169839 35.7504273,26.4597712 L35.7504273,26.4597712 C35.8493212,26.4032315 35.9196892,26.3127803 35.9459874,26.2083979 C35.9722856,26.1040154 35.9523499,25.9942912 35.890584,25.9034629 L34.2306031,23.4605441 C34.0909569,23.2320684 34.0114516,22.9766427 33.9984685,22.7147685 L33.9984685,20.1025385 C33.9984685,19.8808214 34.1692845,19.7921346 34.3795195,19.9009775 L36.8366417,21.2070925 C37.0774532,21.3474741 37.2774115,21.5398165 37.419168,21.767432 L38.8908134,24.3111313 C39.004893,24.5066163 39.2691722,24.5804893 39.4820994,24.4764113 L39.4820994,24.4764113 C39.6944928,24.3714134 39.7747554,24.1281731 39.6616752,23.9321967 L38.8513943,22.5253012 C38.737517,22.3318027 38.8163551,22.2592407 39.0265902,22.3721149 L41.3085164,23.5814806 C41.516725,23.691566 41.7824164,23.6268348 41.9041824,23.4363567 L41.9041824,23.4363567 C41.9630368,23.3439174 41.9794883,23.2337167 41.9499035,23.130093 C41.9203187,23.0264693 41.8471317,22.9379481 41.7465061,22.8840797 L39.4645798,21.674714 C39.2543448,21.5618398 39.2806242,21.4650906 39.5215185,21.4570281 L41.2515778,21.4207471 Z" id="Path-Copy" fill="#0057A7" fill-rule="nonzero"></path>
                    <line x1="8.88116883" y1="11.4690909" x2="14.7409091" y2="11.4690909" id="Line-16" stroke="#0057A7" stroke-width="2.4" stroke-linecap="round"></line>
                    <line x1="8.88116883" y1="18.3474747" x2="14.7409091" y2="18.3474747" id="Line-16-Copy" stroke="#0057A7" stroke-width="2.4" stroke-linecap="round"></line>
                    <line x1="9.72045455" y1="26.070303" x2="15.5801948" y2="26.070303" id="Line-16-Copy-2" stroke="#A7C9E9" stroke-width="2.4" stroke-linecap="round"></line>
                    <line x1="8.88116883" y1="25.2258586" x2="14.7409091" y2="25.2258586" id="Line-16-Copy-2" stroke="#0057A7" stroke-width="2.4" stroke-linecap="round"></line>
                </g>
                <g id="编组-6">
                    <rect id="Rectangle" stroke="#0057A7" stroke-width="1.8" fill="#FFFFFF" x="0.9" y="0.9" width="45.0779221" height="35.539798" rx="3.6"></rect>
                    <g id="编组-2" transform="translate(22.660714, 8.444444)">
                        <path d="M7.39388783,20.5926767 C8.81184582,20.7539771 10.4017273,19.8854317 11.021031,17.6449492 C11.6403348,15.4044667 9.65919719,14.0433042 8.91655964,12.8565831 C8.42146794,12.0654357 8.21790503,11.1576858 8.30587091,10.1333333 C7.69785924,10.5903138 7.15446399,11.2330785 6.67568519,12.0616276 C5.95751698,13.3044511 6.28563113,14.6563379 6.1308052,14.8027621 C5.66972798,15.2388188 5.24831422,14.5560002 4.86656391,12.7543065 C4.70782065,13.7440493 4.59076811,14.4268679 4.51540629,14.8027621 C4.20665348,16.342778 4.07774494,17.2696977 4.33038363,17.9527648 C4.84808843,19.3524994 5.97592985,20.4313764 7.39388783,20.5926767 Z" id="路径-3" fill="#A7C9E9"></path>
                        <path d="M5.97422206,20.1237193 C8.6235743,20.4340603 11.5941533,18.7629837 12.7512776,14.4523077 C13.9084019,10.1416316 10.2067892,7.5227624 8.81922453,5.23951759 C7.89418139,3.71735439 7.51383877,1.97084852 7.67819668,-1.48903184e-13 C6.54217071,0.879227843 5.52687588,2.11590367 4.63231221,3.71002749 C3.2904667,6.10121321 3.90352432,8.70223593 3.61424324,8.98395534 C2.7527537,9.82292593 1.96537248,8.50918682 1.25209956,5.04273803 C0.955499223,6.94699777 0.736794989,8.26073688 0.595986862,8.98395534 C0.019104505,11.9469375 -0.221751814,13.7303259 0.250285365,15.0445432 C1.21757945,17.7376249 3.32486981,19.8133783 5.97422206,20.1237193 Z" id="路径-3" stroke="#0057A7" stroke-width="1.37870132"></path>
                        <path d="M6.27635944,19.7007135 C7.69431743,19.8620139 9.28419894,18.9934685 9.90350265,16.752986 C10.5228064,14.5125035 8.5416688,13.1513409 7.79903125,11.9646199 C7.30393955,11.1734725 7.10037664,10.2657226 7.18834252,9.24137013 C6.58033084,9.69835056 6.0369356,10.3411153 5.5581568,11.1696643 C4.83998859,12.4124879 5.16810274,13.7643747 5.01327681,13.9107989 C4.55219959,14.3468555 4.13078582,13.664037 3.74903552,11.8623433 C3.59029226,12.8520861 3.47323972,13.5349047 3.3978779,13.9107989 C3.08912509,15.4508148 2.96021654,16.3777345 3.21285524,17.0608016 C3.73056004,18.4605362 4.85840146,19.5394132 6.27635944,19.7007135 Z" id="路径-3" stroke="#0057A7" stroke-width="1.37870132"></path>
                    </g>
                    <line x1="7.2025974" y1="12.3135354" x2="13.0623377" y2="12.3135354" id="Line-16" stroke="#A7C9E9" stroke-width="2.4" stroke-linecap="round"></line>
                    <line x1="7.2025974" y1="19.1919192" x2="13.0623377" y2="19.1919192" id="Line-16-Copy" stroke="#A7C9E9" stroke-width="2.4" stroke-linecap="round"></line>
                    <line x1="7.2025974" y1="26.070303" x2="13.0623377" y2="26.070303" id="Line-16-Copy-2" stroke="#A7C9E9" stroke-width="2.4" stroke-linecap="round"></line>
                    <line x1="6.36331169" y1="11.4690909" x2="12.2230519" y2="11.4690909" id="Line-16" stroke="#0057A7" stroke-width="2.4" stroke-linecap="round"></line>
                    <line x1="6.36331169" y1="18.3474747" x2="12.2230519" y2="18.3474747" id="Line-16-Copy" stroke="#0057A7" stroke-width="2.4" stroke-linecap="round"></line>
                    <line x1="6.36331169" y1="25.2258586" x2="12.2230519" y2="25.2258586" id="Line-16-Copy-2" stroke="#0057A7" stroke-width="2.4" stroke-linecap="round"></line>
                </g>
            </g>
        </g>
    </g>
</svg>