<?xml version="1.0" encoding="UTF-8"?>
<svg width="16px" height="17px" viewBox="0 0 16 17" version="1.1" xmlns="http://www.w3.org/2000/svg" xmlns:xlink="http://www.w3.org/1999/xlink">
    <title>Path</title>
    <g id="Thermostat" stroke="none" stroke-width="1" fill="none" fill-rule="evenodd">
        <g id="5.6.4.-Thermosat-comfort-edit-Copy-3" transform="translate(-29.000000, -361.000000)" fill="#0164BF" fill-rule="nonzero">
            <path d="M44.3206529,371.626968 C44.5512251,371.619632 44.7315988,371.443761 44.7235288,371.23415 C44.7154588,371.024539 44.522001,370.860563 44.2914287,370.867899 L41.3063892,370.962783 C41.0358749,370.958581 40.7700995,370.897528 40.5298614,370.784402 L38.1877535,369.539528 C38.099156,369.511212 38.0398725,369.435137 38.0398725,369.349761 C38.0398725,369.264385 38.099156,369.18831 38.1877535,369.159994 L40.5298614,367.930302 C40.7700995,367.817175 41.0358749,367.756122 41.3063892,367.75192 L44.2914287,367.846804 C44.522001,367.85414 44.7154588,367.690164 44.7235288,367.480553 C44.7315989,367.270942 44.5512251,367.095071 44.3206529,367.087735 L42.6507007,367.0346 C42.4210823,367.0346 42.396033,366.935921 42.5964272,366.829651 L44.77154,365.691047 C44.8698968,365.643565 44.9433091,365.562325 44.9754534,365.465394 C45.0075978,365.368462 44.9958096,365.263872 44.94271,365.17488 C44.8280643,364.99417 44.5744769,364.931451 44.3749263,365.034453 L42.1998136,366.173056 C41.9994193,366.279326 41.9242715,366.21101 42.0328184,366.028833 L42.8051713,364.704258 C42.9129583,364.519748 42.8364527,364.29074 42.6340012,364.191886 C42.4310408,364.093898 42.1791321,364.163448 42.0703923,364.347495 L40.6676325,366.742358 C40.5325114,366.956656 40.3419128,367.137744 40.1123734,367.269911 L37.7702654,368.499603 C37.5698712,368.602078 37.4070508,368.499603 37.4070508,368.309836 L37.4070508,365.854247 C37.4194262,365.607696 37.49521,365.367216 37.6283195,365.152108 L39.2105992,362.852129 C39.2694739,362.766615 39.2884765,362.663311 39.2634092,362.565036 C39.238342,362.466761 39.1712678,362.381602 39.077003,362.328371 C38.9829378,362.274849 38.8693034,362.257574 38.7612011,362.280362 C38.6530987,362.30315 38.5594241,362.364127 38.5008695,362.449822 L37.6283195,363.721263 C37.507248,363.895849 37.4070508,363.869281 37.4070508,363.660537 L37.4070508,361.379535 C37.4070508,361.169923 37.2201351,361 36.9895628,361 C36.7589905,361 36.5720748,361.169923 36.5720748,361.379535 L36.5720748,363.656742 C36.5720748,363.865486 36.4718776,363.892054 36.3508061,363.717468 L35.4782561,362.446027 C35.4190278,362.36096 35.3250482,362.300772 35.2169981,362.278706 C35.108948,362.25664 34.9956811,362.274506 34.9021226,362.328371 C34.8078578,362.381602 34.7407836,362.466761 34.7157164,362.565036 C34.6906491,362.663311 34.7096517,362.766615 34.7685264,362.852129 L36.3508061,365.152108 C36.4839156,365.367216 36.5596994,365.607696 36.5720748,365.854247 L36.5720748,368.313631 C36.5720748,368.522375 36.4092544,368.605873 36.2088602,368.503399 L33.8667522,367.273707 C33.6372128,367.141539 33.4466142,366.960451 33.3114931,366.746154 L31.9087333,364.35129 C31.7999935,364.167244 31.5480848,364.097693 31.3451244,364.195681 C31.1426729,364.294536 31.0661673,364.523543 31.1739543,364.708053 L31.9463072,366.032629 C32.0548541,366.214805 31.9797063,366.283121 31.779312,366.176852 L29.6041993,365.038248 C29.4106226,364.946945 29.172358,365.00647 29.05729,365.17488 C29.0011904,365.261911 28.985509,365.365664 29.013709,365.463224 C29.0419089,365.560785 29.1116702,365.644126 29.2075856,365.694843 L31.3826984,366.833447 C31.5830926,366.939716 31.5580433,367.030805 31.3284249,367.038395 L29.6584727,367.09153 C29.4279005,367.098866 29.2475267,367.274737 29.2555968,367.484348 C29.2636668,367.69396 29.4571246,367.857936 29.6876969,367.850599 L32.6727364,367.755716 C32.9432507,367.759918 33.2090261,367.820971 33.4492642,367.934097 L35.7913721,369.163789 C35.8799696,369.192105 35.9392531,369.26818 35.9392531,369.353556 C35.9392531,369.438932 35.8799696,369.515007 35.7913721,369.543324 L33.4492642,370.773016 C33.2090261,370.886142 32.9432507,370.947195 32.6727364,370.951397 L29.6876969,370.867899 C29.5385428,370.863153 29.3979336,370.931107 29.3188356,371.046162 C29.2397375,371.161218 29.2341674,371.305896 29.3042235,371.425697 C29.3742796,371.545498 29.5093186,371.622223 29.6584727,371.626968 L31.3284249,371.680103 C31.5580433,371.680103 31.5830926,371.778782 31.3826984,371.885052 L29.2075856,373.023656 C29.0199955,373.128487 28.954218,373.347745 29.05729,373.524641 C29.1719357,373.705352 29.4255231,373.76807 29.6250737,373.665069 L31.8001864,372.526465 C32.0005807,372.420196 32.0757285,372.488512 31.9671816,372.670689 L31.1948287,373.995264 C31.0870417,374.179774 31.1635473,374.408782 31.3659988,374.507636 C31.5689592,374.605624 31.8208679,374.536074 31.9296077,374.352027 L33.3323675,371.957163 C33.4674886,371.742866 33.6580872,371.561778 33.8876266,371.42961 L36.2297346,370.199918 C36.4301288,370.097444 36.5929492,370.199918 36.5929492,370.389686 L36.5929492,372.84907 C36.5805738,373.095621 36.50479,373.336102 36.3716805,373.551209 L34.7894008,375.851188 C34.6656086,376.023612 34.7156233,376.25432 34.9021226,376.371151 C34.9961878,376.424673 35.1098222,376.441948 35.2179245,376.41916 C35.3260269,376.396371 35.4197015,376.335395 35.4782561,376.2497 L36.3508061,374.978259 C36.4718776,374.803673 36.5720748,374.83024 36.5720748,375.038984 L36.5720748,377.316192 C36.5720748,377.525803 36.7589905,377.695726 36.9895628,377.695726 C37.2201351,377.695726 37.4070508,377.525803 37.4070508,377.316192 L37.4070508,375.04278 C37.4070508,374.834036 37.507248,374.807468 37.6283195,374.982054 L38.5008695,376.253495 C38.5600978,376.338562 38.6540774,376.39875 38.7621275,376.420816 C38.8701776,376.442881 38.9834445,376.425016 39.077003,376.371151 C39.1712678,376.317919 39.238342,376.232761 39.2634092,376.134486 C39.2884765,376.036211 39.2694739,375.932907 39.2105992,375.847393 L37.6283195,373.547413 C37.49521,373.332306 37.4194262,373.091826 37.4070508,372.845274 L37.4070508,370.38589 C37.4070508,370.177146 37.5698712,370.093649 37.7702654,370.196123 L40.1123734,371.425815 C40.3419128,371.557983 40.5325114,371.739071 40.6676325,371.953368 L42.0703923,374.348231 C42.1791321,374.532278 42.4310408,374.601829 42.6340012,374.503841 C42.8364527,374.404986 42.9129583,374.175978 42.8051713,373.991469 L42.0328184,372.666893 C41.9242715,372.484717 41.9994193,372.4164 42.1998136,372.52267 L44.3749263,373.661274 C44.5733889,373.764918 44.8266437,373.703974 44.94271,373.524641 C44.9988096,373.437611 45.014491,373.333858 44.986291,373.236298 C44.9580911,373.138737 44.8883298,373.055395 44.7924144,373.004679 L42.6173016,371.866075 C42.4169074,371.759806 42.4419567,371.668717 42.6715751,371.661127 L44.3206529,371.626968 Z" id="Path"></path>
        </g>
    </g>
</svg>