<?xml version="1.0" encoding="UTF-8"?>
<svg width="32px" height="32px" viewBox="0 0 32 32" version="1.1" xmlns="http://www.w3.org/2000/svg" xmlns:xlink="http://www.w3.org/1999/xlink">
    <title>FB49FE20-B9BF-46F7-AD07-C491B4DA991C</title>
    <g id="BETA-Feedback-VOC-Round2" stroke="none" stroke-width="1" fill="none" fill-rule="evenodd">
        <g id="5.6-Wizard-Preview_SaveTemplate" transform="translate(-260.000000, -439.000000)">
            <g id="Group-9" transform="translate(24.000000, 395.000000)">
                <g id="noun_Ice_1412644" transform="translate(236.000000, 44.000000)">
                    <circle id="Oval-Copy-4" fill="#0164BF" cx="16" cy="16" r="16"></circle>
                    <path d="M24.0901602,18.4935065 C24.3426332,18.4854732 24.5401396,18.2928976 24.531303,18.0633766 C24.5224664,17.8338557 24.3106332,17.6543044 24.0581602,17.6623377 L20.7895887,17.7662338 C20.4933798,17.7616326 20.2023599,17.6947806 19.939303,17.5709091 L17.3747316,16.2077922 C17.2777188,16.1767862 17.2128043,16.0934851 17.2128043,16 C17.2128043,15.9065149 17.2777188,15.8232138 17.3747316,15.7922078 L19.939303,14.4457143 C20.2023599,14.3218428 20.4933798,14.2549907 20.7895887,14.2503896 L24.0581602,14.3542857 C24.3106332,14.3623189 24.5224665,14.1827677 24.531303,13.9532468 C24.5401396,13.7237258 24.3426332,13.5311501 24.0901602,13.5231169 L22.2615887,13.4649351 C22.0101602,13.4649351 21.9827316,13.3568831 22.2021602,13.2405195 L24.5838745,11.9937662 C24.6915737,11.9417733 24.771959,11.8528176 24.8071565,11.7466787 C24.842354,11.6405398 24.8294462,11.5260159 24.771303,11.4285714 L24.771303,11.4285714 C24.6457677,11.2306966 24.3680935,11.1620204 24.1495887,11.2748052 L21.7678745,12.5215584 C21.5484459,12.6379221 21.4661602,12.5631169 21.5850173,12.3636364 L22.4307316,10.9132468 C22.5487567,10.7112118 22.4649843,10.4604517 22.243303,10.3522078 L22.243303,10.3522078 C22.0210646,10.2449122 21.7452285,10.321069 21.6261602,10.5225974 L20.0901602,13.1449351 C19.9422047,13.3795873 19.7335023,13.577876 19.4821602,13.7225974 L16.9175887,15.0690909 C16.6981602,15.1812987 16.5198745,15.0690909 16.5198745,14.8612987 L16.5198745,12.1724675 C16.5334252,11.9024976 16.6164073,11.6391753 16.7621602,11.4036364 L18.4947316,8.88519481 C18.5591985,8.79155854 18.580006,8.67844227 18.5525578,8.57083281 C18.5251095,8.46322334 18.4516644,8.36997588 18.3484459,8.31168831 L18.3484459,8.31168831 C18.245446,8.25308204 18.1210181,8.23416615 18.0026477,8.25911907 C17.8842773,8.28407199 17.7817051,8.35084034 17.7175887,8.44467532 L16.7621602,9.83688312 C16.6295887,10.0280519 16.5198745,9.99896104 16.5198745,9.77038961 L16.5198745,7.27272727 C16.5198745,7.04320634 16.3152046,6.85714286 16.0627316,6.85714286 L16.0627316,6.85714286 C15.8102586,6.85714286 15.6055887,7.04320634 15.6055887,7.27272727 L15.6055887,9.76623377 C15.6055887,9.99480519 15.4958745,10.0238961 15.363303,9.83272727 L14.4078745,8.44051948 C14.3430204,8.34737278 14.2401143,8.28146727 14.1218011,8.25730581 C14.0034879,8.23314436 13.8794625,8.2527068 13.7770173,8.31168831 L13.7770173,8.31168831 C13.6737988,8.36997588 13.6003536,8.46322334 13.5729054,8.57083281 C13.5454572,8.67844227 13.5662647,8.79155854 13.6307316,8.88519481 L15.363303,11.4036364 C15.5090559,11.6391753 15.592038,11.9024976 15.6055887,12.1724675 L15.6055887,14.8654545 C15.6055887,15.094026 15.427303,15.1854545 15.2078745,15.0732468 L12.643303,13.7267532 C12.3919609,13.5820318 12.1832585,13.3837431 12.035303,13.1490909 L10.499303,10.5267532 C10.3802347,10.3252248 10.1043986,10.2490681 9.88216017,10.3563636 L9.88216017,10.3563636 C9.66047891,10.4646076 9.57670647,10.7153677 9.6947316,10.9174026 L10.5404459,12.3677922 C10.659303,12.5672727 10.5770173,12.6420779 10.3575887,12.5257143 L7.97587445,11.278961 C7.76391097,11.178986 7.50301503,11.2441647 7.37701731,11.4285714 L7.37701731,11.4285714 C7.31558922,11.5238685 7.2984183,11.6374761 7.32929682,11.7443033 C7.36017535,11.8511305 7.43656284,11.9423884 7.54158874,11.9979221 L9.92330303,13.2446753 C10.1427316,13.361039 10.115303,13.4607792 9.86387445,13.4690909 L8.03530303,13.5272727 C7.78283,13.535306 7.58532361,13.7278817 7.59416017,13.9574026 C7.60299672,14.1869235 7.81483,14.3664748 8.06730303,14.3584416 L11.3358745,14.2545455 C11.6320834,14.2591466 11.9231033,14.3259987 12.1861602,14.4498701 L14.7507316,15.7963636 C14.8477444,15.8273696 14.9126589,15.9106707 14.9126589,16.0041558 C14.9126589,16.097641 14.8477444,16.180942 14.7507316,16.2119481 L12.1861602,17.5584416 C11.9231033,17.682313 11.6320834,17.7491651 11.3358745,17.7537662 L8.06730303,17.6623377 C7.90398161,17.6571411 7.75001681,17.7315492 7.66340568,17.8575331 C7.57679455,17.9835171 7.57069538,18.141937 7.64740568,18.2731176 C7.72411597,18.4042981 7.87198161,18.4883099 8.03530303,18.4935065 L9.86387445,18.5516883 C10.115303,18.5516883 10.1427316,18.6597403 9.92330303,18.7761039 L7.54158874,20.0228571 C7.33618052,20.1376455 7.26415511,20.3777302 7.37701731,20.5714286 L7.37701731,20.5714286 C7.50255262,20.7693034 7.78022683,20.8379796 7.9987316,20.7251948 L10.3804459,19.4784416 C10.5998745,19.3620779 10.6821602,19.4368831 10.563303,19.6363636 L9.71758874,21.0867532 C9.59956361,21.2887882 9.68333605,21.5395483 9.90501731,21.6477922 L9.90501731,21.6477922 C10.1272557,21.7550878 10.4030918,21.678931 10.5221602,21.4774026 L12.0581602,18.8550649 C12.2061157,18.6204127 12.4148181,18.422124 12.6661602,18.2774026 L15.2307316,16.9309091 C15.4501602,16.8187013 15.6284459,16.9309091 15.6284459,17.1387013 L15.6284459,19.8316883 C15.6148951,20.1016583 15.531913,20.3649805 15.3861602,20.6005195 L13.6535887,23.118961 C13.5180382,23.3077624 13.5728036,23.5603838 13.7770173,23.6883117 L13.7770173,23.6883117 C13.8800172,23.746918 14.0044451,23.7658338 14.1228155,23.7408809 C14.2411859,23.715928 14.3437581,23.6491597 14.4078745,23.5553247 L15.363303,22.1631169 C15.4958745,21.9719481 15.6055887,22.001039 15.6055887,22.2296104 L15.6055887,24.7231169 C15.6055887,24.9526378 15.8102586,25.1387013 16.0627316,25.1387013 L16.0627316,25.1387013 C16.3152046,25.1387013 16.5198745,24.9526378 16.5198745,24.7231169 L16.5198745,22.2337662 C16.5198745,22.0051948 16.6295887,21.9761039 16.7621602,22.1672727 L17.7175887,23.5594805 C17.7824428,23.6526272 17.8853489,23.7185327 18.0036621,23.7426942 C18.1219753,23.7668556 18.2460007,23.7472932 18.3484459,23.6883117 L18.3484459,23.6883117 C18.4516644,23.6300241 18.5251095,23.5367767 18.5525578,23.4291672 C18.580006,23.3215577 18.5591985,23.2084415 18.4947316,23.1148052 L16.7621602,20.5963636 C16.6164073,20.3608247 16.5334252,20.0975024 16.5198745,19.8275325 L16.5198745,17.1345455 C16.5198745,16.905974 16.6981602,16.8145455 16.9175887,16.9267532 L19.4821602,18.2732468 C19.7335023,18.4179682 19.9422047,18.6162569 20.0901602,18.8509091 L21.6261602,21.4732468 C21.7452285,21.6747752 22.0210646,21.7509319 22.243303,21.6436364 L22.243303,21.6436364 C22.4649843,21.5353924 22.5487567,21.2846323 22.4307316,21.0825974 L21.5850173,19.6322078 C21.4661602,19.4327273 21.5484459,19.3579221 21.7678745,19.4742857 L24.1495887,20.721039 C24.3669022,20.8345276 24.6442122,20.7677953 24.771303,20.5714286 L24.771303,20.5714286 C24.8327311,20.4761315 24.849902,20.3625239 24.8190235,20.2556967 C24.788145,20.1488695 24.7117575,20.0576116 24.6067316,20.0020779 L22.2250173,18.7553247 C22.0055887,18.638961 22.0330173,18.5392208 22.2844459,18.5309091 L24.0901602,18.4935065 Z" id="Path" fill="#FFFFFF" fill-rule="nonzero"></path>
                </g>
            </g>
        </g>
    </g>
</svg>