<?xml version="1.0" encoding="UTF-8"?>
<svg width="42px" height="31px" viewBox="0 0 42 31" version="1.1" xmlns="http://www.w3.org/2000/svg" xmlns:xlink="http://www.w3.org/1999/xlink">
    <title>Custom</title>
    <g id="IO-configuration" stroke="none" stroke-width="1" fill="none" fill-rule="evenodd">
        <g id="4.4.-Equipment" transform="translate(-164.000000, -529.000000)">
            <g id="Group-3" transform="translate(144.000000, 493.000000)">
                <g id="Custom" transform="translate(20.000000, 36.000000)">
                    <rect id="Rectangle" fill-opacity="0.705228365" fill="#82B3E0" x="11" y="14" width="31" height="6"></rect>
                    <g id="Group" fill="#0057A7" fill-rule="nonzero">
                        <path d="M22.237375,22.4022361 C23.5912292,22.4022361 24.8882812,21.9845972 25.9875937,21.1945278 C26.3296875,20.9486806 26.4095521,20.4694722 26.1661146,20.1250278 C25.9218229,19.7801528 25.4469062,19.6992083 25.1052396,19.9450556 C24.2643125,20.5486944 23.272625,20.8677361 22.237375,20.8677361 C21.2597812,20.8677361 20.3146458,20.5814167 19.5040417,20.0389167 C19.1538333,19.805125 18.6823333,19.9011389 18.4495729,20.2541944 C18.2176667,20.6068194 18.3129062,21.0830139 18.6631146,21.3172361 C19.7235625,22.0267917 20.9595417,22.4022361 22.237375,22.4022361 Z" id="Path"></path>
                        <path d="M31.1719583,20.5495556 C30.8751354,20.2503194 30.3929583,20.2503194 30.0957083,20.5495556 C29.7984583,20.8487917 29.7988854,21.3344583 30.0957083,21.6345556 L32.6082396,24.1679444 L30.4638542,26.3301944 L27.9513229,23.7968056 C27.7019063,23.5453611 27.3132604,23.4997222 27.0130208,23.6865833 C26.1840521,24.2023889 25.2846146,24.5782639 24.3394792,24.803875 C23.9965313,24.8856806 23.7539479,25.1943889 23.7539479,25.5500278 L23.7539479,29.1318194 L20.7199479,29.1318194 L20.7199479,25.5500278 C20.7199479,25.1943889 20.4782188,24.8856806 20.1344167,24.803875 C19.1892813,24.5786944 18.2902708,24.2028194 17.460875,23.6865833 C17.1606354,23.4992917 16.7728438,23.5453611 16.5234271,23.7968056 L14.0108958,26.3301944 L11.8648021,24.1679444 L14.3781875,21.6345556 C14.6750104,21.3348889 14.6750104,20.8492222 14.3781875,20.5495556 C14.0813646,20.2498889 13.6000417,20.2503194 13.3019375,20.5495556 L10.2512812,23.6254444 C9.95445833,23.9251111 9.95445833,24.4107778 10.2512812,24.7104444 L13.4719167,27.9576944 C13.7695938,28.2569306 14.2509167,28.2569306 14.5481667,27.9576944 L17.1858333,25.2985833 C17.8273125,25.648625 18.5003958,25.9297778 19.1986771,26.1394583 L19.1986771,29.8990694 C19.1986771,30.3227361 19.5390625,30.6663194 19.9593125,30.6663194 L24.5145833,30.6663194 C24.9348333,30.6663194 25.2752188,30.3227361 25.2752188,29.8990694 L25.2752188,26.1390278 C25.9726458,25.9293472 26.6465833,25.6477639 27.2880625,25.2981528 L29.9257292,27.9572639 C30.2225521,28.2565 30.7047292,28.2565 31.0019792,27.9572639 L34.2234688,24.7100139 C34.5202917,24.4107778 34.5202917,23.9251111 34.2234688,23.6250139 L31.1719583,20.5495556 Z" id="Path"></path>
                        <path d="M22.237375,8.59776389 C20.8826667,8.59776389 19.5856146,9.01497222 18.4863021,9.80461111 C18.1442083,10.0504583 18.0643437,10.5292361 18.3077812,10.8741111 C18.4564062,11.0842222 18.6904479,11.1965972 18.9283333,11.1965972 C19.0808021,11.1965972 19.2354063,11.1505278 19.3695104,11.0540833 C20.2095833,10.450875 21.2012708,10.1314028 22.237375,10.1314028 C23.2141146,10.1314028 24.15925,10.4181528 24.9698542,10.9602222 C25.3200625,11.194875 25.7924167,11.0984306 26.0243229,10.745375 C26.2570833,10.39275 26.1609896,9.916125 25.8116354,9.68190278 C24.7507604,8.97234722 23.5147812,8.59776389 22.237375,8.59776389 Z" id="Path"></path>
                        <path d="M30.0961354,10.4500139 C30.3929583,10.74925 30.8751354,10.74925 31.1723854,10.4500139 L34.2238958,7.374125 C34.5207187,7.07445833 34.5207187,6.58879167 34.2238958,6.28869444 L31.0024062,3.04144444 C30.7055833,2.74220833 30.2234062,2.74220833 29.9261562,3.04144444 L27.2884896,5.70098611 C26.6470104,5.35094444 25.9730729,5.06936111 25.2756458,4.85968056 L25.2756458,1.1005 C25.2756458,0.676833333 24.9352604,0.333680556 24.5150104,0.333680556 L19.9593125,0.333680556 C19.5390625,0.333680556 19.1986771,0.676833333 19.1986771,1.1005 L19.1986771,4.85968056 C18.5003958,5.06936111 17.8273125,5.35094444 17.1858333,5.70098611 L14.5481667,3.04144444 C14.2513438,2.74220833 13.7700208,2.74220833 13.4719167,3.04144444 L10.2512813,6.28869444 C9.95445833,6.58836111 9.95445833,7.07402778 10.2512813,7.374125 L13.3019375,10.4500139 C13.4514167,10.5998472 13.6457396,10.6743333 13.8400625,10.6743333 C14.0352396,10.6743333 14.2295625,10.5994167 14.3781875,10.4500139 C14.6750104,10.1503472 14.6750104,9.66468056 14.3781875,9.36501389 L11.8648021,6.831625 L14.0108958,4.66894444 L16.5234271,7.20276389 C16.7728437,7.45420833 17.1606354,7.49941667 17.460875,7.31255556 C18.2898438,6.79675 19.1892812,6.420875 20.1344167,6.19569444 C20.4782187,6.11388889 20.7199479,5.80475 20.7199479,5.44911111 L20.7199479,1.86775 L23.7539479,1.86775 L23.7539479,5.44911111 C23.7539479,5.80475 23.9965312,6.11388889 24.3394792,6.19569444 C25.2846146,6.42044444 26.183625,6.79675 27.0130208,7.31255556 C27.3132604,7.49984722 27.7019062,7.45420833 27.9513229,7.20276389 L30.4638542,4.66894444 L32.6082396,6.831625 L30.0957083,9.36501389 C29.7988854,9.66468056 29.7988854,10.1503472 30.0961354,10.4500139 Z" id="Path"></path>
                        <path d="M40.1518125,11.8932361 L33.6703958,11.8932361 L9.13403125,11.8932361 C9.11822917,11.8932361 9.10328125,11.8949583 9.08747917,11.8958194 C9.0789375,11.89625 9.07082292,11.89625 9.06228125,11.8971111 C9.004625,11.9027083 8.94782292,11.9147639 8.8944375,11.9328472 C8.89272917,11.9337083 8.89016667,11.9337083 8.88845833,11.9345694 L0.6021875,14.7723611 C0.294260417,14.8782778 0.0866979167,15.170625 0.0866979167,15.4987083 C0.0866979167,15.8272222 0.294260417,16.1191389 0.6021875,16.2254861 L8.88845833,19.0628472 C8.89102083,19.0637083 8.89358333,19.0645694 8.89529167,19.065 C8.90682292,19.0693056 8.91792708,19.0723194 8.92860417,19.0749028 C8.94013542,19.0783472 8.95294792,19.0813611 8.96447917,19.0839444 C8.97430208,19.0860972 8.98455208,19.08825 8.994375,19.0908333 C9.00846875,19.0934167 9.02341667,19.0955694 9.0379375,19.0972917 C9.04647917,19.0985833 9.05459375,19.099875 9.06313542,19.1003056 C9.086625,19.1024583 9.1096875,19.1041806 9.13317708,19.1041806 L9.13317708,19.1041806 L9.13317708,19.1041806 L33.6703958,19.1041806 L40.1518125,19.1041806 C40.5729167,19.1041806 40.9133021,18.7605972 40.9133021,18.3373611 L40.9133021,12.6600556 C40.9133021,12.4568333 40.8330104,12.2617917 40.6907917,12.1175556 C40.5477187,11.9741806 40.35425,11.8932361 40.1518125,11.8932361 Z M32.9097604,17.5696806 L9.89466667,17.5696806 L9.89466667,15.4982778 L9.89466667,13.4277361 L32.9097604,13.4277361 L32.9097604,17.5696806 Z M8.37296875,13.7312778 L8.37296875,15.4982778 L8.37211458,17.2652778 L3.21294792,15.4982778 L8.37296875,13.7312778 Z M39.39075,17.5696806 L34.4310312,17.5696806 L34.4310312,13.4281667 L39.39075,13.4277361 L39.39075,17.5696806 Z" id="Shape"></path>
                    </g>
                </g>
            </g>
        </g>
    </g>
</svg>