<?xml version="1.0" encoding="UTF-8"?>
<svg width="16px" height="13px" viewBox="0 0 16 13" version="1.1" xmlns="http://www.w3.org/2000/svg" xmlns:xlink="http://www.w3.org/1999/xlink">
    <title>Equipment white</title>
    <defs>
        <path d="M13.0014,0 L13.0014,1 L10.0004,1 L10.0004,5.999 L10.0004,6.999 L10.0004,12 L13.0014,12 L13.0014,13 L16.0004,13 L16.0004,10 L13.0014,10 L13.0014,11 L11.0004,11 L11.0004,6.999 L13.0014,6.999 L13.0014,7.999 L16.0004,7.999 L16.0004,4.999 L13.0014,4.999 L13.0014,5.999 L11.0004,5.999 L11.0004,2 L13.0014,2 L13.0014,3 L16.0004,3 L16.0004,0 L13.0014,0 Z M14.0014,2 L15.0004,2 L15.0004,1 L14.0014,1 L14.0014,2 Z M14.0014,6.999 L15.0004,6.999 L15.0004,5.999 L14.0014,5.999 L14.0014,6.999 Z M14.0014,12 L15.0004,12 L15.0004,11 L14.0014,11 L14.0014,12 Z M-1.77635684e-15,0 L-1.77635684e-15,5.999 L2.001,5.999 L2.001,9 L9.001,9 L9.001,3 L7.001,3 L7.001,0 L-1.77635684e-15,0 Z M1,1 L6.001,1 L6.001,3 L2.001,3 L2.001,4.999 L1,4.999 L1,1 Z M3.001,8 L8.001,8 L8.001,4 L3.001,4 L3.001,8 Z" id="path-1"></path>
    </defs>
    <g id="Thermostat" stroke="none" stroke-width="1" fill="none" fill-rule="evenodd">
        <g id="5.4.3.-Tstat-equipment-sumamry" transform="translate(-135.000000, -166.000000)">
            <g id="Group-7" transform="translate(23.000000, 147.000000)">
                <g id="编组-10">
                    <g id="编组-2" transform="translate(87.000000, 0.000000)">
                        <g id="Group-5">
                            <g id="Content-/-Macro-/-16px" transform="translate(25.000000, 19.000000)">
                                <mask id="mask-2" fill="white">
                                    <use xlink:href="#path-1"></use>
                                </mask>
                                <use id="Equipment-white" fill="#FFFFFF" xlink:href="#path-1"></use>
                            </g>
                        </g>
                    </g>
                </g>
            </g>
        </g>
    </g>
</svg>