<?xml version="1.0" encoding="UTF-8"?>
<svg width="24px" height="24px" viewBox="0 0 24 24" version="1.1" xmlns="http://www.w3.org/2000/svg" xmlns:xlink="http://www.w3.org/1999/xlink">
    <!-- Generator: Sketch 64 (93537) - https://sketch.com -->
    <title>Actions / Error / 16px</title>
    <desc>Created with Sketch.</desc>
    <defs>
        <path d="M14.4748737,10.232233 L13.767767,9.52512627 L12,11.2928932 L10.232233,9.52512627 L9.52512627,10.232233 L11.2928932,12 L9.52512627,13.767767 L10.232233,14.4748737 L12,12.7071068 L13.767767,14.4748737 L14.4748737,13.767767 L12.7071068,12 L14.4748737,10.232233 Z M12,19 C8.141,19 5,15.86 5,12 C5,8.14 8.141,5 12,5 C15.859,5 19,8.14 19,12 C19,15.86 15.859,19 12,19 M12,4 C7.582,4 4,7.582 4,12 C4,16.418 7.582,20 12,20 C16.418,20 20,16.418 20,12 C20,7.582 16.418,4 12,4" id="path-1"></path>
    </defs>
    <g id="Actions-/-Error-/-16px" stroke="none" stroke-width="1" fill="none" fill-rule="evenodd">
        <mask id="mask-2" fill="white">
            <use xlink:href="#path-1"></use>
        </mask>
        <use id="Mask" fill="#676A6C" xlink:href="#path-1"></use>
        <g id="*Style*-/-Icon-/-Tint-/-Actionable---Light-Background-/-Interactive" mask="url(#mask-2)" fill="#303030">
            <g id="*Style*-/-Color-/-Action-/-Secondary">
                <rect id="Light-Theme" x="0" y="0" width="24" height="24"></rect>
            </g>
        </g>
    </g>
</svg>