<?xml version="1.0" encoding="UTF-8"?>
<svg width="31px" height="32px" viewBox="0 0 31 32" version="1.1" xmlns="http://www.w3.org/2000/svg" xmlns:xlink="http://www.w3.org/1999/xlink">
    <title>Exhaust fan</title>
    <g id="IO-configuration" stroke="none" stroke-width="1" fill="none" fill-rule="evenodd">
        <g id="4.4.-Equipment" transform="translate(-68.000000, -410.000000)">
            <g id="Exhaust-fan" transform="translate(68.000000, 410.000000)">
                <g id="RTU-Copy">
                    <rect id="Rectangle" fill-opacity="0.705228365" fill="#82B3E0" x="2.32727273" y="2.32727273" width="28" height="28" rx="2.4"></rect>
                    <rect id="Rectangle" stroke="#0057A7" stroke-width="1.2" x="0.6" y="0.6" width="28.28" height="28.2787879" rx="2.4"></rect>
                    <g id="Group-13" transform="translate(23.000000, 3.000000) rotate(-90.000000) translate(-23.000000, -3.000000) translate(22.000000, -1.000000)" stroke="#0057A7" stroke-linecap="round">
                        <line x1="0.571428571" y1="7.5" x2="1.42857143" y2="7.5" id="Line-16-Copy-3"></line>
                        <line x1="0.571428571" y1="5.42857143" x2="1.42857143" y2="5.42857143" id="Line-16-Copy-2"></line>
                        <line x1="0.571428571" y1="3.42857143" x2="1.42857143" y2="3.42857143" id="Line-16-Copy"></line>
                        <line x1="0.571428571" y1="1.42857143" x2="1.42857143" y2="1.42857143" id="Line-16"></line>
                    </g>
                    <rect id="Rectangle" stroke="#0057A7" stroke-width="0.8" x="5.83030303" y="29.1030303" width="2.3030303" height="2.3030303" rx="0.8"></rect>
                    <rect id="Rectangle-Copy-26" stroke="#0057A7" stroke-width="0.8" x="22.4" y="29.1030303" width="2.3030303" height="2.3030303" rx="0.8"></rect>
                </g>
                <g id="Group-12" transform="translate(4.000000, 5.000000)" stroke="#0057A7">
                    <g id="Group" transform="translate(2.000000, 1.000000)" fill="#FFFFFF" stroke-linecap="round" stroke-linejoin="round" stroke-width="0.95">
                        <path d="M0,9.5 L8.55,9.5 C7.98,12.0333333 6.555,13.3 4.275,13.3 C1.995,13.3 0.57,12.0333333 0,9.5 Z" id="Path-2"></path>
                        <path d="M7.71586716,11.1167438 L16.2901144,11.1562217 C15.7290254,13.4258541 14.3052479,14.5554065 12.018782,14.5448791 C9.73231605,14.5343516 8.29801111,13.3916399 7.71586716,11.1167438 Z" id="Path-2" transform="translate(12.002991, 12.830848) rotate(-118.000000) translate(-12.002991, -12.830848) "></path>
                        <path d="M4.95791149,3.75004574 L13.5278863,3.70800061 C12.9453426,5.98420716 11.5114075,7.12791645 9.22608086,7.13912848 C6.94075424,7.15034051 5.51803112,6.02064626 4.95791149,3.75004574 Z" id="Path-2" transform="translate(9.242899, 5.423606) rotate(-239.000000) translate(-9.242899, -5.423606) "></path>
                    </g>
                    <circle id="Oval" cx="11" cy="11" r="10.5"></circle>
                </g>
            </g>
        </g>
    </g>
</svg>