<?xml version="1.0" encoding="UTF-8"?>
<svg width="32px" height="32px" viewBox="0 0 32 32" version="1.1" xmlns="http://www.w3.org/2000/svg" xmlns:xlink="http://www.w3.org/1999/xlink">
    <!-- Generator: Sketch 64 (93537) - https://sketch.com -->
    <title>Actions / Filter / 24px</title>
    <desc>Created with Sketch.</desc>
    <defs>
        <path d="M19.9072,18.5463411 C18.4852,18.5463411 17.3282,17.3920677 17.3282,15.9721916 C17.3282,14.5523155 18.4852,13.3970436 19.9072,13.3970436 C21.3292,13.3970436 22.4862,14.5523155 22.4862,15.9721916 C22.4862,17.3920677 21.3292,18.5463411 19.9072,18.5463411 M19.9072,12.3985372 C18.1052,12.3985372 16.6252,13.7395313 16.3792,15.4729384 L4.0002,15.4729384 L4.0002,16.4714448 L16.3792,16.4714448 C16.6242,18.2028549 18.1042,19.5448475 19.9072,19.5448475 C21.7102,19.5448475 23.1902,18.2028549 23.4352,16.4714448 L28.0002,16.4714448 L28.0002,15.4729384 L23.4352,15.4729384 C23.1892,13.7395313 21.7092,12.3985372 19.9072,12.3985372 M10.002,27.0014936 C8.58,27.0014936 7.423,25.8462217 7.423,24.4263456 C7.423,23.0064695 8.58,21.8511976 10.002,21.8511976 C11.424,21.8511976 12.581,23.0064695 12.581,24.4263456 C12.581,25.8462217 11.424,27.0014936 10.002,27.0014936 M6.474,24 L4,24 L4,25 L6.474,25 C6.72,26.7324086 8.199,28 10.002,28 C11.805,28 13.284,26.7324086 13.53,25 L28,25 L28,24 L13.53,24 C13.285,22.2675914 11.805,21 10.002,21 C8.199,21 6.719,22.2675914 6.474,24 Z M7.423,7.57365441 C7.423,6.15377831 8.58,4.9985064 10.002,4.9985064 C11.424,4.9985064 12.581,6.15377831 12.581,7.57365441 C12.581,8.99353051 11.424,10.1488024 10.002,10.1488024 C8.58,10.1488024 7.423,8.99353051 7.423,7.57365441 Z M13.53,7 C13.284,5.26759139 11.805,4 10.002,4 C8.199,4 6.72,5.26759139 6.474,7 L4,7 L4,8 L6.474,8 C6.719,9.73240861 8.199,11 10.002,11 C11.805,11 13.285,9.73240861 13.53,8 L28,8 L28,7 L13.53,7 Z" id="path-1"></path>
    </defs>
    <g id="Actions-/-Filter-/-24px" stroke="none" stroke-width="1" fill="none" fill-rule="evenodd">
        <mask id="mask-2" fill="white">
            <use xlink:href="#path-1"></use>
        </mask>
        <use id="Mask" fill="#303030" xlink:href="#path-1"></use>
        <g id="*Style*-/-Icon-/-Tint-/-Actionable---Light-Background-/-Interactive" mask="url(#mask-2)" fill="#303030">
            <g id="*Style*-/-Color-/-Action-/-Secondary">
                <rect id="Light-Theme" x="0" y="0" width="32" height="32"></rect>
            </g>
        </g>
    </g>
</svg>