<?xml version="1.0" encoding="UTF-8"?>
<svg width="13px" height="16px" viewBox="0 0 13 16" version="1.1" xmlns="http://www.w3.org/2000/svg" xmlns:xlink="http://www.w3.org/1999/xlink">
    <title>Mask</title>
    <defs>
        <path d="M3.499,8.916 C3.82,8.916 4.083,9.178 4.083,9.5 C4.083,9.822 3.82,10.084 3.499,10.084 C3.177,10.084 2.914,9.822 2.914,9.5 C2.914,9.178 3.177,8.916 3.499,8.916 L3.499,8.916 Z M3.49,11.834 L3,12.154 L3,10.996 C3.157,11.049 3.323,11.084 3.499,11.084 C3.675,11.084 3.842,11.049 4,10.995 L4,12.162 L3.49,11.834 Z M2,10 L2,14.004 L3.494,13.025 L5,13.996 L5,10 L4.994,10 C5.047,9.842 5.083,9.676 5.083,9.5 C5.083,8.625 4.373,7.916 3.499,7.916 C2.624,7.916 1.914,8.625 1.914,9.5 C1.914,9.676 1.95,9.842 2.003,10 L2,10 Z M5.999,11 L9,11 L9,10 L5.999,10 L5.999,11 Z M5.999,9 L9,9 L9,8 L5.999,8 L5.999,9 Z M3,7 L9,7 L9,6 L3,6 L3,7 Z M3,5 L9,5 L9,4 L3,4 L3,5 Z M3,3 L9,3 L9,1.999 L3,1.999 L3,3 Z M0,16 L12,16 L12,0 L0,0 L0,16 Z M1,15 L11,15 L11,1 L1,1 L1,15 Z" id="path-1"></path>
    </defs>
    <g id="Thermostat" stroke="none" stroke-width="1" fill="none" fill-rule="evenodd">
        <g id="5.6.2.-Thermosat-comfort-edit-Copy" transform="translate(-41.000000, -163.000000)">
            <g id="Group-2" transform="translate(23.000000, 147.000000)">
                <g id="Group-7">
                    <g id="编组-10">
                        <g id="General-equipment" transform="translate(18.500000, 16.000000)">
                            <mask id="mask-2" fill="white">
                                <use xlink:href="#path-1"></use>
                            </mask>
                            <use id="Mask" fill="#0057A7" xlink:href="#path-1"></use>
                        </g>
                    </g>
                </g>
            </g>
        </g>
    </g>
</svg>