<?xml version="1.0" encoding="UTF-8"?>
<svg width="44px" height="44px" viewBox="0 0 44 44" version="1.1" xmlns="http://www.w3.org/2000/svg" xmlns:xlink="http://www.w3.org/1999/xlink">
    <title>Handover Copy</title>
    <g id="Handover-Copy" stroke="none" stroke-width="1" fill="none" fill-rule="evenodd">
        <g id="Group" transform="translate(10.000000, 10.000000)" fill="#FFFFFF" fill-rule="nonzero">
            <path d="M19.9054153,5.35950654 L22.9652454,5.89903717 C23.4416151,5.98303399 23.7416715,6.53952332 23.6354403,7.14199086 L21.9684178,16.5961453 C21.8621865,17.1986128 21.3898951,17.6189164 20.9135254,17.5349195 L10.2754876,15.6591464 C9.79911792,15.5751496 9.49906146,15.0186603 9.60529274,14.4161928 L9.78518463,13.3959751 L5.03409253,12.5582293 C4.48766847,12.46188 4.13082174,11.8953771 4.23705301,11.2929095 L5.90407554,1.83875509 C6.01030682,1.23628756 6.53938848,0.825997662 7.08581254,0.922346954 L19.2882677,3.07396903 C19.8346917,3.17031833 20.1915384,3.7368213 20.0853072,4.33928887 L19.9054153,5.35950654 Z M19.7130665,6.45037052 L18.4182847,13.7934433 C18.3120534,14.3959108 17.7829717,14.8062007 17.2365477,14.7098514 L10.8760486,13.5883238 L10.6961567,14.6085415 L20.8775538,16.4037965 L22.5445763,6.94964208 L19.7130665,6.45037052 Z M4.63691298,0.328033403 C4.93814673,0.381149058 5.13928623,0.668406018 5.08617057,0.969639766 L1.17507932,23.1505406 C1.12196367,23.4517743 0.834706745,23.6529138 0.53347296,23.5997982 C0.232239212,23.5466825 0.0310997169,23.2594256 0.0842153354,22.9581918 L3.99530662,0.777291028 C4.04842224,0.47605728 4.3356792,0.274917785 4.63691298,0.328033403 Z M6.9949395,2.03110386 L5.327917,11.4852583 L17.3274207,13.6010945 L18.9944432,4.1469401 L6.9949395,2.03110386 Z" id="Shape"></path>
        </g>
    </g>
</svg>