<?xml version="1.0" encoding="UTF-8"?>
<svg width="44px" height="44px" viewBox="0 0 44 44" version="1.1" xmlns="http://www.w3.org/2000/svg" xmlns:xlink="http://www.w3.org/1999/xlink">
    <title>icons/nav bar/handover</title>
    <g id="icons/nav-bar/handover" stroke="none" stroke-width="1" fill="none" fill-rule="evenodd">
        <path d="M29.9054153,16.3595065 L32.9652454,16.8990372 C33.4416151,16.983034 33.7416715,17.5395233 33.6354403,18.1419909 L31.9684178,27.5961453 C31.8621865,28.1986128 31.3898951,28.6189164 30.9135254,28.5349195 L20.2754876,26.6591464 C19.7991179,26.5751496 19.4990615,26.0186603 19.6052927,25.4161928 L19.7851846,24.3959751 L15.0340925,23.5582293 C14.4876685,23.46188 14.1308217,22.8953771 14.237053,22.2929095 L15.9040755,12.8387551 C16.0103068,12.2362876 16.5393885,11.8259977 17.0858125,11.922347 L29.2882677,14.073969 C29.8346917,14.1703183 30.1915384,14.7368213 30.0853072,15.3392889 L29.9054153,16.3595065 Z M29.7130665,17.4503705 L28.4182847,24.7934433 C28.3120534,25.3959108 27.7829717,25.8062007 27.2365477,25.7098514 L20.8760486,24.5883238 L20.6961567,25.6085415 L30.8775538,27.4037965 L32.5445763,17.9496421 L29.7130665,17.4503705 Z M14.636913,11.3280334 C14.9381467,11.3811491 15.1392862,11.668406 15.0861706,11.9696398 L11.1750793,34.1505406 C11.1219637,34.4517743 10.8347067,34.6529138 10.533473,34.5997982 C10.2322392,34.5466825 10.0310997,34.2594256 10.0842153,33.9581918 L13.9953066,11.777291 C14.0484222,11.4760573 14.3356792,11.2749178 14.636913,11.3280334 Z M16.9949395,13.0311039 L15.327917,22.4852583 L27.3274207,24.6010945 L28.9944432,15.1469401 L16.9949395,13.0311039 Z" id="Shape" fill="#FFFFFF" fill-rule="nonzero"></path>
        <circle id="Oval" fill="#F15A4F" cx="14" cy="13" r="4"></circle>
    </g>
</svg>