<?xml version="1.0" encoding="UTF-8"?>
<svg width="66px" height="52px" viewBox="0 0 66 52" version="1.1" xmlns="http://www.w3.org/2000/svg" xmlns:xlink="http://www.w3.org/1999/xlink">
    <!-- Generator: Sketch 64 (93537) - https://sketch.com -->
    <title>Heat pump</title>
    <desc>Created with Sketch.</desc>
    <g id="Thermostat-Copy" stroke="none" stroke-width="1" fill="none" fill-rule="evenodd">
        <g id="5.4.-Thermosat-equipment" transform="translate(-237.000000, -446.000000)">
            <g id="Heat-pump" transform="translate(237.000000, 446.000000)">
                <rect id="Rectangle" fill-opacity="0.705228365" fill="#82B3E0" x="5" y="4" width="61" height="48" rx="3.6"></rect>
                <rect id="Rectangle" stroke="#0057A7" stroke-width="1.98000004" fill="#FFFFFF" x="0.990000021" y="0.990000021" width="59.02" height="47.02" rx="3.96000009"></rect>
                <g id="编组-2" transform="translate(11.000000, 19.000000)">
                    <path d="M5.985477,16.5531949 C7.11179824,16.6805373 8.37468285,15.9948435 8.86661204,14.2260416 C9.35854123,12.4572396 7.78487167,11.3826376 7.19497518,10.4457525 C6.80171085,9.82116251 6.64001549,9.10451784 6.70988909,8.29581852 C6.22692946,8.65659255 5.79529637,9.16403839 5.4149898,9.81815606 C4.84452994,10.7993326 5.10515962,11.8666116 4.98217732,11.9822097 C4.61593159,12.3264649 4.28119158,11.7873976 3.97795729,10.3650079 C3.85186335,11.1463838 3.75888545,11.685451 3.69902358,11.9822097 C3.45377312,13.1980117 3.35137768,13.9297904 3.55205522,14.4690539 C3.96328173,15.5741075 4.85915577,16.4258525 5.985477,16.5531949 Z" id="路径-3" fill="#A7C9E9"></path>
                    <path d="M4.74548135,15.8871468 C6.84993136,16.1321529 9.20954019,14.8128819 10.1286744,11.4097166 C11.0478086,8.0065513 8.10752053,5.93902295 7.00534147,4.13646126 C6.27055543,2.93475346 5.96843931,1.55593305 6.09899311,-1.17555145e-13 C5.19661787,0.694127245 4.39014255,1.67045027 3.67956715,2.92896907 C2.61370405,4.81674727 3.1006718,6.87018626 2.87088825,7.09259632 C2.1865845,7.75494152 1.56114693,6.71777907 0.994575539,3.98110897 C0.758978106,5.48447193 0.585255594,6.52163438 0.473408004,7.09259632 C0.0151752096,9.43179277 -0.176143285,10.8397309 0.198808233,11.877271 C0.967155307,14.0033881 2.64103134,15.6421408 4.74548135,15.8871468 Z" id="路径-3" stroke="#0057A7" stroke-width="0.919134217"></path>
                    <path d="M4.985477,15.5531949 C6.11179824,15.6805373 7.37468285,14.9948435 7.86661204,13.2260416 C8.35854123,11.4572396 6.78487167,10.3826376 6.19497518,9.44575254 C5.80171085,8.82116251 5.64001549,8.10451784 5.70988909,7.29581852 C5.22692946,7.65659255 4.79529637,8.16403839 4.4149898,8.81815606 C3.84452994,9.79933256 4.10515962,10.8666116 3.98217732,10.9822097 C3.61593159,11.3264649 3.28119158,10.7873976 2.97795729,9.36500788 C2.85186335,10.1463838 2.75888545,10.685451 2.69902358,10.9822097 C2.45377312,12.1980117 2.35137768,12.9297904 2.55205522,13.4690539 C2.96328173,14.5741075 3.85915577,15.4258525 4.985477,15.5531949 Z" id="路径-3" stroke="#0057A7" stroke-width="0.919134217"></path>
                </g>
                <path d="M54.3206529,30.8206411 C54.5512251,30.8131709 54.7315988,30.634095 54.7235288,30.4206638 C54.7154588,30.2072325 54.522001,30.040268 54.2914287,30.0477381 L51.3063892,30.144351 C51.0358749,30.1400724 50.7700995,30.0779067 50.5298614,29.9627188 L48.1877535,28.695158 C48.099156,28.6663255 48.0398725,28.588864 48.0398725,28.5019323 C48.0398725,28.4150006 48.099156,28.337539 48.1877535,28.3087065 L50.5298614,27.0566038 C50.7700995,26.9414158 51.0358749,26.8792502 51.3063892,26.8749716 L54.2914287,26.9715845 C54.522001,26.9790545 54.7154588,26.81209 54.7235288,26.5986588 C54.7315989,26.3852275 54.5512251,26.2061516 54.3206529,26.1986815 L52.6507007,26.1445783 C52.4210823,26.1445783 52.396033,26.0441009 52.5964272,25.9358945 L54.77154,24.7765401 C54.8698968,24.7281919 54.9433091,24.6454722 54.9754534,24.5467737 C55.0075978,24.4480753 54.9958096,24.3415796 54.94271,24.2509661 L54.94271,24.2509661 C54.8280643,24.0669625 54.5744769,24.0031007 54.3749263,24.1079791 L52.1998136,25.2673335 C51.9994193,25.3755399 51.9242715,25.3059786 52.0328184,25.1204819 L52.8051713,23.7717663 C52.9129583,23.5838943 52.8364527,23.3507128 52.6340012,23.2500568 L52.6340012,23.2500568 C52.4310408,23.1502828 52.1791321,23.2211009 52.0703923,23.4085019 L50.6676325,25.8470107 C50.5325114,26.0652135 50.3419128,26.2496019 50.1123734,26.3841782 L47.7702654,27.636281 C47.5698712,27.7406229 47.4070508,27.636281 47.4070508,27.4430552 L47.4070508,24.9427143 C47.4194262,24.6916695 47.49521,24.4468065 47.6283195,24.227779 L49.2105992,21.8858832 C49.2694739,21.7988109 49.2884765,21.6936242 49.2634092,21.5935583 C49.238342,21.4934924 49.1712678,21.4067817 49.077003,21.3525801 L49.077003,21.3525801 C48.9829378,21.2980822 48.8693034,21.2804924 48.7612011,21.3036961 C48.6530987,21.3268997 48.5594241,21.3889876 48.5008695,21.4762446 L47.6283195,22.770857 C47.507248,22.9486247 47.4070508,22.9215731 47.4070508,22.7090248 L47.4070508,20.3864515 C47.4070508,20.1730202 47.2201351,20 46.9895628,20 L46.9895628,20 C46.7589905,20 46.5720748,20.1730202 46.5720748,20.3864515 L46.5720748,22.7051603 C46.5720748,22.9177086 46.4718776,22.9447602 46.3508061,22.7669925 L45.4782561,21.4723801 C45.4190278,21.3857631 45.3250482,21.3244776 45.2169981,21.3020099 C45.108948,21.2795422 44.9956811,21.2977333 44.9021226,21.3525801 L44.9021226,21.3525801 C44.8078578,21.4067817 44.7407836,21.4934924 44.7157164,21.5935583 C44.6906491,21.6936242 44.7096517,21.7988109 44.7685264,21.8858832 L46.3508061,24.227779 C46.4839156,24.4468065 46.5596994,24.6916695 46.5720748,24.9427143 L46.5720748,27.4469198 C46.5720748,27.6594681 46.4092544,27.7444874 46.2088602,27.6401455 L43.8667522,26.3880427 C43.6372128,26.2534665 43.4466142,26.069078 43.3114931,25.8508752 L41.9087333,23.4123664 C41.7999935,23.2249654 41.5480848,23.1541473 41.3451244,23.2539213 L41.3451244,23.2539213 C41.1426729,23.3545773 41.0661673,23.5877588 41.1739543,23.7756308 L41.9463072,25.1243464 C42.0548541,25.3098431 41.9797063,25.3794044 41.779312,25.271198 L39.6041993,24.1118436 C39.4106226,24.018877 39.172358,24.0794866 39.05729,24.2509661 L39.05729,24.2509661 C39.0011904,24.3395828 38.985509,24.4452263 39.013709,24.5445648 C39.0419089,24.6439034 39.1116702,24.7287639 39.2075856,24.7804046 L41.3826984,25.939759 C41.5830926,26.0479654 41.5580433,26.1407138 41.3284249,26.1484428 L39.6584727,26.202546 C39.4279005,26.2100161 39.2475267,26.389092 39.2555968,26.6025233 C39.2636668,26.8159546 39.4571246,26.9829191 39.6876969,26.975449 L42.6727364,26.8788361 C42.9432507,26.8831147 43.2090261,26.9452803 43.4492642,27.0604683 L45.7913721,28.312571 C45.8799696,28.3414035 45.9392531,28.4188651 45.9392531,28.5057968 C45.9392531,28.5927285 45.8799696,28.6701901 45.7913721,28.6990225 L43.4492642,29.9511253 C43.2090261,30.0663132 42.9432507,30.1284789 42.6727364,30.1327574 L39.6876969,30.0477381 C39.5385428,30.0429058 39.3979336,30.1120978 39.3188356,30.2292502 C39.2397375,30.3464025 39.2341674,30.493717 39.3042235,30.6157016 C39.3742796,30.7376863 39.5093186,30.8158088 39.6584727,30.8206411 L41.3284249,30.8747443 C41.5580433,30.8747443 41.5830926,30.9752216 41.3826984,31.0834281 L39.2075856,32.2427825 C39.0199955,32.349524 38.954218,32.5727785 39.05729,32.7528984 L39.05729,32.7528984 C39.1719357,32.936902 39.4255231,33.0007638 39.6250737,32.8958854 L41.8001864,31.736531 C42.0005807,31.6283246 42.0757285,31.6978859 41.9671816,31.8833826 L41.1948287,33.2320982 C41.0870417,33.4199703 41.1635473,33.6531518 41.3659988,33.7538077 L41.3659988,33.7538077 C41.5689592,33.8535817 41.8208679,33.7827636 41.9296077,33.5953626 L43.3323675,31.1568538 C43.4674886,30.938651 43.6580872,30.7542626 43.8876266,30.6196863 L46.2297346,29.3675835 C46.4301288,29.2632416 46.5929492,29.3675835 46.5929492,29.5608093 L46.5929492,32.0650148 C46.5805738,32.3160595 46.50479,32.5609226 46.3716805,32.77995 L44.7894008,35.1218459 C44.6656086,35.297412 44.7156233,35.5323244 44.9021226,35.6512844 L44.9021226,35.6512844 C44.9961878,35.7057823 45.1098222,35.7233721 45.2179245,35.7001685 C45.3260269,35.6769648 45.4197015,35.614877 45.4782561,35.5276199 L46.3508061,34.2330075 C46.4718776,34.0552398 46.5720748,34.0822914 46.5720748,34.2948397 L46.5720748,36.6135485 C46.5720748,36.8269798 46.7589905,37 46.9895628,37 L46.9895628,37 C47.2201351,37 47.4070508,36.8269798 47.4070508,36.6135485 L47.4070508,34.2987043 C47.4070508,34.0861559 47.507248,34.0591043 47.6283195,34.236872 L48.5008695,35.5314844 C48.5600978,35.6181014 48.6540774,35.6793869 48.7621275,35.7018546 C48.8701776,35.7243223 48.9834445,35.7061312 49.077003,35.6512844 L49.077003,35.6512844 C49.1712678,35.5970828 49.238342,35.5103721 49.2634092,35.4103062 C49.2884765,35.3102403 49.2694739,35.2050536 49.2105992,35.1179814 L47.6283195,32.7760855 C47.49521,32.5570581 47.4194262,32.312195 47.4070508,32.0611503 L47.4070508,29.5569448 C47.4070508,29.3443965 47.5698712,29.2593771 47.7702654,29.363719 L50.1123734,30.6158218 C50.3419128,30.7503981 50.5325114,30.9347865 50.6676325,31.1529893 L52.0703923,33.5914981 C52.1791321,33.7788991 52.4310408,33.8497172 52.6340012,33.7499432 L52.6340012,33.7499432 C52.8364527,33.6492872 52.9129583,33.4161057 52.8051713,33.2282337 L52.0328184,31.8795181 C51.9242715,31.6940214 51.9994193,31.6244601 52.1998136,31.7326665 L54.3749263,32.8920209 C54.5733889,32.9975539 54.8266437,32.9354996 54.94271,32.7528984 L54.94271,32.7528984 C54.9988096,32.6642817 55.014491,32.5586382 54.986291,32.4592997 C54.9580911,32.3599612 54.8883298,32.2751006 54.7924144,32.2234599 L52.6173016,31.0641055 C52.4169074,30.9558991 52.4419567,30.8631507 52.6715751,30.8554217 L54.3206529,30.8206411 Z" id="Path-Copy" fill="#A7C9E9" fill-rule="nonzero"></path>
                <path d="M53.3206529,29.8206411 C53.5512251,29.8131709 53.7315988,29.634095 53.7235288,29.4206638 C53.7154588,29.2072325 53.522001,29.040268 53.2914287,29.0477381 L50.3063892,29.144351 C50.0358749,29.1400724 49.7700995,29.0779067 49.5298614,28.9627188 L47.1877535,27.695158 C47.099156,27.6663255 47.0398725,27.588864 47.0398725,27.5019323 C47.0398725,27.4150006 47.099156,27.337539 47.1877535,27.3087065 L49.5298614,26.0566038 C49.7700995,25.9414158 50.0358749,25.8792502 50.3063892,25.8749716 L53.2914287,25.9715845 C53.522001,25.9790545 53.7154588,25.81209 53.7235288,25.5986588 C53.7315989,25.3852275 53.5512251,25.2061516 53.3206529,25.1986815 L51.6507007,25.1445783 C51.4210823,25.1445783 51.396033,25.0441009 51.5964272,24.9358945 L53.77154,23.7765401 C53.8698968,23.7281919 53.9433091,23.6454722 53.9754534,23.5467737 C54.0075978,23.4480753 53.9958096,23.3415796 53.94271,23.2509661 L53.94271,23.2509661 C53.8280643,23.0669625 53.5744769,23.0031007 53.3749263,23.1079791 L51.1998136,24.2673335 C50.9994193,24.3755399 50.9242715,24.3059786 51.0328184,24.1204819 L51.8051713,22.7717663 C51.9129583,22.5838943 51.8364527,22.3507128 51.6340012,22.2500568 L51.6340012,22.2500568 C51.4310408,22.1502828 51.1791321,22.2211009 51.0703923,22.4085019 L49.6676325,24.8470107 C49.5325114,25.0652135 49.3419128,25.2496019 49.1123734,25.3841782 L46.7702654,26.636281 C46.5698712,26.7406229 46.4070508,26.636281 46.4070508,26.4430552 L46.4070508,23.9427143 C46.4194262,23.6916695 46.49521,23.4468065 46.6283195,23.227779 L48.2105992,20.8858832 C48.2694739,20.7988109 48.2884765,20.6936242 48.2634092,20.5935583 C48.238342,20.4934924 48.1712678,20.4067817 48.077003,20.3525801 L48.077003,20.3525801 C47.9829378,20.2980822 47.8693034,20.2804924 47.7612011,20.3036961 C47.6530987,20.3268997 47.5594241,20.3889876 47.5008695,20.4762446 L46.6283195,21.770857 C46.507248,21.9486247 46.4070508,21.9215731 46.4070508,21.7090248 L46.4070508,19.3864515 C46.4070508,19.1730202 46.2201351,19 45.9895628,19 L45.9895628,19 C45.7589905,19 45.5720748,19.1730202 45.5720748,19.3864515 L45.5720748,21.7051603 C45.5720748,21.9177086 45.4718776,21.9447602 45.3508061,21.7669925 L44.4782561,20.4723801 C44.4190278,20.3857631 44.3250482,20.3244776 44.2169981,20.3020099 C44.108948,20.2795422 43.9956811,20.2977333 43.9021226,20.3525801 L43.9021226,20.3525801 C43.8078578,20.4067817 43.7407836,20.4934924 43.7157164,20.5935583 C43.6906491,20.6936242 43.7096517,20.7988109 43.7685264,20.8858832 L45.3508061,23.227779 C45.4839156,23.4468065 45.5596994,23.6916695 45.5720748,23.9427143 L45.5720748,26.4469198 C45.5720748,26.6594681 45.4092544,26.7444874 45.2088602,26.6401455 L42.8667522,25.3880427 C42.6372128,25.2534665 42.4466142,25.069078 42.3114931,24.8508752 L40.9087333,22.4123664 C40.7999935,22.2249654 40.5480848,22.1541473 40.3451244,22.2539213 L40.3451244,22.2539213 C40.1426729,22.3545773 40.0661673,22.5877588 40.1739543,22.7756308 L40.9463072,24.1243464 C41.0548541,24.3098431 40.9797063,24.3794044 40.779312,24.271198 L38.6041993,23.1118436 C38.4106226,23.018877 38.172358,23.0794866 38.05729,23.2509661 L38.05729,23.2509661 C38.0011904,23.3395828 37.985509,23.4452263 38.013709,23.5445648 C38.0419089,23.6439034 38.1116702,23.7287639 38.2075856,23.7804046 L40.3826984,24.939759 C40.5830926,25.0479654 40.5580433,25.1407138 40.3284249,25.1484428 L38.6584727,25.202546 C38.4279005,25.2100161 38.2475267,25.389092 38.2555968,25.6025233 C38.2636668,25.8159546 38.4571246,25.9829191 38.6876969,25.975449 L41.6727364,25.8788361 C41.9432507,25.8831147 42.2090261,25.9452803 42.4492642,26.0604683 L44.7913721,27.312571 C44.8799696,27.3414035 44.9392531,27.4188651 44.9392531,27.5057968 C44.9392531,27.5927285 44.8799696,27.6701901 44.7913721,27.6990225 L42.4492642,28.9511253 C42.2090261,29.0663132 41.9432507,29.1284789 41.6727364,29.1327574 L38.6876969,29.0477381 C38.5385428,29.0429058 38.3979336,29.1120978 38.3188356,29.2292502 C38.2397375,29.3464025 38.2341674,29.493717 38.3042235,29.6157016 C38.3742796,29.7376863 38.5093186,29.8158088 38.6584727,29.8206411 L40.3284249,29.8747443 C40.5580433,29.8747443 40.5830926,29.9752216 40.3826984,30.0834281 L38.2075856,31.2427825 C38.0199955,31.349524 37.954218,31.5727785 38.05729,31.7528984 L38.05729,31.7528984 C38.1719357,31.936902 38.4255231,32.0007638 38.6250737,31.8958854 L40.8001864,30.736531 C41.0005807,30.6283246 41.0757285,30.6978859 40.9671816,30.8833826 L40.1948287,32.2320982 C40.0870417,32.4199703 40.1635473,32.6531518 40.3659988,32.7538077 L40.3659988,32.7538077 C40.5689592,32.8535817 40.8208679,32.7827636 40.9296077,32.5953626 L42.3323675,30.1568538 C42.4674886,29.938651 42.6580872,29.7542626 42.8876266,29.6196863 L45.2297346,28.3675835 C45.4301288,28.2632416 45.5929492,28.3675835 45.5929492,28.5608093 L45.5929492,31.0650148 C45.5805738,31.3160595 45.50479,31.5609226 45.3716805,31.77995 L43.7894008,34.1218459 C43.6656086,34.297412 43.7156233,34.5323244 43.9021226,34.6512844 L43.9021226,34.6512844 C43.9961878,34.7057823 44.1098222,34.7233721 44.2179245,34.7001685 C44.3260269,34.6769648 44.4197015,34.614877 44.4782561,34.5276199 L45.3508061,33.2330075 C45.4718776,33.0552398 45.5720748,33.0822914 45.5720748,33.2948397 L45.5720748,35.6135485 C45.5720748,35.8269798 45.7589905,36 45.9895628,36 L45.9895628,36 C46.2201351,36 46.4070508,35.8269798 46.4070508,35.6135485 L46.4070508,33.2987043 C46.4070508,33.0861559 46.507248,33.0591043 46.6283195,33.236872 L47.5008695,34.5314844 C47.5600978,34.6181014 47.6540774,34.6793869 47.7621275,34.7018546 C47.8701776,34.7243223 47.9834445,34.7061312 48.077003,34.6512844 L48.077003,34.6512844 C48.1712678,34.5970828 48.238342,34.5103721 48.2634092,34.4103062 C48.2884765,34.3102403 48.2694739,34.2050536 48.2105992,34.1179814 L46.6283195,31.7760855 C46.49521,31.5570581 46.4194262,31.312195 46.4070508,31.0611503 L46.4070508,28.5569448 C46.4070508,28.3443965 46.5698712,28.2593771 46.7702654,28.363719 L49.1123734,29.6158218 C49.3419128,29.7503981 49.5325114,29.9347865 49.6676325,30.1529893 L51.0703923,32.5914981 C51.1791321,32.7788991 51.4310408,32.8497172 51.6340012,32.7499432 L51.6340012,32.7499432 C51.8364527,32.6492872 51.9129583,32.4161057 51.8051713,32.2282337 L51.0328184,30.8795181 C50.9242715,30.6940214 50.9994193,30.6244601 51.1998136,30.7326665 L53.3749263,31.8920209 C53.5733889,31.9975539 53.8266437,31.9354996 53.94271,31.7528984 L53.94271,31.7528984 C53.9988096,31.6642817 54.014491,31.5586382 53.986291,31.4592997 C53.9580911,31.3599612 53.8883298,31.2751006 53.7924144,31.2234599 L51.6173016,30.0641055 C51.4169074,29.9558991 51.4419567,29.8631507 51.6715751,29.8554217 L53.3206529,29.8206411 Z" id="Path-Copy" fill="#0057A7" fill-rule="nonzero"></path>
                <line x1="25.5818182" y1="6.58181818" x2="33.5818182" y2="6.58181818" id="Line-16-Copy" stroke="#A7C9E9" stroke-width="2.4" stroke-linecap="round"></line>
                <line x1="37.5818182" y1="6.58181818" x2="38.0818182" y2="6.58181818" id="Line-16-Copy备份" stroke="#A7C9E9" stroke-width="2.4" stroke-linecap="round"></line>
                <line x1="24.5818182" y1="5.58181818" x2="32.5818182" y2="5.58181818" id="Line-16-Copy" stroke="#0057A7" stroke-width="2.4" stroke-linecap="round"></line>
                <line x1="36.5818182" y1="5.58181818" x2="37.0818182" y2="5.58181818" id="Line-16-Copy备份" stroke="#0057A7" stroke-width="2.4" stroke-linecap="round"></line>
                <line x1="31.5" y1="24" x2="31.5" y2="32" id="路径-2" stroke="#A7C9E9" stroke-width="2" stroke-linecap="round"></line>
                <line x1="30.5" y1="23" x2="30.5" y2="31" id="路径-2" stroke="#0057A7" stroke-width="2" stroke-linecap="round"></line>
            </g>
        </g>
    </g>
</svg>