<?xml version="1.0" encoding="UTF-8"?>
<svg width="14px" height="22px" viewBox="0 0 14 22" version="1.1" xmlns="http://www.w3.org/2000/svg" xmlns:xlink="http://www.w3.org/1999/xlink">
    <title>编组</title>
    <g id="Thermostat" stroke="none" stroke-width="1" fill="none" fill-rule="evenodd">
        <g id="5.6.2.-Thermosat-comfort-edit-Copy" transform="translate(-28.000000, -356.000000)" fill="#EC5B20" stroke="#EC5B20">
            <g id="编组" transform="translate(29.000000, 358.000000)">
                <path d="M6.87508224,-3.37507799e-14 L6.26628327,0.503261867 C6.15745917,0.594427124 3.56689807,2.7705344 3.20825764,5.68967558 C3.07445191,6.76809387 3.11654425,7.62564023 3.14494802,8.25082636 C3.15521445,8.47540419 3.15213452,8.91010682 3.14837017,8.91010682 C2.2760663,8.6851584 1.48315612,7.1246019 1.30657362,6.21369051 C1.30554698,6.2296259 0,10.0189135 0,12.1509205 L0.000342214148,12.1490676 C0.000342214148,15.6730124 2.63812887,18.5295238 5.89190099,18.5295238 C9.14567312,18.5295238 11.7834598,15.6730124 11.7834598,12.1490676 L11.7824331,12.1490676 C11.8248677,10.1219377 10.8659836,8.41833326 9.10631849,6.12030171 L8.59949934,5.45731535 C7.81138015,4.42077379 7.45239751,3.63956907 7.24467352,2.98770042 C6.92436108,2.04640061 6.73101009,1.08249478 6.87508224,-3.37507799e-14 L6.87508224,-3.37507799e-14 Z M6.3275396,1.17032472 C6.37236966,1.79958735 6.51438853,2.44886187 6.75941386,3.16928975 C7.03729175,4.04165973 7.49620092,4.88104716 8.20389978,5.81159985 L8.71140336,6.47532739 C10.3612178,8.63031101 11.3088087,10.2475678 11.2694541,12.1368381 C11.2691119,12.1520323 11.2694541,12.1672265 11.2701385,12.1824207 C11.2537123,15.3787636 8.84726238,17.9736381 5.89190099,17.9736381 C2.92627318,17.9736381 0.513663437,15.3609752 0.513663437,12.1490676 C0.513663437,12.1431381 0.513663437,12.1368381 0.513321223,12.1305381 C0.518454435,10.9231543 0.97667918,9.1017021 1.35619467,7.79833539 C1.75521637,8.54952229 2.33629599,9.27217371 3.02962186,9.45079832 C3.06897648,9.46117486 3.10901554,9.46599253 3.14837017,9.46599253 C3.28730911,9.46599253 3.4224837,9.4048451 3.52069916,9.29292678 C3.6425274,9.15395535 3.6983083,9.09058438 3.65758482,8.22377326 L3.65587375,8.18745539 C3.62883883,7.58969295 3.59222192,6.77105859 3.71713008,5.76342309 C3.98679483,3.57026865 5.67835936,1.78365196 6.3275396,1.17032472 L6.3275396,1.17032472 Z" id="Fill-1"></path>
                <path d="M5.84575824,8.68571429 L5.52668478,8.95307215 C5.46968176,9.0015037 4.11308179,10.1575607 3.9248643,11.7081576 C3.85495495,12.2810673 3.87718254,12.7370325 3.89188143,13.0689658 C3.89690056,13.1882728 3.89510801,13.4190117 3.89331546,13.4190117 C3.43657435,13.2997047 3.02142034,12.4704622 2.92856638,11.9865405 C2.92784936,11.9963843 2.24453024,14.008459 2.24453024,15.1408908 L2.24453024,15.1401033 C2.24453024,17.0120021 3.62586737,18.5295238 5.33058008,18.5295238 C7.03493427,18.5295238 8.41698842,17.0120021 8.41698842,15.1401033 L8.4162714,15.1401033 C8.43814048,14.0627968 7.93586866,13.1579538 7.01414072,11.9369277 L6.74884368,11.5849131 C6.33584073,11.0340535 6.14762324,10.6190385 6.03935337,10.2729301 C5.87157092,9.77286461 5.77011273,9.26059276 5.84575824,8.68571429 L5.84575824,8.68571429 Z M5.37575227,9.91067794 C5.422,10.1244855 5.47900301,10.3119116 5.53098689,10.465475 C5.68693853,10.9631781 5.94219729,11.4384372 6.33440669,11.9613403 L6.60042075,12.3141425 C7.56050921,13.5859627 7.89535709,14.3222796 7.87850714,15.1267157 C7.87850714,15.1389221 7.87850714,15.1515221 7.87886565,15.1637285 C7.86703483,16.6962127 6.72876715,17.9388952 5.33058008,17.9388952 C3.92522281,17.9388952 2.7822945,16.6832189 2.7822945,15.1401033 L2.7822945,15.1271095 C2.78444556,14.7487134 2.88160164,14.1734412 3.05476173,13.4898871 C3.25194196,13.7296823 3.4910678,13.9210459 3.76891267,13.9938901 C3.81014126,14.0045214 3.85208687,14.0096402 3.89331546,14.0096402 C4.03922883,14.0096402 4.18048158,13.9446711 4.2830153,13.8261516 C4.44828818,13.6351817 4.44685414,13.435943 4.42785314,13.0213218 C4.41351276,12.698051 4.39558728,12.2956361 4.45796794,11.7865143 C4.55118041,11.0151534 5.00935556,10.3402618 5.37575227,9.91067794 L5.37575227,9.91067794 Z" id="Fill-3"></path>
            </g>
        </g>
    </g>
</svg>