<?xml version="1.0" encoding="UTF-8"?>
<svg width="177px" height="33px" viewBox="0 0 177 33" version="1.1" xmlns="http://www.w3.org/2000/svg" xmlns:xlink="http://www.w3.org/1999/xlink">
    <title>Logo</title>
    <g id="Master" stroke="none" stroke-width="1" fill="none" fill-rule="evenodd">
        <g id="Sign-in-Copy-2" transform="translate(-99.000000, -185.000000)" fill="#EE3124">
            <g id="Branding-/-Honeywell-Logo-/-Mobile" transform="translate(99.000000, 185.000000)">
                <g id="Honeywell_Logo_Digital_Red">
                    <path d="M14.16,0 L22.1715789,0 L22.1715789,25.3 L14.16,25.3 L14.16,13.8416667 L8.01157895,13.8416667 L8.01157895,25.3 L0,25.3 L0,0 L8.01157895,0 L8.01157895,10.6333333 L14.2531579,10.6333333 L14.2531579,0 L14.16,0 Z M44.4363158,11 C45.9268421,13.475 46.02,16.9583333 44.9952632,19.8916667 C43.9705263,22.825 41.9210526,24.2916667 40.5236842,24.9333333 C39.2194737,25.6666667 36.9836842,26.125 34.9342105,26.125 C32.8847368,26.125 30.09,25.6666667 28.32,24.2 C26.55,22.7333333 25.2457895,21.2666667 24.78,19.1583333 C24.2210526,16.9583333 23.8484211,13.3833333 26.0842105,10.2666667 C28.32,7.15 31.2078947,6.78333333 32.6052632,6.50833333 C33.8163158,6.41666667 34.5615789,6.41666667 34.6547368,6.41666667 C34.6547368,6.41666667 37.17,6.23333333 39.2194737,7.15 C41.3621053,7.7 42.9457895,8.525 44.4363158,11 Z M37.6357895,13.475 C37.6357895,12.0083333 37.3563158,11 37.17,10.45 C36.7042105,9.44166667 36.1452632,8.43333333 34.9342105,8.43333333 C34.7478947,8.43333333 34.6547368,8.43333333 34.4684211,8.43333333 C33.9094737,8.61666667 33.2573684,9.16666667 32.6984211,10.3583333 C32.2326316,11.3666667 32.2326316,13.0166667 32.2326316,15.125 C32.2326316,15.675 32.2326316,16.4083333 32.2326316,17.1416667 C32.2326316,20.4416667 32.5121053,21.5416667 33.2573684,22.55 C33.7231579,23.1 34.1889474,23.5583333 34.7478947,23.5583333 C35.2136842,23.5583333 35.6794737,23.375 36.0521053,23.1 C37.2631579,22.0916667 37.5426316,20.075 37.5426316,19.4333333 C37.6357895,19.0666667 37.6357895,15.95 37.6357895,13.475 Z M57.7578947,7.15 C56.2673684,7.88333333 55.2426316,9.35 55.2426316,9.35 L55.2426316,6.78333333 L47.8831579,6.78333333 L47.8831579,25.2083333 L55.2426316,25.2083333 L55.2426316,12.1 C55.2426316,11.825 56.1742105,10.8166667 57.1989474,10.3583333 C58.2236842,9.80833333 59.4347368,10.0833333 59.9005263,10.6333333 C60.4594737,11.3666667 60.4594737,12.1 60.4594737,12.5583333 L60.4594737,25.3 L67.8189474,25.3 L67.8189474,11.1833333 C67.6326316,10.2666667 67.26,7.975 64.5584211,6.78333333 C61.8568421,5.59166667 59.1552632,6.41666667 57.7578947,7.15 Z M89.7110526,11.1833333 C91.0152632,13.8416667 90.9221053,17.1416667 90.9221053,17.1416667 L77.7868421,17.1416667 L77.7868421,20.9 C77.7868421,20.9 77.9731579,21.6333333 78.2526316,22.0916667 C78.5321053,22.55 79.5568421,24.0166667 83.2831579,23.375 C87.2889474,22.825 87.1026316,19.8916667 87.2889474,19.8916667 L90.5494737,19.8916667 C90.5494737,19.8916667 90.5494737,21.8166667 89.2452632,22.9166667 C87.9410526,24.2 85.5189474,25.3916667 83.0036842,25.6666667 C80.3021053,25.9416667 76.6689474,25.9416667 73.6878947,23.4666667 C71.9178947,22 71.1726316,20.4416667 70.6136842,19.0666667 C70.0547368,17.325 69.6821053,13.8416667 71.1726316,10.9083333 C72.6631579,7.975 76.2963158,5.775 81.0473684,5.95833333 C85.7984211,6.14166667 88.1273684,8.15833333 89.7110526,11.1833333 Z M83.2831579,13.1083333 C83.2831579,12.1 83.0968421,11.0916667 83.0036842,10.6333333 C82.8173684,10.3583333 82.7242105,9.71666667 81.9789474,9.075 C81.2336842,8.43333333 79.8363158,8.25 79.2773684,8.89166667 C78.7184211,9.35 78.0663158,10.175 77.9731579,11.3666667 C77.7868421,12.375 77.7868421,14.3 77.7868421,14.6666667 L83.2831579,14.6666667 C83.2831579,14.3916667 83.2831579,13.9333333 83.2831579,13.1083333 Z M157.250526,11.1833333 C158.554737,13.8416667 158.461579,17.1416667 158.461579,17.1416667 L145.326316,17.1416667 L145.326316,20.9 C145.326316,20.9 145.512632,21.6333333 145.792105,22.0916667 C146.071579,22.55 147.096316,24.0166667 150.822632,23.375 C154.828421,22.825 154.642105,19.8916667 154.828421,19.8916667 L158.088947,19.8916667 C158.088947,19.8916667 158.088947,21.8166667 156.784737,22.9166667 C155.480526,24.2 153.058421,25.3916667 150.543158,25.6666667 C147.841579,25.9416667 144.208421,25.9416667 141.227368,23.4666667 C139.457368,22 138.712105,20.4416667 138.153158,19.0666667 C137.594211,17.325 137.221579,13.8416667 138.712105,10.9083333 C140.202632,7.975 143.835789,5.68333333 148.586842,5.86666667 C152.778947,6.41666667 155.480526,8.15833333 157.250526,11.1833333 Z M150.543158,13.1083333 C150.543158,12.1 150.356842,11.0916667 150.263684,10.6333333 C150.077368,10.3583333 149.984211,9.71666667 149.238947,9.075 C148.493684,8.43333333 147.189474,8.25 146.630526,8.89166667 C146.071579,9.35 145.419474,10.175 145.326316,11.3666667 C145.14,12.375 145.14,14.3 145.14,14.6666667 L150.636316,14.6666667 C150.543158,14.3916667 150.543158,13.9333333 150.543158,13.1083333 Z M134.333684,6.78333333 L131.538947,17.1416667 L128.278421,6.78333333 L121.757368,6.78333333 L118.962632,17.1416667 L115.702105,6.78333333 L105.547895,6.78333333 L101.821579,15.4916667 L98.4678947,6.6 L90.3631579,6.6 L97.9089474,25.4833333 C97.9089474,25.4833333 97.9089474,25.6666667 97.7226316,26.2166667 C97.5363158,26.7666667 96.9773684,28.1416667 96.1389474,28.9666667 C95.2073684,29.975 94.1826316,29.7 94.1826316,29.7 C94.1826316,29.7 94.6484211,29.425 94.7415789,28.7833333 C95.0210526,28.2333333 94.9278947,27.3166667 94.4621053,26.4916667 C93.9963158,25.6666667 92.8784211,25.025 91.1084211,25.3 C89.3384211,25.575 88.5931579,27.225 88.7794737,28.7833333 C88.9657895,30.25 89.9905263,31.5333333 92.5057895,31.9916667 C95.0210526,32.45 96.5115789,31.5333333 98.0021053,30.25 C99.3063158,29.0583333 100.517368,25.85 100.517368,25.85 L108.342632,6.96666667 L113.932105,24.8416667 L120.173684,24.8416667 L123.154737,14.1166667 L126.508421,24.8416667 L132.563684,24.8416667 L137.687368,6.41666667 L134.426842,6.41666667 L134.426842,6.78333333 L134.333684,6.78333333 Z M160.511053,25.3 L167.591053,25.3 L167.591053,0 L160.511053,0 L160.511053,25.3 Z M169.92,25.3 L177,25.3 L177,0 L169.92,0 L169.92,25.3 Z" id="Shape" fill-rule="nonzero"></path>
                </g>
            </g>
        </g>
    </g>
</svg>