<?xml version="1.0" encoding="UTF-8"?>
<svg width="290px" height="78px" viewBox="0 0 290 78" version="1.1" xmlns="http://www.w3.org/2000/svg" xmlns:xlink="http://www.w3.org/1999/xlink">
    <title>Group 2</title>
    <defs>
        <path d="M25.1022,0 L46.8978,0 C54.126,0 57.7392,0 61.6302,1.23 C65.8782,2.7762 69.2238,6.1218 70.77,10.3698 C72,14.2602 72,17.8746 72,25.1022 L72,46.8978 C72,54.126 72,57.7392 70.77,61.6302 C69.2238,65.8782 65.8782,69.2238 61.6302,70.7694 C57.7392,72 54.126,72 46.8978,72 L25.1022,72 C17.874,72 14.2602,72 10.3698,70.7694 C6.1218,69.2238 2.7762,65.8782 1.23,61.6302 C0,57.7392 0,54.126 0,46.8978 L0,25.1022 C0,17.8746 0,14.2602 1.23,10.3698 C2.7762,6.1218 6.1218,2.7762 10.3698,1.23 C14.2602,0 17.874,0 25.1022,0 L25.1022,0" id="path-1"></path>
        <filter x="-5.6%" y="-4.2%" width="111.1%" height="111.1%" filterUnits="objectBoundingBox" id="filter-3">
            <feMorphology radius="0.5" operator="dilate" in="SourceAlpha" result="shadowSpreadOuter1"></feMorphology>
            <feOffset dx="0" dy="1" in="shadowSpreadOuter1" result="shadowOffsetOuter1"></feOffset>
            <feMorphology radius="1" operator="erode" in="SourceAlpha" result="shadowInner"></feMorphology>
            <feOffset dx="0" dy="1" in="shadowInner" result="shadowInner"></feOffset>
            <feComposite in="shadowOffsetOuter1" in2="shadowInner" operator="out" result="shadowOffsetOuter1"></feComposite>
            <feGaussianBlur stdDeviation="1" in="shadowOffsetOuter1" result="shadowBlurOuter1"></feGaussianBlur>
            <feColorMatrix values="0 0 0 0 0   0 0 0 0 0   0 0 0 0 0  0 0 0 0.3 0" type="matrix" in="shadowBlurOuter1"></feColorMatrix>
        </filter>
    </defs>
    <g id="Master" stroke="none" stroke-width="1" fill="none" fill-rule="evenodd">
        <g id="App-settings-Copy" transform="translate(-21.000000, -117.000000)">
            <g id="Group-2" transform="translate(24.000000, 119.000000)">
                <g id="167">
                    <mask id="mask-2" fill="white">
                        <use xlink:href="#path-1"></use>
                    </mask>
                    <g id="Icon-Shape">
                        <use fill="black" fill-opacity="1" filter="url(#filter-3)" xlink:href="#path-1"></use>
                        <use stroke="#979797" stroke-width="1" xlink:href="#path-1"></use>
                    </g>
                    <g id="Group" mask="url(#mask-2)">
                        <g id="*NEW-ICON*">
                            <rect id="Base" fill="#EE3124" x="0" y="0" width="72.8571429" height="72"></rect>
                            <path d="M40.9089471,8.78860342 L42.8152926,14.5425551 L46.4200533,16.700287 L53.0543621,13.8233112 L59.7960653,20.3300715 L56.3980044,26.5299545 L57.5894704,29.1671824 L64.1425331,31.3249142 L64.1425331,40.6750858 L57.6228314,42.8328176 L56.3980044,45.4700455 L59.7960653,51.7034932 L53.0543621,58.1766888 L46.4200533,55.299713 L42.8152926,57.4574449 L40.9089471,63.2113966 L36.0137473,63.2113966 C21.2721657,63.2113966 9.32175259,51.0284394 9.32175259,36 C9.32175259,21.121845 21.0343525,9.03254711 35.5723464,8.79224897 L36.0137473,8.78860342 L40.9089471,8.78860342 Z M38.3324621,12.3850618 L36.0137741,12.3850618 C23.3849344,12.3850618 13.1044675,22.7371568 12.900121,35.6092913 L12.8970209,36.0001193 C12.8970209,48.9223646 23.0511994,59.403682 35.6318088,59.6120162 L36.0137741,59.6154154 L38.3324621,59.6154154 L39.8447365,55.0509557 L46.1595857,51.2709046 L52.2966483,53.9326975 L55.3404944,51.0099446 L52.3916421,45.6002106 L55.0378209,39.9024298 L60.5672648,38.0724893 L60.5672648,33.9320624 L54.9845971,32.0937447 L52.4008446,26.3746065 L55.339303,21.0128279 L52.2906912,18.0704157 L46.1595857,20.7293339 L39.8447365,16.9492829 L38.3324621,12.3850618 Z M35.6626605,16.5127535 L35.6626605,20.1089733 C26.857767,20.1089733 19.715063,27.2979744 19.715063,36.1720884 C19.715063,44.9574613 26.7156272,52.0912551 35.3990179,52.2330524 L35.6626605,52.2352036 L35.6626605,55.8314234 C24.8656442,55.8314234 16.1178605,47.0269389 16.1178605,36.1720884 C16.1178605,25.4257865 24.6915633,16.6890482 35.3393715,16.515388 L35.6626605,16.5127535 Z M40.7816888,24.8173523 C42.5809753,25.5987776 44.1743857,26.8093667 45.4163765,28.3444197 L45.5219689,28.4767878 L42.7342255,30.7016464 C41.8472621,29.5738716 40.6931746,28.684894 39.3857925,28.1171015 C37.648151,27.3624485 35.7200434,27.2066855 33.8615513,27.704667 C31.9986134,28.2038397 30.403567,29.3068693 29.2756831,30.8347209 C27.7249799,32.9353313 27.1937358,35.64464 27.8892499,38.240334 C29.1234866,42.8465682 33.7990354,45.5922055 38.3292482,44.3783386 C40.0686324,43.912272 41.5749623,42.919959 42.6866563,41.5440219 L42.7692909,41.4401096 L45.5705715,43.6753107 C43.9814739,45.7056399 41.7900154,47.1741095 39.2600183,47.8520202 C32.8262006,49.5759565 26.1966704,45.6828765 24.4494161,39.1620347 C23.46624,35.4927716 24.219374,31.6518395 26.4136143,28.6794824 C28.014513,26.5108765 30.2869738,24.9393914 32.9307811,24.2309854 C35.5682691,23.5242726 38.3152613,23.7461895 40.7816888,24.8173523 Z" id="shape备份" fill="#FFFFFF" fill-rule="nonzero"></path>
                        </g>
                    </g>
                </g>
                <text id="Honeywell-Connect-Mo" font-family="HoneywellSans-Black, Honeywell Sans" font-size="23.04" font-weight="700" line-spacing="29.7264" letter-spacing="-0.115200001" fill="#EE3124">
                    <tspan x="90" y="23">Honeywell</tspan>
                    <tspan x="211.74336" y="23" font-family="HoneywellSans-Medium, Honeywell Sans" font-weight="400"> </tspan>
                    <tspan x="90" y="52.7264" font-family="HoneywellSans-Bold, Honeywell Sans" font-weight="bold">Connect Mobile</tspan>
                </text>
            </g>
        </g>
    </g>
</svg>