<?xml version="1.0" encoding="UTF-8"?>
<svg width="48px" height="48px" viewBox="0 0 48 48" version="1.1" xmlns="http://www.w3.org/2000/svg" xmlns:xlink="http://www.w3.org/1999/xlink">
    <title>Group 8 Copy 3</title>
    <defs>
        <filter color-interpolation-filters="auto" id="filter-1">
            <feColorMatrix in="SourceGraphic" type="matrix" values="0 0 0 0 0.000000 0 0 0 0 0.341176 0 0 0 0 0.654902 0 0 0 1.000000 0"></feColorMatrix>
        </filter>
        <path d="M7.5,38.99925 L40.5,38.99925 L40.5,5.99925 L7.5,5.99925 L7.5,38.99925 Z M9,37.50075 L39,37.50075 L39,7.50075 L9,7.50075 L9,37.50075 Z M21.75,12 C26.298,12 30,15.7005 30,20.25 C30,24.798 26.298,28.5 21.75,28.5 C17.2005,28.5 13.5,24.798 13.5,20.25 C13.5,15.7005 17.2005,12 21.75,12 M21.75,30 C27.126,30 31.5,25.626 31.5,20.25 C31.5,14.874 27.126,10.5 21.75,10.5 C16.374,10.5 12,14.874 12,20.25 C12,25.626 16.374,30 21.75,30 M21.75,17.99925 C22.9905,17.99925 24,19.00875 24,20.24925 C24,21.48975 22.9905,22.49925 21.75,22.49925 C20.5095,22.49925 19.5,21.48975 19.5,20.24925 C19.5,19.00875 20.5095,17.99925 21.75,17.99925 M18,40.49925 L18,41.99925 L12,41.99925 L12,40.49925 L18,40.49925 Z M36,40.49925 L36,41.99925 L30,41.99925 L30,40.49925 L36,40.49925 Z M22.5,25.49925 L22.5,26.99925 L21,26.99925 L21,25.49925 L22.5,25.49925 Z M27,23.99925 L27,25.49925 L25.5,25.49925 L25.5,23.99925 L27,23.99925 Z M18,23.99925 L18,25.49925 L16.5,25.49925 L16.5,23.99925 L18,23.99925 Z M17.097,14.55225 L19.671,17.13075 C20.2665,16.73325 20.9805,16.49925 21.75,16.49925 C23.8215,16.49925 25.5,18.17925 25.5,20.24925 C25.5,22.32075 23.8215,23.99925 21.75,23.99925 C19.6785,23.99925 18,22.32075 18,20.24925 C18,19.49175 18.2295,18.78675 18.6165,18.19725 L18.6165,18.19725 L16.035,15.61125 L17.097,14.55225 Z M28.5,19.49925 L28.5,20.99925 L27,20.99925 L27,19.49925 L28.5,19.49925 Z M16.5,19.49925 L16.5,20.99925 L15,20.99925 L15,19.49925 L16.5,19.49925 Z M27,14.99925 L27,16.49925 L25.5,16.49925 L25.5,14.99925 L27,14.99925 Z M22.5,13.49925 L22.5,14.99925 L21,14.99925 L21,13.49925 L22.5,13.49925 Z" id="path-2"></path>
    </defs>
    <g id="HotWaterSystem" stroke="none" stroke-width="1" fill="none" fill-rule="evenodd">
        <g id="Group-8-Copy">
            <rect id="Rectangle" fill-opacity="0.705228365" fill="#82B3E0" x="12" y="10.5" width="33" height="31.5"></rect>
            <g id="Asset" filter="url(#filter-1)">
                <g>
                    <mask id="mask-3" fill="white">
                        <use xlink:href="#path-2"></use>
                    </mask>
                    <use id="Mask" fill="#0059A7" xlink:href="#path-2"></use>
                </g>
            </g>
        </g>
    </g>
</svg>