<?xml version="1.0" encoding="UTF-8"?>
<svg width="50px" height="50px" viewBox="0 0 50 50" version="1.1" xmlns="http://www.w3.org/2000/svg" xmlns:xlink="http://www.w3.org/1999/xlink">
    <title>tab/ general/ unselect</title>
    <defs>
        <linearGradient x1="50%" y1="0%" x2="50%" y2="100%" id="linearGradient-1">
            <stop stop-color="#016FD5" offset="0%"></stop>
            <stop stop-color="#015BAA" offset="100%"></stop>
        </linearGradient>
    </defs>
    <g id="tab/-general/-unselect" stroke="none" stroke-width="1" fill="none" fill-rule="evenodd">
        <g id="Group" transform="translate(1.000000, 1.000000)">
            <circle id="椭圆形备份-3" stroke="url(#linearGradient-1)" cx="24" cy="24" r="24"></circle>
            <path d="M21.4886939,25.4992653 C21.842449,25.4992653 22.1322857,25.788 22.1322857,26.1428571 C22.1322857,26.4977143 21.842449,26.786449 21.4886939,26.786449 C21.1338367,26.786449 20.844,26.4977143 20.844,26.1428571 C20.844,25.788 21.1338367,25.4992653 21.4886939,25.4992653 L21.4886939,25.4992653 Z M21.4787755,28.7150204 L20.9387755,29.0676735 L20.9387755,27.7915102 C21.1117959,27.8499184 21.2947347,27.8884898 21.4886939,27.8884898 C21.6826531,27.8884898 21.8666939,27.8499184 22.0408163,27.7904082 L22.0408163,29.0764898 L21.4787755,28.7150204 Z M19.8367347,26.6938776 L19.8367347,31.106449 L21.4831837,30.027551 L23.1428571,31.0976327 L23.1428571,26.6938776 L23.1362449,26.6938776 C23.1946531,26.5197551 23.2343265,26.3368163 23.2343265,26.1428571 C23.2343265,25.1785714 22.4518776,24.3972245 21.4886939,24.3972245 C20.5244082,24.3972245 19.7419592,25.1785714 19.7419592,26.1428571 C19.7419592,26.3368163 19.7816327,26.5197551 19.8400408,26.6938776 L19.8367347,26.6938776 Z M24.2437959,27.7959184 L27.5510204,27.7959184 L27.5510204,26.6938776 L24.2437959,26.6938776 L24.2437959,27.7959184 Z M24.2437959,25.5918367 L27.5510204,25.5918367 L27.5510204,24.4897959 L24.2437959,24.4897959 L24.2437959,25.5918367 Z M20.9387755,23.3877551 L27.5510204,23.3877551 L27.5510204,22.2857143 L20.9387755,22.2857143 L20.9387755,23.3877551 Z M20.9387755,21.1836735 L27.5510204,21.1836735 L27.5510204,20.0816327 L20.9387755,20.0816327 L20.9387755,21.1836735 Z M20.9387755,18.9795918 L27.5510204,18.9795918 L27.5510204,17.876449 L20.9387755,17.876449 L20.9387755,18.9795918 Z M17.6326531,33.3061224 L30.8571429,33.3061224 L30.8571429,15.6734694 L17.6326531,15.6734694 L17.6326531,33.3061224 Z M18.7346939,32.2040816 L29.755102,32.2040816 L29.755102,16.7755102 L18.7346939,16.7755102 L18.7346939,32.2040816 Z" id="General_White" fill="#0057A7"></path>
        </g>
    </g>
</svg>