<?xml version="1.0" encoding="UTF-8"?>
<svg width="50px" height="50px" viewBox="0 0 50 50" version="1.1" xmlns="http://www.w3.org/2000/svg" xmlns:xlink="http://www.w3.org/1999/xlink">
    <title>tab/ equip/ select</title>
    <defs>
        <linearGradient x1="50%" y1="0%" x2="50%" y2="100%" id="linearGradient-1">
            <stop stop-color="#016FD5" offset="0%"></stop>
            <stop stop-color="#015BAA" offset="100%"></stop>
        </linearGradient>
        <path d="M18.3076362,0 L18.3076362,1.43171115 L14.0818439,1.43171115 L14.0818439,8.58883516 L14.0818439,10.0205463 L14.0818439,17.1805338 L18.3076362,17.1805338 L18.3076362,18.6122449 L22.5306122,18.6122449 L22.5306122,14.3171115 L18.3076362,14.3171115 L18.3076362,15.7488226 L15.4899719,15.7488226 L15.4899719,10.0205463 L18.3076362,10.0205463 L18.3076362,11.4522575 L22.5306122,11.4522575 L22.5306122,7.15712402 L18.3076362,7.15712402 L18.3076362,8.58883516 L15.4899719,8.58883516 L15.4899719,2.86342229 L18.3076362,2.86342229 L18.3076362,4.29513344 L22.5306122,4.29513344 L22.5306122,0 L18.3076362,0 Z M19.7157642,2.86342229 L21.1224842,2.86342229 L21.1224842,1.43171115 L19.7157642,1.43171115 L19.7157642,2.86342229 Z M19.7157642,10.0205463 L21.1224842,10.0205463 L21.1224842,8.58883516 L19.7157642,8.58883516 L19.7157642,10.0205463 Z M19.7157642,17.1805338 L21.1224842,17.1805338 L21.1224842,15.7488226 L19.7157642,15.7488226 L19.7157642,17.1805338 Z M0,0 L0,8.58883516 L2.81766425,8.58883516 L2.81766425,12.8854003 L12.6745607,12.8854003 L12.6745607,4.29513344 L9.85830456,4.29513344 L9.85830456,0 L0,0 Z M1.40812806,1.43171115 L8.4501765,1.43171115 L8.4501765,4.29513344 L2.81766425,4.29513344 L2.81766425,7.15712402 L1.40812806,7.15712402 L1.40812806,1.43171115 Z M4.22579231,11.4536892 L11.2664326,11.4536892 L11.2664326,5.72684458 L4.22579231,5.72684458 L4.22579231,11.4536892 Z" id="path-2"></path>
    </defs>
    <g id="tab/-equip/-select" stroke="none" stroke-width="1" fill="none" fill-rule="evenodd">
        <g id="Group-9" transform="translate(1.000000, 1.000000)">
            <circle id="椭圆形" stroke="url(#linearGradient-1)" cx="24" cy="24" r="24"></circle>
            <g id="Content-/-Macro-/-16px" transform="translate(12.734694, 14.693878)">
                <mask id="mask-3" fill="white">
                    <use xlink:href="#path-2"></use>
                </mask>
                <use id="Equipment-white" fill="#0057A7" xlink:href="#path-2"></use>
            </g>
        </g>
    </g>
</svg>