<?xml version="1.0" encoding="UTF-8"?>
<svg width="50px" height="50px" viewBox="0 0 50 50" version="1.1" xmlns="http://www.w3.org/2000/svg" xmlns:xlink="http://www.w3.org/1999/xlink">
    <title>tab/ setpoints/ select</title>
    <defs>
        <linearGradient x1="50%" y1="0%" x2="50%" y2="100%" id="linearGradient-1">
            <stop stop-color="#016FD5" offset="0%"></stop>
            <stop stop-color="#015BAA" offset="100%"></stop>
        </linearGradient>
    </defs>
    <g id="tab/-setpoints/-select" stroke="none" stroke-width="1" fill="none" fill-rule="evenodd">
        <g id="Group-3" transform="translate(1.000000, 1.000000)">
            <circle id="椭圆形备份" stroke="url(#linearGradient-1)" cx="24" cy="24" r="24"></circle>
            <g id="Group" transform="translate(11.755102, 12.734694)" fill="#0057A7" fill-rule="nonzero">
                <g id="Group-2">
                    <path d="M12.7252977,17.788619 L12.7252977,12.7271801 L17.4937828,15.4834279 C17.7600534,15.6373275 18.1083904,15.558814 18.2718154,15.3080631 C18.4352403,15.0573122 18.3518674,14.7292781 18.0855968,14.5753785 L13.3318575,11.8276458 L18.3201665,9.23011086 C18.5936091,9.0877077 18.6926926,8.76351817 18.5414758,8.50601327 C18.3902589,8.24850838 18.0460044,8.15519997 17.7725618,8.29760311 L12.7252977,10.9258416 L12.7252977,5.44667649 L16.7826158,1.79371328 C17.006477,1.59002609 17.0135435,1.25429527 16.7984291,1.04241418 C16.5833148,0.830533094 16.2268467,0.822113941 16.0007242,1.02357379 L12.7252977,3.97236576 L12.7252977,0.532861568 C12.7252977,0.23857025 12.4719616,0 12.1594558,0 C11.84695,0 11.5936139,0.23857025 11.5936139,0.532861568 L11.5936139,3.95286836 L8.41599885,1.02773544 C8.1920285,0.825415933 7.83680268,0.830744156 7.61978816,1.03967823 C7.40277364,1.2486123 7.40496888,1.5831697 7.62470862,1.78956229 L11.5936139,5.44332479 L11.5936139,10.8229407 L6.73936982,8.01712077 L5.58292486,2.96794835 C5.51700644,2.68026682 5.2159229,2.49737768 4.91043596,2.55945402 C4.60494902,2.62153036 4.41074036,2.90506513 4.47665876,3.19274666 L5.40506379,7.24589956 L2.19339633,5.38950045 C1.92712574,5.23560081 1.57878871,5.31411428 1.41536379,5.5648652 C1.25193887,5.81561611 1.33531175,6.1436502 1.60158233,6.29754984 L4.94873497,8.23226363 L0.512727188,9.28240589 C0.20968091,9.35410997 0.0257386864,9.64358634 0.101880732,9.92896946 C0.178022777,10.2143526 0.485415647,10.3875737 0.788461925,10.3158696 L6.29720401,9.01168557 L11.0858614,11.7795764 L6.09295208,14.3794932 L0.734876701,12.8035072 C0.436561767,12.7157083 0.119149471,12.87227 0.0259164849,13.1531976 C-0.0673165013,13.4341251 0.098935255,13.7330369 0.397250181,13.8208358 L4.72259061,15.0930854 L1.52614995,16.7575585 C1.34875812,16.8494313 1.23701226,17.0235608 1.23312092,17.2141749 C1.22922959,17.4047889 1.33378588,17.5828344 1.50729691,17.6810601 C1.68080793,17.7792858 1.8968273,17.7827203 2.07376039,17.6900662 L5.25226951,16.0349236 L4.07135756,20.0694743 C4.03140771,20.2056936 4.05060022,20.3512812 4.12470726,20.4741662 C4.1988143,20.5970513 4.32175631,20.6871526 4.46645098,20.7246223 C4.51546297,20.7375727 4.56612807,20.7441383 4.61703281,20.7441357 C4.87155324,20.7438492 5.09458039,20.5836412 5.16215354,20.352557 L6.63695244,15.3139193 L11.5936139,12.7328284 L11.5936139,17.9548025 L7.62940511,21.5239413 C7.48272262,21.6553476 7.42178666,21.8505512 7.46961818,22.0358062 C7.51744971,22.2210612 7.66675667,22.368125 7.86113247,22.4214384 C8.05550827,22.4747518 8.26531975,22.4261871 8.41130236,22.2940914 L11.593597,19.4291132 L11.593597,22.9773425 C11.593597,23.2716338 11.846933,23.5102041 12.1594388,23.5102041 C12.4719447,23.5102041 12.7252807,23.2716338 12.7252807,22.9773425 L12.7252807,19.2790328 L15.9959994,22.2898765 C16.2199486,22.4923264 16.5752877,22.4870589 16.7923594,22.2780712 C17.0094311,22.0690836 17.0071714,21.7344209 16.7872953,21.5280496 L12.7252977,17.788619 Z" id="Path"></path>
                    <path d="M23.9559911,11.8035749 C24.2507321,11.8035749 24.4896669,11.5696665 24.4896669,11.2811259 C24.4896669,10.9925853 24.2507321,10.7586769 23.9559911,10.7586769 L22.9087217,10.7586769 L22.9087217,8.71301224 L23.9560071,8.71301224 C24.2507481,8.71301224 24.4896829,8.47910387 24.4896829,8.19056327 C24.4896829,7.90202266 24.2507481,7.66811429 23.9560071,7.66811429 L22.9087217,7.66811429 L22.9087217,5.68393143 C22.9087217,4.64001461 22.0442747,3.79375282 20.9779252,3.79375282 C19.9115758,3.79375282 19.0471288,4.64001461 19.0471288,5.68393143 L19.0471288,16.7616731 C18.0540156,17.3824047 17.4568659,18.4595671 17.4664237,19.6130116 C17.4664237,20.8412036 18.1357365,21.9760998 19.2222385,22.5901958 C20.3087405,23.2042918 21.6473662,23.2042918 22.7338681,22.5901958 C23.8203701,21.9760998 24.4896829,20.8412036 24.4896829,19.6130116 C24.4992411,18.4594959 23.9019762,17.3822887 22.9087217,16.7616418 L22.9087217,14.8938867 L23.9560071,14.8938867 C24.2507481,14.8938867 24.4896829,14.6599783 24.4896829,14.3714377 C24.4896829,14.0828971 24.2507481,13.8489887 23.9560071,13.8489887 L22.9087217,13.8489887 L22.9087217,11.803601 L23.9559911,11.8035749 Z M21.84137,10.7586769 L20.1144644,10.7586769 L20.1144644,8.71301224 L21.84137,8.71301224 L21.84137,10.7586769 Z M20.9780373,4.83849927 C21.4546921,4.83910112 21.8409025,5.2173038 21.84137,5.68393143 L21.84137,7.66811429 L20.1144644,7.66811429 L20.1144644,5.68393143 C20.1150554,5.21726219 20.5013399,4.83909225 20.9780373,4.83849927 Z M23.4223153,19.6129907 C23.4223153,20.9345297 22.3279747,22.0058488 20.9780373,22.0058488 C19.6280999,22.0058488 18.5337594,20.9345297 18.5337594,19.6129907 C18.52083,18.7339242 19.0194352,17.9240908 19.8194805,17.5247256 C19.8358288,17.5166845 19.8517461,17.5078296 19.8671697,17.4981956 C20.5590579,17.1271947 21.3964099,17.1270982 22.0883872,17.4979396 C22.1038955,17.5076572 22.1198979,17.5165973 22.1363326,17.5247256 C22.9365268,17.9239803 23.4352604,18.7338656 23.4223153,19.6130116 L23.4223153,19.6129907 Z M21.84137,16.2744895 C21.773257,16.2577711 21.6992842,16.2493022 21.6279531,16.2368 C21.5604271,16.2248411 21.4951852,16.2091102 21.4254124,16.2010227 C21.3302687,16.1900513 21.2326114,16.1880137 21.1353489,16.1841528 C21.0823549,16.182063 21.0321894,16.1749995 20.9780533,16.1749995 C20.9249259,16.1749995 20.8756783,16.1819847 20.8236609,16.1839961 C20.7253845,16.1878204 20.6266918,16.1898945 20.5305341,16.2010227 C20.458157,16.2093819 20.3904069,16.2256718 20.320474,16.2382367 C20.2517099,16.2504777 20.1802133,16.258513 20.1144751,16.2747455 L20.1144751,14.8938815 L21.84137,14.8938815 L21.84137,16.2744895 Z M21.84137,13.8489835 L20.1144644,13.8489835 L20.1144644,11.8035958 L21.84137,11.8035958 L21.84137,13.8489835 Z" id="Shape"></path>
                </g>
                <path d="M21.7605567,18.7899693 C21.3062453,18.5432742 20.7561484,18.5540343 20.311771,18.8183081 C19.8673935,19.0825818 19.594038,19.5615335 19.5918367,20.0797192 C19.5932387,20.8927078 20.250681,21.5510204 21.0611927,21.5510204 C21.8717045,21.5510204 22.5291468,20.8927078 22.5305487,20.0797192 C22.535607,19.5389051 22.2382431,19.0408154 21.7605567,18.7899693 L21.7605567,18.7899693 Z M21.0612317,20.5713998 C20.9309508,20.5728194 20.8055894,20.5216884 20.713445,20.4295485 C20.6213006,20.3374086 20.5701405,20.2120269 20.5715131,20.0817053 C20.5681429,19.9042713 20.6658057,19.7403216 20.8234101,19.6588374 C20.8346327,19.6531332 20.8454976,19.6468962 20.8561874,19.6403051 C20.9851194,19.5757436 21.1369155,19.5756773 21.2659037,19.6401263 C21.2765936,19.6468962 21.2876373,19.6531332 21.2988598,19.6588374 C21.4565626,19.7402412 21.5543126,19.904221 21.5509356,20.0817053 C21.5523071,20.212024 21.5011487,20.3374029 21.4090077,20.4295421 C21.3168667,20.5216813 21.1915097,20.5728144 21.0612317,20.5713998 Z" id="Shape"></path>
            </g>
        </g>
    </g>
</svg>