<?xml version="1.0" encoding="UTF-8"?>
<svg width="20px" height="16px" viewBox="0 0 20 16" version="1.1" xmlns="http://www.w3.org/2000/svg" xmlns:xlink="http://www.w3.org/1999/xlink">
    <title>Group 13</title>
    <g id="Master" stroke="none" stroke-width="1" fill="none" fill-rule="evenodd">
        <g id="1.4.-List-of-devices" transform="translate(-90.000000, -163.000000)">
            <g id="Group-16" transform="translate(18.000000, 104.000000)">
                <g id="Group-13" transform="translate(72.000000, 59.000000)">
                    <path d="M16.0870553,8.38926399 C15.9889221,8.37173025 15.9244292,8.28336712 15.9428292,8.19153197 C16.0011887,7.89814556 16.0309261,7.60962 16.0309261,7.33342013 C16.0309261,4.76012623 13.7896585,2.66666667 11.0346781,2.66666667 C8.76311561,2.66666667 6.77721762,4.10217684 6.20495932,6.15761769 C6.19194923,6.20414287 6.15830884,6.243724 6.1124018,6.26577138 C6.06630889,6.28799236 6.01259578,6.29076998 5.96427258,6.27358344 C5.59850306,6.14320877 5.21916588,6.07724023 4.83722668,6.07724023 C3.08904171,6.07724023 1.66666667,7.40581193 1.66666667,9.03870692 C1.66666667,10.6716019 3.08904171,12 4.83722668,12 L15.7155242,12 C16.7912732,12 17.6666667,11.1825109 17.6666667,10.1777059 C17.6662949,9.30640031 17.0022226,8.55435895 16.0870553,8.38926399 Z" id="Path" stroke="#444444" stroke-width="0.605" fill="#D8D8D8"></path>
                    <path d="M19,7.11666667 C19.2439258,7.11666667 19.4647591,7.21553712 19.624611,7.37538901 C19.7844629,7.5352409 19.8833333,7.75607424 19.8833333,8 C19.8833333,8.24392576 19.7844629,8.4647591 19.624611,8.62461099 C19.4647591,8.78446288 19.2439258,8.88333333 19,8.88333333 L19,8.88333333 L0.333333333,8.88333333 C0.0894075688,8.88333333 -0.131425765,8.78446288 -0.291277657,8.62461099 C-0.451129549,8.4647591 -0.55,8.24392576 -0.55,8 C-0.55,7.75607424 -0.451129549,7.5352409 -0.291277657,7.37538901 C-0.131425765,7.21553712 0.0894075688,7.11666667 0.333333333,7.11666667 L0.333333333,7.11666667 Z" id="Rectangle" stroke="#E5E5E5" stroke-width="0.9" fill="#444444" transform="translate(9.666667, 8.000000) rotate(-36.000000) translate(-9.666667, -8.000000) "></path>
                </g>
            </g>
        </g>
    </g>
</svg>