<?xml version="1.0" encoding="UTF-8"?>
<svg width="21px" height="13px" viewBox="0 0 21 13" version="1.1" xmlns="http://www.w3.org/2000/svg" xmlns:xlink="http://www.w3.org/1999/xlink">
    <title>Group 21</title>
    <g id="Master" stroke="none" stroke-width="1" fill="none" fill-rule="evenodd">
        <g id="1.4.-List-of-devices-Copy-11" transform="translate(-90.000000, -152.000000)" stroke="#0057A7">
            <g id="Group-18" transform="translate(91.000000, 153.000000)">
                <g id="Group-21" transform="translate(0.745098, 0.733333)">
                    <path d="M16.116905,6.29485706 C16.0072266,6.27556994 15.9351463,6.1783705 15.955711,6.07735183 C16.0209364,5.75462679 16.0541723,5.43724867 16.0541723,5.13342881 C16.0541723,2.30280552 13.5492262,-8.8817842e-15 10.4701304,-8.8817842e-15 C7.93132529,-8.8817842e-15 5.71179224,1.57906119 5.07220944,3.84004613 C5.05766875,3.89122383 5.02007067,3.93476307 4.96876279,3.95901518 C4.91724719,3.98345826 4.8572149,3.98651365 4.80320661,3.96760845 C4.39440539,3.82419632 3.9704403,3.75163092 3.54356708,3.75163092 C1.58971328,3.75163092 6.03961325e-14,5.21305979 6.03961325e-14,7.00924428 C6.03961325e-14,8.80542876 1.58971328,10.2666667 3.54356708,10.2666667 L15.7016643,10.2666667 C16.903972,10.2666667 17.8823529,9.36742865 17.8823529,8.26214311 C17.8819375,7.30370701 17.1397389,6.47646151 16.116905,6.29485706 Z" id="Path" stroke-width="0.605"></path>
                    <polyline id="Path-20" stroke-width="0.8" stroke-linecap="round" stroke-linejoin="round" points="7.25490196 6.26666667 8.50490196 7.26666667 12.254902 4.26666667"></polyline>
                </g>
            </g>
        </g>
    </g>
</svg>