<?xml version="1.0" encoding="UTF-8"?>
<svg width="14px" height="14px" viewBox="0 0 14 14" version="1.1" xmlns="http://www.w3.org/2000/svg" xmlns:xlink="http://www.w3.org/1999/xlink">
    <!-- Generator: Sketch 64 (93537) - https://sketch.com -->
    <title>Group 40</title>
    <desc>Created with Sketch.</desc>
    <g id="Master" stroke="none" stroke-width="1" fill="none" fill-rule="evenodd">
        <g id="Group-40" transform="translate(0.023780, 0.017452)">
            <g id="Group-39" transform="translate(0.000000, 0.001081)">
                <circle id="Oval" fill="#82B3E0" cx="7.47621951" cy="7.4814664" r="6.5"></circle>
                <path d="M6.46565041,12.9629328 C4.73760163,12.9629328 3.1152439,12.28778 1.8945122,11.0645621 C0.673780488,9.8413442 1.44773082e-13,8.21303462 1.44773082e-13,6.4814664 C1.44773082e-13,4.74989817 0.671138211,3.12423625 1.8945122,1.89837067 C3.1152439,0.675152749 4.7402439,-4.97379915e-14 6.46565041,-4.97379915e-14 C8.19105691,-4.97379915e-14 9.81605691,0.675152749 11.0367886,1.89837067 C12.2575203,3.12158859 12.9313008,4.74989817 12.9313008,6.4814664 C12.9313008,8.21303462 12.2601626,9.8413442 11.0367886,11.0645621 C9.81605691,12.28778 8.19369919,12.9629328 6.46565041,12.9629328 Z M6.46565041,0.317718941 C3.07560976,0.317718941 0.317073171,3.08187373 0.317073171,6.4814664 C0.317073171,9.88105906 3.07560976,12.6452138 6.46565041,12.6452138 C9.85569106,12.6452138 12.6115854,9.88105906 12.6115854,6.4814664 C12.6115854,3.08187373 9.85569106,0.317718941 6.46565041,0.317718941 Z" id="Shape" fill="#0057A7" fill-rule="nonzero"></path>
            </g>
            <path d="M6.56077236,12.9613666 C6.51321138,12.9613666 6.46565041,12.9401853 6.43394309,12.8978228 C6.38109756,12.8289837 6.39430894,12.7283727 6.46565041,12.6754196 C8.60853659,11.055053 9.78699187,8.86808759 9.78699187,6.51167211 C9.78699187,4.15525663 8.54512195,1.88621386 6.37845528,0.287028524 C6.30711382,0.234075367 6.29390244,0.136112027 6.34410569,0.0646252652 C6.39695122,-0.0068614965 6.49471545,-0.0200997857 6.56605691,0.0302057133 C7.66788618,0.843036671 8.53719512,1.81207944 9.14756098,2.90556213 C9.78170732,4.04140734 10.104065,5.25403463 10.104065,6.51167211 C10.104065,7.75077598 9.79227642,8.95016498 9.17398374,10.0727719 C8.57947154,11.155664 7.73130081,12.1167638 6.65589431,12.9295947 C6.62682927,12.950776 6.59247967,12.9613666 6.56077236,12.9613666 Z" id="Path" fill="#0057A7" fill-rule="nonzero"></path>
            <path d="M6.50528455,12.9613666 C6.47357724,12.9613666 6.43922764,12.950776 6.4101626,12.9295947 C5.31097561,12.1167638 4.44430894,11.147721 3.83658537,10.056886 C3.2050813,8.92104074 2.88536585,7.71106111 2.88536585,6.45607129 C2.88536585,5.21431977 3.19979675,4.01493076 3.82073171,2.88967618 C4.41788618,1.80678412 5.26869919,0.845684328 6.34674797,0.0328533711 C6.41544715,-0.0200997857 6.51585366,-0.0068614965 6.56869919,0.0646252652 C6.62154472,0.133464369 6.60833333,0.234075367 6.53699187,0.287028524 C4.38617886,1.90474746 3.20243902,4.09700816 3.20243902,6.45607129 C3.20243902,8.80983911 4.43902439,11.0762342 6.6004065,12.6754196 C6.67174797,12.7283727 6.68495935,12.8263361 6.6347561,12.8978228 C6.60304878,12.9401853 6.5554878,12.9613666 6.50528455,12.9613666 Z" id="Path" fill="#0057A7" fill-rule="nonzero"></path>
            <path d="M6.4550813,3.96992058 C4.78780488,3.96992058 3.16808943,3.3847882 1.76768293,2.28071488 C1.69898374,2.22511406 1.68577236,2.12715072 1.74126016,2.05831162 C1.79674797,1.98947252 1.8945122,1.97623423 1.96321138,2.03183504 C3.3054878,3.09089818 4.85914634,3.65220164 6.4550813,3.65220164 C8.05101626,3.65220164 9.60995935,3.08825052 10.9575203,2.02124441 C11.0262195,1.9656436 11.126626,1.97888188 11.1794715,2.04772099 C11.2349593,2.11656009 11.221748,2.21717109 11.1530488,2.27012425 C9.74735772,3.38214054 8.12235772,3.96992058 6.4550813,3.96992058 Z" id="Path" fill="#0057A7" fill-rule="nonzero"></path>
            <path d="M11.020935,11.0126904 C10.9865854,11.0126904 10.9522358,11.0020998 10.9231707,10.9782709 C9.58353659,9.92715072 8.03780488,9.37114258 6.4550813,9.37114258 C6.45243902,9.37114258 6.44979675,9.37114258 6.44979675,9.37114258 C4.87235772,9.37114258 3.33455285,9.92185541 1.99756098,10.9676803 C1.92886179,11.0206334 1.82845528,11.0100428 1.77560976,10.9412037 C1.72276423,10.8723646 1.73333333,10.7717536 1.80203252,10.7188004 C3.1945122,9.63061305 4.80101626,9.05607129 6.44979675,9.05607129 C6.45243902,9.05607129 6.4550813,9.05607129 6.45772358,9.05607129 C8.11178862,9.05607129 9.72621951,9.63590836 11.1213415,10.729391 C11.1900407,10.7823442 11.203252,10.8829552 11.1477642,10.9517943 C11.1134146,10.9915092 11.0684959,11.0126904 11.020935,11.0126904 Z" id="Path" fill="#0057A7" fill-rule="nonzero"></path>
            <path d="M6.5449187,12.9613666 C6.45772358,12.9613666 6.38638211,12.8898798 6.38638211,12.8025071 L6.31768293,0.159940947 C6.31768293,0.0725682387 6.38902439,0.00108147702 6.47621951,0.00108147702 C6.47621951,0.00108147702 6.47621951,0.00108147702 6.47621951,0.00108147702 C6.56341463,0.00108147702 6.6347561,0.0725682387 6.6347561,0.159940947 L6.70345528,12.8025071 C6.70609756,12.8898798 6.6347561,12.9613666 6.5449187,12.9613666 C6.54756098,12.9613666 6.5449187,12.9613666 6.5449187,12.9613666 Z" id="Path" fill="#0057A7" fill-rule="nonzero"></path>
            <path d="M0.206097561,6.67317924 C0.118902439,6.67317924 0.0475609756,6.60169247 0.0475609756,6.51431977 C0.0475609756,6.42694706 0.118902439,6.3554603 0.206097561,6.3554603 L12.8176829,6.28662119 C12.8176829,6.28662119 12.8176829,6.28662119 12.8176829,6.28662119 C12.904878,6.28662119 12.9762195,6.35810795 12.9762195,6.44548066 C12.9762195,6.53285337 12.904878,6.60434013 12.8176829,6.60434013 L0.206097561,6.67317924 C0.206097561,6.67317924 0.206097561,6.67317924 0.206097561,6.67317924 Z" id="Path" fill="#0057A7" fill-rule="nonzero"></path>
        </g>
    </g>
</svg>