<?xml version="1.0" encoding="UTF-8"?>
<svg width="27px" height="32px" viewBox="0 0 27 32" version="1.1" xmlns="http://www.w3.org/2000/svg" xmlns:xlink="http://www.w3.org/1999/xlink">
    <title>noun_Light Bulb_2819888</title>
    <g id="IO-configuration" stroke="none" stroke-width="1" fill="none" fill-rule="evenodd">
        <g id="4.4.-Equipment" transform="translate(-278.000000, -410.000000)">
            <g id="noun_Light-Bulb_2819888" transform="translate(278.000000, 410.000000)">
                <circle id="Oval" fill-opacity="0.705228365" fill="#82B3E0" cx="16" cy="16" r="10"></circle>
                <path d="M7.61142857,21.5657143 C8.83506323,22.4684015 9.57320164,23.8856272 9.61142857,25.4057143 L9.61142857,29.2 C9.61142857,29.5155913 9.86726586,29.7714286 10.1828571,29.7714286 L10.8,29.7714286 L10.8,30.8571429 C10.8,31.1727341 11.0558373,31.4285714 11.3714286,31.4285714 L16.0571429,31.4285714 C16.3727341,31.4285714 16.6285714,31.1727341 16.6285714,30.8571429 L16.6285714,29.7714286 L17.2457143,29.7714286 C17.5613056,29.7714286 17.8171429,29.5155913 17.8171429,29.2 L17.8171429,25.5428571 C17.7918426,24.0503732 18.4689617,22.6326549 19.6457143,21.7142857 C23.2798902,19.0205576 24.6407785,14.2150866 22.9586712,10.0158104 C21.2765638,5.81653424 16.9744767,3.27948577 12.4856375,3.83960026 C7.99679825,4.39971476 4.45005909,7.91613478 3.85142857,12.4 C3.37539674,15.9078078 4.80911337,19.4027645 7.61142857,21.5657143 L7.61142857,21.5657143 Z M15.4857143,30.2857143 L11.9428571,30.2857143 L11.9428571,29.7714286 L15.4857143,29.7714286 L15.4857143,30.2857143 Z M4.98285714,12.5714286 C5.6047309,7.98519362 9.6687872,4.66172218 14.2872017,4.96259609 C18.9056163,5.26347 22.5041265,9.08613144 22.5257627,13.7142857 C22.5349943,16.5064805 21.2100377,19.1351604 18.96,20.7885714 C17.4922425,21.9252229 16.645396,23.6866638 16.6742857,25.5428571 L16.6742857,28.6285714 L10.7542857,28.6285714 L10.7542857,27.5428571 L14.0685714,27.5428571 C14.3841627,27.5428571 14.64,27.2870199 14.64,26.9714286 C14.64,26.6558373 14.3841627,26.4 14.0685714,26.4 L10.7542857,26.4 L10.7542857,25.4057143 C10.752149,25.1063443 10.7215349,24.8078566 10.6628571,24.5142857 L15.4285714,24.5142857 C15.7441627,24.5142857 16,24.2584484 16,23.9428571 C16,23.6272659 15.7441627,23.3714286 15.4285714,23.3714286 L12.5714286,23.3714286 L12.5714286,17.0285714 L14.8571429,17.0285714 L14.8571429,21.0742857 C14.8571429,21.389877 15.1129801,21.6457143 15.4285714,21.6457143 C15.7441627,21.6457143 16,21.389877 16,21.0742857 L16,17.0285714 L16.64,17.0285714 C17.6264906,17.0222879 18.4228772,16.2207963 18.4228571,15.2342857 L18.4228571,15.0742857 C18.4228571,14.0896409 17.6246448,13.2914286 16.64,13.2914286 C15.6553552,13.2914286 14.8571429,14.0896409 14.8571429,15.0742857 L14.8571429,15.8857143 L12.5714286,15.8857143 L12.5714286,15.0742857 C12.5714286,14.0896409 11.7732162,13.2914286 10.7885714,13.2914286 C9.80392662,13.2914286 9.00571429,14.0896409 9.00571429,15.0742857 L9.00571429,15.2342857 C9.00569427,16.2207963 9.80208083,17.0222879 10.7885714,17.0285714 L11.4285714,17.0285714 L11.4285714,23.3714286 L10.3428571,23.3714286 C9.90861909,22.3026051 9.19879464,21.3680029 8.28571429,20.6628571 C5.81897109,18.7489348 4.56006629,15.6648359 4.98285714,12.5714286 Z M11.4285714,15.8857143 L10.7885714,15.8857143 C10.4332683,15.8794799 10.1485167,15.5896435 10.1485714,15.2342857 L10.1485714,15.0742857 C10.1485714,14.7208235 10.4351092,14.4342857 10.7885714,14.4342857 C11.1420337,14.4342857 11.4285714,14.7208235 11.4285714,15.0742857 L11.4285714,15.8857143 Z M16,15.8857143 L16,15.0742857 C16,14.7208235 16.2865378,14.4342857 16.64,14.4342857 C16.9934622,14.4342857 17.28,14.7208235 17.28,15.0742857 L17.28,15.2342857 C17.2800547,15.5896435 16.9953031,15.8794799 16.64,15.8857143 L16,15.8857143 Z M13.7142857,2.60571429 C13.3986944,2.60571429 13.1428571,2.349877 13.1428571,2.03428571 L13.1428571,1.14285714 C13.1428571,0.827265857 13.3986944,0.571428571 13.7142857,0.571428571 C14.029877,0.571428571 14.2857143,0.827265857 14.2857143,1.14285714 L14.2857143,2.03428571 C14.2857143,2.349877 14.029877,2.60571429 13.7142857,2.60571429 Z M4.91428571,5.71428571 L4.4,5.2 C4.25709376,5.05709376 4.20128252,4.84880339 4.25358983,4.65358984 C4.30589714,4.45837628 4.45837628,4.30589714 4.65358984,4.25358983 C4.84880339,4.20128252 5.05709376,4.25709376 5.2,4.4 L5.71428571,4.94857143 C5.92188052,5.16159835 5.92188052,5.5012588 5.71428571,5.71428571 C5.61059048,5.82477397 5.46581247,5.88744988 5.31428571,5.88744988 C5.16275896,5.88744988 5.01798095,5.82477397 4.91428571,5.71428571 Z M1.14285714,14.32 C0.827265857,14.32 0.571428571,14.0641627 0.571428571,13.7485714 C0.571428571,13.4329801 0.827265857,13.1771429 1.14285714,13.1771429 L1.82857143,13.1771429 C2.14416271,13.1771429 2.4,13.4329801 2.4,13.7485714 C2.4,14.0641627 2.14416271,14.32 1.82857143,14.32 L1.14285714,14.32 Z M5.81714286,21.7142857 C5.92532151,21.8215809 5.98617047,21.9676357 5.98617047,22.12 C5.98617047,22.2723643 5.92532151,22.4184191 5.81714286,22.5257143 L5.24571429,23.0971429 C5.14021117,23.2048082 4.99643958,23.2664245 4.84571429,23.2685714 C4.69127591,23.2681931 4.5433009,23.2065368 4.43428571,23.0971429 C4.21510481,22.8710701 4.21510481,22.5117871 4.43428571,22.2857143 L5.00571429,21.7142857 C5.23178706,21.4951048 5.59107008,21.4951048 5.81714286,21.7142857 Z M22.1142857,5.92 C21.9572793,5.91324411 21.8111064,5.83806948 21.7142857,5.71428571 C21.6037975,5.61059048 21.5411215,5.46581247 21.5411215,5.31428571 C21.5411215,5.16275896 21.6037975,5.01798095 21.7142857,4.91428571 L22.2285714,4.4 C22.4494853,4.1790861 22.8076575,4.1790861 23.0285714,4.4 C23.2494853,4.6209139 23.2494853,4.9790861 23.0285714,5.2 L22.5142857,5.71428571 C22.417465,5.83806948 22.2712922,5.91324411 22.1142857,5.92 L22.1142857,5.92 Z M25.5428571,14.32 C25.2272659,14.32 24.9714286,14.0641627 24.9714286,13.7485714 C24.9714286,13.4329801 25.2272659,13.1771429 25.5428571,13.1771429 L26.2857143,13.1771429 C26.6013056,13.1771429 26.8571429,13.4329801 26.8571429,13.7485714 C26.8571429,14.0641627 26.6013056,14.32 26.2857143,14.32 L25.5428571,14.32 Z M22.4228571,21.7142857 L22.9942857,22.2857143 C23.2134666,22.5117871 23.2134666,22.8710701 22.9942857,23.0971429 C22.8852705,23.2065368 22.7372955,23.2681931 22.5828571,23.2685714 C22.4321318,23.2664245 22.2883603,23.2048082 22.1828571,23.0971429 L21.6114286,22.5257143 C21.5032499,22.4184191 21.442401,22.2723643 21.442401,22.12 C21.442401,21.9676357 21.5032499,21.8215809 21.6114286,21.7142857 C21.8375013,21.4951048 22.1967844,21.4951048 22.4228571,21.7142857 Z" id="Shape" fill="#0057A7" fill-rule="nonzero"></path>
            </g>
        </g>
    </g>
</svg>