<?xml version="1.0" encoding="UTF-8"?>
<svg width="12px" height="12px" viewBox="0 0 12 12" version="1.1" xmlns="http://www.w3.org/2000/svg" xmlns:xlink="http://www.w3.org/1999/xlink">
    <title>Lock</title>
    <defs>
        <filter id="filter-1">
            <feColorMatrix in="SourceGraphic" type="matrix" values="0 0 0 0 1.000000 0 0 0 0 1.000000 0 0 0 0 1.000000 0 0 0 0.600000 0"></feColorMatrix>
        </filter>
        <path d="M5.66301376,9.63285024 L6.3309746,9.63285024 L6.3309746,5.74479427 L5.66301376,5.74479427 L5.66301376,9.63285024 Z M1.31392072,10.6483425 L10.6653725,10.6483425 L10.6653725,4.72796935 L1.31392072,4.72796935 L1.31392072,10.6483425 Z M8.66883754,3.9850075 L3.35186925,3.9850075 C3.35186925,2.52240546 4.54417935,1.33300017 6.01035339,1.33300017 C7.47652744,1.33300017 8.66883754,2.52240546 8.66883754,3.9850075 Z M11.2605256,3.9850075 L10.6653725,3.9850075 L9.33679838,3.9850075 C9.33679838,2.15525571 7.84457386,0.666666667 6.01035339,0.666666667 C4.17613292,0.666666667 2.68390841,2.15525571 2.68390841,3.9850075 L1.31392072,3.9850075 L0.666666667,3.9850075 L0.666666667,4.72796935 L0.666666667,10.6483425 L0.666666667,11.3333333 L1.31392072,11.3333333 L10.6653725,11.3333333 L11.2605256,11.3333333 L11.3333333,11.3333333 L11.3333333,3.9850075 L11.2605256,3.9850075 Z" id="path-2"></path>
    </defs>
    <g id="Symbols" stroke="none" stroke-width="1" fill="none" fill-rule="evenodd" opacity="0.8">
        <g filter="url(#filter-1)" id="Lock">
            <g>
                <mask id="mask-3" fill="white">
                    <use xlink:href="#path-2"></use>
                </mask>
                <use fill="#7A7A7A" xlink:href="#path-2"></use>
            </g>
        </g>
    </g>
</svg>