<?xml version="1.0" encoding="UTF-8"?>
<svg width="58px" height="66px" viewBox="0 0 58 66" version="1.1" xmlns="http://www.w3.org/2000/svg" xmlns:xlink="http://www.w3.org/1999/xlink">
    <title>logo success blue bg@1x</title>
    <g id="Onboard" stroke="none" stroke-width="1" fill="none" fill-rule="evenodd">
        <g id="onboard-08-1" transform="translate(-158.000000, -107.000000)">
            <g id="编组-2" transform="translate(34.000000, 107.000000)">
                <g id="编组-4" transform="translate(124.000000, 0.000000)">
                    <g id="编组" transform="translate(0.500000, 0.000000)">
                        <path d="M27.8500012,50.549944 C34.8916321,50.549944 40.6000007,44.8415754 40.6000007,37.7999445 C40.6000007,30.7583137 34.8916321,25.049944 27.8500012,25.049944 C20.8083704,25.049944 15.1000007,30.7583137 15.1000007,37.7999445 C15.1000007,40.0249006 15.6699136,42.1167464 16.6717221,43.9374646" id="椭圆形备份-81" stroke="#FFFFFF" stroke-width="4.50000018" transform="translate(27.850001, 37.799945) rotate(-270.000000) translate(-27.850001, -37.799945) "></path>
                        <polygon id="路径-17备份-3" fill="#FFFFFF" transform="translate(47.261346, 16.081176) scale(-1, 1) rotate(-67.000000) translate(-47.261346, -16.081176) " points="45.7241694 8.55626165 52.2191933 10.9387598 45.447546 23.6060897 42.303499 22.3877966"></polygon>
                        <polygon id="路径-17备份-3" fill="#FFFFFF" transform="translate(36.893093, 10.036617) scale(-1, 1) rotate(-67.000000) translate(-36.893093, -10.036617) " points="39.0653694 3.33390117 43.8586398 8.32250745 32.2193316 16.7393333 29.9275454 14.2660792"></polygon>
                        <polygon id="路径-17备份-3" fill="#FFFFFF" transform="translate(23.476808, 9.524914) scale(-1, 1) rotate(-16.000000) translate(-23.476808, -9.524914) " points="21.9396317 2 28.4346556 4.38249819 21.6630084 17.049828 18.5189613 15.8315349"></polygon>
                        <ellipse id="椭圆形" fill-opacity="0.13" fill="#FFFFFF" cx="28" cy="38.1152799" rx="28" ry="27.5"></ellipse>
                    </g>
                </g>
            </g>
        </g>
    </g>
</svg>