<?xml version="1.0" encoding="UTF-8"?>
<svg width="28px" height="16px" viewBox="0 0 28 16" version="1.1" xmlns="http://www.w3.org/2000/svg" xmlns:xlink="http://www.w3.org/1999/xlink">
    <title>No Signal</title>
    <g id="Thermostat" stroke="none" stroke-width="1" fill="none" fill-rule="evenodd">
        <g id="5.3.-Thermosat-general" transform="translate(-115.000000, -95.000000)" fill="#2770B4" fill-rule="nonzero">
            <g id="No-Signal" transform="translate(115.000000, 95.000000)">
                <g id="noun_signal_2930537">
                    <g id="Group">
                        <path d="M26.95,0.25 L25.85,0.25 C25.3,0.25 24.85,0.7 24.85,1.25 L24.85,14.75 C24.85,15.3 25.3,15.75 25.85,15.75 L26.95,15.75 C27.5,15.75 27.95,15.3 27.95,14.75 L27.95,1.25 C27.95,0.7 27.5,0.25 26.95,0.25 Z" id="Path"></path>
                        <path d="M20.75,3.35 L19.65,3.35 C19.1,3.35 18.65,3.8 18.65,4.35 L18.65,14.75 C18.65,15.3 19.1,15.75 19.65,15.75 L20.75,15.75 C21.3,15.75 21.75,15.3 21.75,14.75 L21.75,4.35 C21.75,3.8 21.3,3.35 20.75,3.35 Z" id="Path"></path>
                        <path d="M14.55,6.45 L13.45,6.45 C12.9,6.45 12.45,6.9 12.45,7.45 L12.45,14.75 C12.45,15.3 12.9,15.75 13.45,15.75 L14.55,15.75 C15.1,15.75 15.55,15.3 15.55,14.75 L15.55,7.45 C15.55,6.9 15.1,6.45 14.55,6.45 Z" id="Path"></path>
                        <path d="M8.35,9.55 L7.25,9.55 C6.7,9.55 6.25,10 6.25,10.55 L6.25,14.75 C6.25,15.3 6.7,15.75 7.25,15.75 L8.35,15.75 C8.9,15.75 9.35,15.3 9.35,14.75 L9.35,10.55 C9.35,10 8.9,9.55 8.35,9.55 Z" id="Path"></path>
                        <path d="M2.15,12.65 L1.05,12.65 C0.5,12.65 0.05,13.1 0.05,13.65 L0.05,14.75 C0.05,15.3 0.5,15.75 1.05,15.75 L2.15,15.75 C2.7,15.75 3.15,15.3 3.15,14.75 L3.15,13.65 C3.15,13.1 2.7,12.65 2.15,12.65 Z" id="Path"></path>
                    </g>
                </g>
            </g>
        </g>
    </g>
</svg>