<?xml version="1.0" encoding="UTF-8"?>
<svg width="241px" height="268px" viewBox="0 0 241 268" version="1.1" xmlns="http://www.w3.org/2000/svg" xmlns:xlink="http://www.w3.org/1999/xlink">
    <title>Disconnected 2</title>
    <g id="Gateway-configuration_New" stroke="none" stroke-width="1" fill="none" fill-rule="evenodd">
        <g id="No-internet" transform="translate(-72.000000, -65.000000)">
            <g id="Disconnected" transform="translate(72.000000, 65.000000)">
                <polygon id="Path-4" fill="#FFFFFF" points="86 151.055544 95.3068238 142 101 147.605016 91.1441491 157"></polygon>
                <polygon id="Path-4-Copy" fill="#FFFFFF" points="112 176.055544 121.306824 167 127 172.605016 117.144149 182"></polygon>
                <g id="Plugs" transform="translate(12.000000, 52.000000)">
                    <path d="M64.6705624,92.7272727 L111.423619,139.180916 C92.9521661,158.370703 75.7788184,160.131158 59.9035766,144.462283 C44.0283347,128.793408 45.61733,111.548404 64.6705624,92.7272727 Z" id="Path-2" fill="#FFFFFF"></path>
                    <path d="M111.337229,50.798419 L158.090286,97.2520622 C139.618833,116.441849 122.445485,118.202305 106.570243,102.533429 C90.6950013,86.8645539 92.2839966,69.6195505 111.337229,50.798419 Z" id="Path-2" fill="#FFFFFF" transform="translate(126.918706, 81.948262) scale(-1, -1) translate(-126.918706, -81.948262) "></path>
                    <path d="M113.063249,114.408518 C112.098164,113.442132 110.826682,112.957697 109.553961,112.957697 C108.282479,112.957697 107.010998,113.442132 106.045913,114.407275 L98.1515649,122.313501 L81.4858571,105.62534 L89.3802051,97.7203566 C91.3103756,95.7875856 91.3103756,92.6250953 89.3802051,90.6948085 L87.6249407,88.9384215 C86.6610959,87.9707939 85.3896147,87.486359 84.1168929,87.486359 C82.8454117,87.486359 81.5739305,87.9707939 80.6088452,88.9359372 L72.7144973,96.840921 L64.9305511,89.0464878 L59.1735321,94.811263 C45.8397254,108.163034 45.4130039,129.545245 57.8921271,143.412504 L49.963046,151.352268 C49.2361309,152.07892 49.2361309,153.258954 49.963046,153.986848 C50.6887207,154.714743 51.8684072,154.714743 52.5940819,153.986848 L60.5231629,146.047085 C67.2179769,152.088857 75.6668147,155.109744 84.1168929,155.109744 C93.14503,155.109744 102.173167,151.662803 109.060254,144.765195 L114.817273,139.00042 L106.922925,131.095436 L114.817273,123.190453 C116.747443,121.257682 116.747443,118.095191 114.817273,116.164905 L113.063249,114.408518 Z M83.2367642,91.6397196 C83.5477382,91.3278191 83.9221509,91.2804103 84.1174426,91.2804103 C84.3114903,91.2804103 84.6846591,91.3278191 84.996877,91.6409672 L86.7569898,93.4050761 C87.0679637,93.7169766 87.1152318,94.0912571 87.1152318,94.2871306 C87.1152318,94.4817565 87.0679637,94.8560371 86.7557459,95.1691851 L78.8408359,103.108923 L75.3218543,99.5807051 L83.2367642,91.6397196 Z M106.464109,142.052442 C100.506205,148.026486 92.5838302,151.315692 84.1566953,151.315692 C75.7308006,151.315692 67.8071855,148.025242 61.8505219,142.052442 C49.5502535,129.718851 49.5502535,109.649096 61.8492817,97.3155054 L64.9745768,94.1817436 L109.589404,138.91868 L106.464109,142.052442 Z M112.121427,120.611647 L104.206108,128.551385 L100.688742,125.023167 L108.604061,117.082181 C108.915002,116.770281 109.289375,116.722872 109.484646,116.722872 C109.678673,116.722872 110.051803,116.770281 110.363988,117.083429 L112.123915,118.847538 C112.434856,119.159438 112.482119,119.533719 112.482119,119.729592 C112.479632,119.924218 112.433612,120.298499 112.121427,120.611647 Z" id="Shape" fill="#0057A7" fill-rule="nonzero"></path>
                    <path d="M149.86404,110.604147 C163.220505,97.2079519 163.646709,75.7533518 151.145138,61.8411996 L159.088935,53.8737725 C159.817085,53.1434562 159.817085,51.9594963 159.088935,51.2304262 C158.362027,50.5001099 157.180336,50.5001099 156.453428,51.2304262 L148.509631,59.1978533 C141.804683,53.1372248 133.340246,50.1037949 124.877051,50.1037949 C115.832331,50.1037949 106.791337,53.5622041 99.891305,60.4827614 L94.1245033,66.2667172 L144.097239,116.388103 L149.86404,110.604147 Z M102.377866,63.1974837 C108.358806,57.1999728 116.308914,53.8978462 124.766873,53.8978462 C133.224832,53.8978462 141.176184,57.2012212 147.15588,63.1987321 C153.135576,69.1962431 156.429139,77.1712846 156.429139,85.6544417 C156.429139,94.1375988 153.135576,102.111392 147.157125,108.108903 L144.020399,111.254974 L99.2423841,66.3423068 L102.377866,63.1974837 Z" id="Shape" fill="#0057A7" fill-rule="nonzero"></path>
                    <line x1="59.9682119" y1="143.72759" x2="0.111258278" y2="203.762872" id="Line" stroke="#0057A7" stroke-width="6" fill="#0057A7" stroke-linecap="round"></line>
                    <line x1="209.610596" y1="0.111589744" x2="149.753642" y2="60.1468718" id="Line-Copy" stroke="#0057A7" stroke-width="6" fill="#0057A7" stroke-linecap="round"></line>
                </g>
                <polygon id="Path-5" fill="#FFFFFF" transform="translate(188.000000, 175.500000) scale(-1, -1) translate(-188.000000, -175.500000) " points="178 177.674486 178 174.079363 186.520513 176.814726 186.338115 170 198 178.557911 189.873495 176.10908 190.343418 181"></polygon>
                <polygon id="Path-5" fill="#FFFFFF" transform="translate(133.265802, 229.912484) scale(-1, -1) rotate(76.000000) translate(-133.265802, -229.912484) " points="122.402777 232.186379 122.401202 228.523629 131.675196 231.386659 132.26664 224.032159 144.130401 232.707638 135.566324 230.820999 135.646385 235.792809"></polygon>
                <polygon id="Path-3" fill="#FFFFFF" transform="translate(163.299335, 210.607448) scale(-1, -1) rotate(-44.000000) translate(-163.299335, -210.607448) " points="158.595859 186.729905 167.571224 187.10095 160.426896 205.922141 176.395297 205.917385 154.437762 234.484992 161.080681 213.867832 150.203373 213.869834"></polygon>
                <g id="Group-13" transform="translate(165.149594, 206.736357) rotate(135.000000) translate(-165.149594, -206.736357) translate(117.649594, 178.736357)" fill="#0057A7" fill-rule="nonzero">
                    <path d="M66.2886127,20.6698343 C66.0698567,20.2234306 65.6156445,19.940847 65.1184703,19.9418418 L50.5827014,19.9418418 L57.1875052,1.74202978 C57.3315307,1.34371403 57.272456,0.900216337 57.0291876,0.553475203 C56.7859192,0.206734068 56.3889608,2.37227501e-05 55.9653564,2.37227501e-05 L46.8642489,2.37227501e-05 C46.293541,-0.00340748502 45.7873021,0.365676311 45.616097,0.910038378 L43.1978027,8.70995781 L43.1978027,8.70995781 L37.0610559,29.405744 C36.9450879,29.8029865 37.0252002,30.2317023 37.2767986,30.5602773 C37.5283971,30.8888523 37.9214201,31.0780275 38.335211,31.0697269 L48.1384039,30.9137285 L39.765385,53.4294959 C39.5473826,54.0345945 39.8046845,54.7081309 40.3706261,55.0138291 C40.9365677,55.3195274 41.6410111,55.1654858 42.0276603,54.6514833 L66.1846001,22.04782 C66.4807873,21.6464775 66.5212,21.111079 66.2886127,20.6698343 Z M45.4860812,45.7335754 L51.3367932,30.1337365 C51.4808187,29.7354208 51.421744,29.2919231 51.1784756,28.9451819 C50.9352072,28.5984408 50.5382488,28.3919347 50.1146444,28.3917545 L50.1146444,28.3917545 L40.1814356,28.5737526 L45.8241223,9.64594814 L47.9563818,2.80801877 L54.2491476,2.80801877 L47.6443438,21.0078308 C47.5003183,21.4061465 47.559393,21.8496442 47.8026614,22.1963854 C48.0459298,22.5431265 48.4428882,22.7496326 48.8664926,22.7498128 L62.6741729,22.7498128 L45.4860812,45.7335754 Z" id="Shape"></path>
                    <path d="M74.4276032,45.0835821 L74.6876348,45.0835821 L93.3319037,36.9456662 C93.5561747,36.8370611 93.6986199,36.6098293 93.6986199,36.3606722 C93.6986199,36.1115151 93.5561747,35.8842833 93.3319037,35.7756782 L87.0651411,32.1097161 L94.4500398,25.9477798 C94.6242387,25.8262042 94.7280374,25.6271949 94.7280374,25.4147853 C94.7280374,25.2023756 94.6242387,25.0033663 94.4500398,24.8817908 L90.523562,22.5938144 C90.2978777,22.4331503 89.9951545,22.4331503 89.7694702,22.5938144 L86.7791063,25.3497859 L86.7791063,25.3497859 L78.978157,32.7337097 C78.8144633,32.8564637 78.7181253,33.0491142 78.7181253,33.2537043 C78.7181253,33.4582944 78.8144633,33.6509448 78.978157,33.7736989 L83.2686791,36.1656742 L74.0115526,43.8095953 C73.805569,43.9856946 73.7304599,44.2710893 73.8230769,44.5257525 C73.9156939,44.7804157 74.1566027,44.9509099 74.4276032,44.9535834 L74.4276032,45.0835821 Z M84.828869,36.6856688 C85.0030679,36.5640933 85.1068665,36.365084 85.1068665,36.1526743 C85.1068665,35.9402647 85.0030679,35.7412554 84.828869,35.6196799 L80.4863405,33.2017048 L87.6112076,26.5457736 L90.211524,24.1277986 L92.8118405,25.7137822 L85.5829607,31.7457199 C85.4087618,31.8672954 85.3049632,32.0663047 85.3049632,32.2787144 C85.3049632,32.491124 85.4087618,32.6901333 85.5829607,32.8117089 L91.5376854,36.2956729 L78.3800842,42.1456124 L84.828869,36.6856688 Z" id="Shape"></path>
                    <path d="M3.36095479,25.3757857 C3.17596008,25.3478175 2.98952354,25.4164956 2.86689466,25.5577838 L0.110559231,28.4697537 C-0.0368530771,28.6709817 -0.0368530771,28.9445188 0.110559231,29.1457467 L1.85277125,32.2657145 L1.85277125,32.2657145 L6.55934401,40.4816296 C6.66754541,40.6236363 6.83585314,40.7069877 7.01439939,40.7069877 C7.19294564,40.7069877 7.36125337,40.6236363 7.46945477,40.4816296 L10.3818092,37.3096624 L15.0103725,46.7995644 C15.1097901,46.9944469 15.3116731,47.1155607 15.5304357,47.1116573 L15.7124579,47.1116573 C15.9880036,47.024497 16.1553424,46.7456357 16.1025054,46.4615679 L13.034132,28.8857494 C12.9902098,28.6813576 12.8382649,28.5172057 12.6378501,28.4576307 C12.4374352,28.3980558 12.2204792,28.452549 12.0720149,28.5997524 L7.65147692,33.2017048 L3.88101807,25.6097832 C3.76167638,25.4447887 3.56360736,25.3556694 3.36095479,25.3757857 L3.36095479,25.3757857 Z M7.31343578,34.8136882 C7.49358441,34.8435087 7.67714748,34.7855491 7.8074959,34.6576898 L12.0200085,30.2637352 L14.2042744,42.769606 L10.979882,36.1396745 C10.8941433,35.9681682 10.7281651,35.8510226 10.5378282,35.8276777 L10.5378282,35.8276777 C10.3799707,35.8283497 10.2294072,35.8942126 10.1217775,36.0096758 L7.15741679,39.2336425 L2.8408915,31.7457199 L1.3067048,28.9897483 L3.2049358,26.987769 L6.94939148,34.5796906 C7.03541145,34.7023458 7.16612351,34.7863639 7.31343578,34.8136882 L7.31343578,34.8136882 Z" id="Shape"></path>
                </g>
                <polygon id="Path-5" fill="#FFFFFF" points="46 128.734476 46 125.11125 53.9835514 127.5596 54.3295895 121 66 129.240885 57.8613548 127.156833 57.8613548 132"></polygon>
                <polygon id="Path-5" fill="#FFFFFF" transform="translate(109.624787, 72.355741) rotate(80.000000) translate(-109.624787, -72.355741) " points="99.3821123 74.6112414 99.3809651 70.9486817 107.559426 73.4261678 107.911802 66.7954675 119.868609 75.1295538 111.531398 73.0202705 111.532931 77.9160153"></polygon>
                <polygon id="Path-3" fill="#FFFFFF" transform="translate(79.855140, 91.285673) rotate(-44.000000) translate(-79.855140, -91.285673) " points="75.1516644 67.4081298 84.1270294 67.7791745 76.9827007 86.6003657 92.9511023 86.5956093 70.9935667 115.163216 77.6364855 94.5460563 66.7591776 94.5480586"></polygon>
                <g id="Group-13" transform="translate(77.991976, 95.491997) rotate(-45.000000) translate(-77.991976, -95.491997) translate(30.491976, 68.991997)" fill="#0057A7" fill-rule="nonzero">
                    <path d="M66.3977392,19.5430265 C66.1780302,19.1209796 65.7218393,18.8538143 65.2224994,18.8547549 L50.6234087,18.8547549 L57.2569848,1.64796541 C57.4016377,1.27138265 57.3423057,0.852083189 57.0979775,0.524261028 C56.8536494,0.196438866 56.4549618,0.00100710028 56.029512,0.00100710028 L46.8887576,0.00100710028 C46.3155635,-0.0022368931 45.8071193,0.346708864 45.6351684,0.861369318 L43.2063394,8.23570767 L43.2063394,8.23570767 L37.0428592,27.8022854 C36.926386,28.1778534 37.0068473,28.5831776 37.2595418,28.8938248 C37.5122363,29.204472 37.9069714,29.3833254 38.3225649,29.3754776 L48.1684632,29.2279909 L39.7589691,50.5152476 C39.540017,51.0873306 39.7984398,51.7241174 40.3668468,52.0131361 C40.9352539,52.3021547 41.6427659,52.156518 42.0310995,51.6705606 L66.2932735,20.8458263 C66.5907509,20.4663819 66.6313397,19.9601959 66.3977392,19.5430265 Z M45.5045862,43.2392337 L51.3807855,28.490557 C51.5254385,28.1139743 51.4661064,27.6946748 51.2217783,27.3668526 C50.9774501,27.0390305 50.5787625,26.8437918 50.1533128,26.8436215 L50.1533128,26.8436215 L40.1768322,27.0156894 L45.8441,9.12062828 L47.9856481,2.65579165 L54.3058269,2.65579165 L47.6722508,19.8625811 C47.5275979,20.2391639 47.5869299,20.6584634 47.8312581,20.9862855 C48.0755863,21.3141077 48.4742739,21.5093464 48.8997236,21.5095167 L62.7675539,21.5095167 L45.5045862,43.2392337 Z" id="Shape"></path>
                    <path d="M74.4358362,42.3421606 L74.6948774,42.3421606 L93.2681281,34.7076128 C93.4915449,34.6057255 93.6334475,34.3925491 93.6334475,34.1588035 C93.6334475,33.9250579 93.4915449,33.7118815 93.2681281,33.6099941 L87.0252363,30.1707889 L94.3820051,24.3899971 C94.5555405,24.2759416 94.6589437,24.089242 94.6589437,23.8899709 C94.6589437,23.6906997 94.5555405,23.5040001 94.3820051,23.3899446 L90.4704837,21.2434902 C90.2456591,21.092764 89.9440889,21.092764 89.7192643,21.2434902 L86.740291,23.828992 L86.740291,23.828992 L78.9690564,30.7561855 C78.8059862,30.8713467 78.7100153,31.0520808 78.7100153,31.2440161 C78.7100153,31.4359514 78.8059862,31.6166854 78.9690564,31.7318466 L83.2432355,33.975867 L74.0213704,41.1469758 C73.8161714,41.3121826 73.7413484,41.5799242 73.8336126,41.8188354 C73.9258769,42.0577465 74.165868,42.2176948 74.4358362,42.220203 L74.4358362,42.3421606 Z M84.7974824,34.4636976 C84.9710178,34.349642 85.074421,34.1629424 85.074421,33.9636713 C85.074421,33.7644001 84.9710178,33.5777005 84.7974824,33.463645 L80.4714951,31.195233 L87.5692227,24.9510023 L90.1596343,22.6825903 L92.7500458,24.1704734 L85.5487017,29.8293075 C85.3751664,29.9433631 85.2717631,30.1300627 85.2717631,30.3293338 C85.2717631,30.528605 85.3751664,30.7153046 85.5487017,30.8293601 L91.4807442,34.0978247 L78.3732618,39.5859181 L84.7974824,34.4636976 Z" id="Shape"></path>
                    <path d="M3.33996815,23.942821 C3.15630779,23.9164298 2.97121598,23.9812357 2.84947161,24.1145578 L0.113017187,26.8623456 C-0.0333318596,27.052228 -0.0333318596,27.3103425 0.113017187,27.5002249 L1.84266291,30.4442833 L1.84266291,30.4442833 L6.5152879,38.1969703 C6.62270886,38.3309704 6.78980262,38.4096223 6.96706104,38.4096223 C7.14431946,38.4096223 7.31141322,38.3309704 7.41883418,38.1969703 L10.3101822,35.2038443 L14.9053604,44.1586885 C15.0040609,44.3425832 15.2044879,44.4568684 15.4216726,44.453185 L15.6023818,44.453185 C15.87594,44.370939 16.0420719,44.1078004 15.9896159,43.8397488 L12.9433742,27.2548867 C12.8997688,27.0620188 12.7489199,26.9071221 12.5499507,26.8509061 C12.3509814,26.7946901 12.1355902,26.8461109 11.9881967,26.9850147 L7.59954343,31.3275008 L3.85628031,24.1636254 C3.7377994,24.0079335 3.54115902,23.923839 3.33996815,23.942821 L3.33996815,23.942821 Z M7.26394053,32.8485976 C7.44278977,32.8767368 7.62502883,32.822045 7.75443708,32.7013947 L11.9365655,28.5551791 L14.1050766,40.3559464 L10.9039412,34.0998224 C10.818821,33.9379859 10.65404,33.8274452 10.4650759,33.8054166 L10.4650759,33.8054166 C10.3083571,33.8060507 10.1588795,33.8682001 10.0520262,33.9771533 L7.10904688,37.0193469 L2.823656,29.9536069 L1.30053514,27.353022 L3.18507451,25.4639179 L6.90252202,32.6277932 C6.98792154,32.7435329 7.1176908,32.8228139 7.26394053,32.8485976 L7.26394053,32.8485976 Z" id="Shape"></path>
                </g>
            </g>
        </g>
    </g>
</svg>