<?xml version="1.0" encoding="UTF-8"?>
<svg width="260px" height="205px" viewBox="0 0 260 205" version="1.1" xmlns="http://www.w3.org/2000/svg" xmlns:xlink="http://www.w3.org/1999/xlink">
    <title>No sites yet</title>
    <g id="Gateway-configuration_New" stroke="none" stroke-width="1" fill="none" fill-rule="evenodd">
        <g id="Sites-failed-to-load-Copy" transform="translate(-58.000000, -206.000000)">
            <g id="No-sites-yet" transform="translate(58.000000, 206.000000)">
                <polygon id="Path-6" fill="#FFFFFF" points="7 200 252 200 179.021277 69.0442478 136.450355 140.159292 82.5851064 4"></polygon>
                <g id="noun_holiday_2848085" transform="translate(0.000000, 0.000000)">
                    <path d="M64.9113619,62.864565 L87.6065693,10.1292434 C87.9340526,9.3682926 88.8164028,9.01689772 89.5773536,9.34438102 C89.9273765,9.4950171 90.206948,9.77322296 90.3592961,10.1225041 L116.057351,69.0391695 C116.388557,69.7985077 116.041487,70.6825679 115.282148,71.0137733 C114.945809,71.1604763 114.567362,71.1788052 114.218421,71.0652915 L98.923412,66.0896943 C98.6143254,65.9891458 98.2809418,65.9917136 97.9734407,66.0970112 L81.0396158,71.8956618 C80.662363,72.0248445 80.2491989,71.998498 79.8914104,71.8224433 L65.6269239,64.8034123 C64.9102131,64.4507452 64.5955985,63.598283 64.9113619,62.864565 Z" id="Path-8" fill="#AECFEF"></path>
                    <path d="M162.326173,108.499202 L185.563772,70.8961414 C185.854104,70.4263267 186.470325,70.2808271 186.940139,70.571159 C187.077394,70.6559783 187.192086,70.7727498 187.274427,70.9115057 L213.523659,115.145429 C213.805505,115.620382 213.648961,116.23389 213.174007,116.515736 C212.941405,116.653767 212.66281,116.691689 212.401777,116.620851 L195.852846,112.129885 C195.672691,112.080996 195.482449,112.083508 195.303648,112.137138 L178.569535,117.15638 C178.332261,117.227549 178.077017,117.208117 177.853251,117.101849 L162.74786,109.928204 C162.248975,109.691281 162.036614,109.094791 162.273537,108.595906 C162.289293,108.562729 162.306865,108.530445 162.326173,108.499202 Z" id="Path-8-Copy" stroke="#98C0DB" fill="#AECFEF" stroke-linejoin="round"></path>
                    <g id="Group" fill="#0057A7" fill-rule="nonzero">
                        <path d="M133.783784,34.5263158 C133.837838,34.5263158 138.108108,33.2855263 141.621622,35.7131579 C144.810811,37.925 146.702703,42.6723684 147.081081,49.4157895 C147.189189,50.8723684 148.378378,51.9513158 149.783784,51.9513158 C149.837838,51.9513158 149.891892,51.9513158 149.945946,51.9513158 C150.216216,51.9513158 150.432432,51.8973684 150.648649,51.7894737 C150.864865,51.8434211 151.135135,51.9513158 151.351351,51.9513158 C151.405405,51.9513158 151.459459,51.9513158 151.513514,51.9513158 C152.918919,51.9513158 154.108108,50.8723684 154.216216,49.4157895 C154.648649,42.6184211 156.540541,37.8710526 159.675676,35.7131579 C163.189189,33.2855263 167.405405,34.4723684 167.513514,34.5263158 C168.918919,34.9578947 170.432432,34.2026316 170.864865,32.7460526 C171.297297,31.3434211 170.540541,29.8328947 169.081081,29.3473684 C168.810811,29.2394737 162.324324,27.2973684 156.594595,31.1815789 C153.891892,33.0157895 151.891892,35.8210526 150.540541,39.4894737 C149.189189,35.8210526 147.189189,33.0697368 144.486486,31.1815789 C138.756757,27.2434211 132.27027,29.2394737 132,29.3473684 C130.594595,29.7789474 129.783784,31.2894737 130.216216,32.6921053 C130.864865,34.2026316 132.378378,34.9578947 133.783784,34.5263158 Z" id="Path"></path>
                        <path d="M182.432432,47.3118421 C182.486486,47.3118421 186.756757,46.0710526 190.27027,48.4986842 C193.459459,50.7105263 195.351351,55.4578947 195.72973,62.2013158 C195.837838,63.6578947 197.027027,64.7368421 198.432432,64.7368421 C198.486486,64.7368421 198.540541,64.7368421 198.594595,64.7368421 C198.864865,64.7368421 199.081081,64.6828947 199.297297,64.575 C199.513514,64.6289474 199.783784,64.7368421 200,64.7368421 C200.054054,64.7368421 200.108108,64.7368421 200.162162,64.7368421 C201.567568,64.7368421 202.756757,63.6578947 202.864865,62.2013158 C203.297297,55.4039474 205.189189,50.6565789 208.324324,48.4986842 C211.837838,46.0710526 216.054054,47.2578947 216.162162,47.3118421 C217.567568,47.7434211 219.081081,46.9881579 219.513514,45.5315789 C219.945946,44.1289474 219.189189,42.6184211 217.72973,42.1328947 C217.459459,42.025 210.972973,40.0828947 205.243243,43.9671053 C202.540541,45.8013158 200.540541,48.6065789 199.189189,52.275 C197.837838,48.6065789 195.837838,45.8552632 193.135135,43.9671053 C187.405405,40.0289474 180.918919,42.025 180.648649,42.1328947 C179.243243,42.5644737 178.432432,44.075 178.864865,45.4776316 C179.513514,46.9342105 181.027027,47.7434211 182.432432,47.3118421 Z" id="Path"></path>
                        <path d="M259.621622,200.953947 L209.72973,115.177632 C209.675676,115.069737 209.621622,114.907895 209.513514,114.8 L181.135135,66.0855263 C180.648649,65.2763158 179.783784,64.7368421 178.810811,64.7368421 C177.837838,64.7368421 176.972973,65.2223684 176.486486,66.0855263 L153.297297,105.952632 L136.594595,134.652632 L109.675676,66.1934211 C109.621622,66.0315789 109.567568,65.9236842 109.513514,65.8157895 L84.2702703,1.72631579 C83.8378378,0.701315789 82.8648649,0 81.7297297,0 C80.5945946,0 79.6216216,0.701315789 79.1891892,1.72631579 L56.8648649,58.425 L56.8648649,58.425 L0.648648649,201.331579 C0.324324324,202.140789 0.432432432,203.111842 0.918918919,203.813158 C1.40540541,204.568421 2.27027027,205 3.13513514,205 L100.162162,205 L257.297297,205 C258.27027,205 259.135135,204.460526 259.621622,203.651316 C260.108108,202.788158 260.108108,201.763158 259.621622,200.953947 Z M178.810811,72.8289474 L201.567568,111.940789 L187.783784,108.002632 C187.243243,107.840789 186.702703,107.840789 186.162162,108.056579 L171.081081,113.073684 L159.243243,106.330263 L178.810811,72.8289474 Z M81.7297297,10.0881579 L102.486486,62.9026316 L90.4324324,59.45 C89.8918919,59.2881579 89.3513514,59.2881579 88.8108108,59.5039474 L73.7297297,64.5210526 L62.7567568,58.2631579 L81.7297297,10.0881579 Z M98.7567568,199.605263 L7.18918919,199.605263 L60.8108108,63.2802632 L72.1621622,69.7539474 C72.3243243,69.8618421 72.4864865,69.9157895 72.6486486,69.9697368 C72.7027027,69.9697368 72.7027027,69.9697368 72.7567568,70.0236842 C72.9189189,70.0776316 73.0810811,70.0776316 73.2432432,70.1315789 C73.2972973,70.1315789 73.2972973,70.1315789 73.3513514,70.1315789 C73.4054054,70.1315789 73.5135135,70.1315789 73.5675676,70.1315789 C73.6216216,70.1315789 73.6756757,70.1315789 73.7837838,70.1315789 C73.8378378,70.1315789 73.8918919,70.1315789 73.9459459,70.1315789 C74.1081081,70.1315789 74.2702703,70.0776316 74.4324324,70.0236842 L89.8378378,64.8986842 L105.027027,69.2144737 L133.135135,140.640789 L98.7567568,199.605263 Z M104.972973,199.605263 L156.540541,110.969737 L169.459459,118.306579 C170.108108,118.684211 170.918919,118.792105 171.675676,118.522368 L187.081081,113.397368 L205.459459,118.630263 L252.594595,199.551316 L104.972973,199.551316 L104.972973,199.605263 Z" id="Shape"></path>
                    </g>
                </g>
            </g>
        </g>
    </g>
</svg>