<?xml version="1.0" encoding="UTF-8"?>
<svg width="38px" height="38px" viewBox="0 0 38 38" version="1.1" xmlns="http://www.w3.org/2000/svg" xmlns:xlink="http://www.w3.org/1999/xlink">
    <title>Occupied icon big</title>
    <defs>
        <path d="M3,0 L3,36 L25.5,36 L33,36 L33,10.5 L25.5,10.5 L25.5,0 L3,0 Z M0,34.5 L3,34.5 L3,36 L0,36 L0,34.5 Z M33,34.50045 L36,34.50045 L36,36.00045 L33,36.00045 L33,34.50045 Z M4.5,1.5 L24,1.5 L24,34.5 L4.5,34.5 L4.5,1.5 Z M25.5,34.5 L31.5,34.5 L31.5,12 L25.5,12 L25.5,34.5 Z" id="path-1"></path>
    </defs>
    <g id="Discussion" stroke="none" stroke-width="1" fill="none" fill-rule="evenodd">
        <g id="schedule_icon-copy" transform="translate(1.000000, 1.000000)">
            <g id="Occupied-icon-big" transform="translate(0.000000, 0.000000)">
                <mask id="mask-2" fill="white">
                    <use xlink:href="#path-1"></use>
                </mask>
                <use id="Mask" stroke="#909090" stroke-width="0.5" fill="#909090" xlink:href="#path-1"></use>
                <g id="编组-2" transform="translate(7.200000, 5.760432)" fill="#0057A7" fill-rule="nonzero">
                    <circle id="Combined-Shape" transform="translate(7.056000, 2.352000) scale(-1, 1) translate(-7.056000, -2.352000) " cx="7.056" cy="2.352" r="2.352"></circle>
                    <path d="M11.7599816,6.272 L2.35201838,6.272 C1.05305288,6.272 0,7.32741035 0,8.62928385 L0,15.7010801 C0,16.4821821 0.631787625,17.1154394 1.4112,17.1154394 C2.19055725,17.1154394 2.8224,16.4822374 2.8224,15.7010801 L2.8224,9.57215318 L3.76321838,9.57215318 L3.76321838,26.5444643 C3.76321838,27.3255663 4.39506113,27.9588235 5.17441838,27.9588235 C5.95377563,27.9588235 6.58561838,27.3256215 6.58561838,26.5444643 L6.58561838,17.1153841 L7.52643675,17.1153841 L7.52643675,26.5444643 C7.52643675,27.3255663 8.1582795,27.9588235 8.93763675,27.9588235 C9.716994,27.9588235 10.3488368,27.3256215 10.3488368,26.5444643 L10.3488368,9.57215318 L11.2896,9.57215318 L11.2896,15.7010249 C11.2896,16.4821269 11.9214428,17.1153841 12.7008,17.1153841 C13.4801573,17.1153841 14.112,16.4821821 14.112,15.7010249 L14.112,8.6292286 C14.112,7.3273551 13.0590023,6.272 11.7599816,6.272 Z" id="路径"></path>
                </g>
            </g>
        </g>
    </g>
</svg>