<?xml version="1.0" encoding="UTF-8"?>
<svg width="20px" height="22px" viewBox="0 0 20 22" version="1.1" xmlns="http://www.w3.org/2000/svg" xmlns:xlink="http://www.w3.org/1999/xlink">
    <title>On@3x</title>
    <defs>
        <filter id="filter-1">
            <feColorMatrix in="SourceGraphic" type="matrix" values="0 0 0 0 0.430027 0 0 0 0 0.430027 0 0 0 0 0.430027 0 0 0 1.000000 0"></feColorMatrix>
        </filter>
    </defs>
    <g id="Master" stroke="none" stroke-width="1" fill="none" fill-rule="evenodd">
        <g id="On">
            <g filter="url(#filter-1)" id="noun_switch_3233508">
                <g>
                    <g id="Group" fill="#000000" fill-rule="nonzero">
                        <path d="M13.4408353,3.26914153 C13.8515081,3.45475638 14.2482599,3.66589327 14.6287703,3.90719258 C14.8213457,4.03016241 15.0116009,4.16009281 15.1948956,4.29698376 C15.2412993,4.33178654 15.4013921,4.45939675 15.2111369,4.3062645 C15.2529002,4.34106729 15.2969838,4.37354988 15.3387471,4.40835267 C15.4269142,4.48027842 15.5150812,4.55452436 15.6009281,4.6287703 C15.937355,4.92111369 16.2529002,5.23897912 16.5452436,5.57540603 C16.612529,5.65429234 16.6798144,5.73317865 16.7447796,5.81438515 C16.7795824,5.85614849 16.812065,5.90023202 16.8468677,5.94199536 C16.6890951,5.74477958 16.8422274,5.93735499 16.8770302,5.9837587 C17.0092807,6.16473318 17.136891,6.34802784 17.2552204,6.53828306 C17.5290023,6.96983759 17.7656613,7.42459397 17.9651972,7.89327146 C17.9419954,7.83758701 17.9187935,7.78190255 17.8955916,7.7262181 C18.2134571,8.48259861 18.4292343,9.27610209 18.5382831,10.0881671 C18.5290023,10.025522 18.5220418,9.96519722 18.512761,9.9025522 C18.6218097,10.7331787 18.6218097,11.5730858 18.5104408,12.4037123 C18.5197216,12.3410673 18.5266821,12.2807425 18.5359629,12.2180974 C18.424594,13.025522 18.2111369,13.8143852 17.8955916,14.5638051 C17.9187935,14.5081206 17.9419954,14.4524362 17.9651972,14.3967517 C17.7819026,14.8306265 17.5684455,15.2482599 17.3225058,15.649652 C17.199536,15.8491879 17.0696056,16.0440835 16.9327146,16.2320186 C16.9025522,16.2737819 16.8723898,16.3132251 16.8422274,16.3549884 C16.8236659,16.3781903 16.8051044,16.4037123 16.7865429,16.4269142 C16.712297,16.5266821 16.8979118,16.2853828 16.8213457,16.3828306 C16.74942,16.4733179 16.675174,16.5638051 16.6009281,16.6542923 C16.3039443,17.0046404 15.9791183,17.3341067 15.6334107,17.638051 C15.549884,17.712297 15.4640371,17.7842227 15.3781903,17.8538283 C15.3387471,17.8863109 15.2993039,17.9164733 15.2598608,17.9489559 C15.2204176,17.9814385 15.1206497,18.0533643 15.3039443,17.9141531 C15.2714617,17.937355 15.2389791,17.962877 15.2064965,17.9883991 C15.0232019,18.12529 14.8352668,18.2552204 14.6426914,18.3781903 C14.199536,18.6612529 13.7331787,18.9071926 13.2482599,19.1113689 C13.3039443,19.0881671 13.3596288,19.0649652 13.4153132,19.0417633 C12.6635731,19.3573086 11.87471,19.5707657 11.0696056,19.6821346 C11.1322506,19.6728538 11.1925754,19.6658933 11.2552204,19.6566125 C10.4222738,19.7679814 9.57772622,19.7679814 8.74477958,19.6566125 C8.80742459,19.6658933 8.86774942,19.6728538 8.93039443,19.6821346 C8.12296984,19.5707657 7.33410673,19.3573086 6.58468677,19.0417633 C6.64037123,19.0649652 6.69605568,19.0881671 6.75174014,19.1113689 C6.31786543,18.9280742 5.90023202,18.7146172 5.49883991,18.4686775 C5.29930394,18.3457077 5.10440835,18.2157773 4.91647332,18.0788863 C4.87470998,18.0487239 4.83526682,18.0185615 4.79350348,17.9883991 C4.77030162,17.9698376 4.74477958,17.9512761 4.72157773,17.9327146 C4.62180974,17.8584687 4.86310905,18.0440835 4.76566125,17.9675174 C4.67517401,17.8955916 4.58468677,17.8213457 4.49419954,17.7470998 C4.14385151,17.450116 3.81438515,17.12529 3.51044084,16.7795824 C3.4361949,16.6960557 3.36426914,16.6102088 3.29466357,16.5243619 C3.26218097,16.4849188 3.23201856,16.4454756 3.19953596,16.4060325 C3.16705336,16.3665893 3.09512761,16.2668213 3.23433875,16.450116 C3.21113689,16.4176334 3.18561485,16.3851508 3.16009281,16.3526682 C3.02320186,16.1693735 2.89327146,15.9814385 2.77030162,15.7888631 C2.48723898,15.3457077 2.2412993,14.8793503 2.03712297,14.3944316 C2.06032483,14.450116 2.08352668,14.5058005 2.10672854,14.5614849 C1.79118329,13.8097448 1.57772622,13.0208817 1.46635731,12.2157773 C1.47563805,12.2784223 1.48259861,12.3387471 1.49187935,12.4013921 C1.38051044,11.5707657 1.38051044,10.7308585 1.48955916,9.90023202 C1.48027842,9.96287703 1.47331787,10.0232019 1.46403712,10.0858469 C1.57540603,9.2737819 1.79118329,8.48027842 2.10672854,7.72389791 C2.08352668,7.77958237 2.06032483,7.83526682 2.03712297,7.89095128 C2.21345708,7.47563805 2.41763341,7.07424594 2.65197216,6.68909513 C2.77030162,6.49187935 2.89791183,6.30162413 3.03016241,6.1136891 C3.09280742,6.02552204 3.15313225,5.93271462 3.225058,5.85150812 C3.225058,5.85150812 3.11136891,5.99767981 3.17633411,5.91415313 C3.19721578,5.88863109 3.21577726,5.86310905 3.23665893,5.83758701 C3.2737819,5.79118329 3.31090487,5.74477958 3.35034803,5.69837587 C3.63573086,5.3549884 3.94663573,5.0324826 4.27842227,4.73549884 C4.44547564,4.58700696 4.61716937,4.44547564 4.79118329,4.3062645 C4.59860789,4.46171694 4.76334107,4.32714617 4.80742459,4.29698376 C4.85150812,4.26450116 4.89559165,4.23201856 4.93967517,4.19953596 C5.0324826,4.13225058 5.12761021,4.06728538 5.22273782,4.00464037 C5.64733179,3.72157773 6.09512761,3.47563805 6.56148492,3.26682135 C6.7099768,3.19953596 6.83990719,3.00232019 6.88167053,2.85150812 C6.92807425,2.68445476 6.90719258,2.46403712 6.81206497,2.31554524 C6.71693735,2.16705336 6.57308585,2.03712297 6.39675174,1.99535963 C6.20417633,1.9512761 6.03944316,1.9837587 5.86078886,2.0649652 C4.19953596,2.81206497 2.78422274,4.0324826 1.75406032,5.52204176 C0.700696056,7.04408353 0.109048724,8.86774942 0.0232018561,10.712297 C-0.0580046404,12.4709977 0.345707657,14.2389791 1.16009281,15.7981439 C1.94199536,17.2946636 3.12064965,18.5707657 4.52436195,19.5011601 C5.9675174,20.4570766 7.65893271,21.0023202 9.38283063,21.1160093 C11.1392111,21.2320186 12.9095128,20.8561485 14.4849188,20.0742459 C15.9930394,19.324826 17.2830626,18.1716937 18.2412993,16.7911833 C19.2296984,15.3665893 19.8027842,13.6844548 19.9535963,11.9605568 C20.1136891,10.1160093 19.7262181,8.23897912 18.8886311,6.59164733 C18.0696056,4.97911833 16.7842227,3.60556845 15.25058,2.65197216 C14.8955916,2.43155452 14.5266821,2.23665893 14.1461717,2.0649652 C13.9698376,1.98607889 13.8027842,1.94199536 13.6102088,1.99535963 C13.4477958,2.03944316 13.2737819,2.16473318 13.1948956,2.31554524 C13.0301624,2.62180974 13.0858469,3.10904872 13.4408353,3.26914153 L13.4408353,3.26914153 Z" id="Path"></path>
                        <path d="M9.30394432,0.719257541 C9.30394432,1.51740139 9.30394432,2.31322506 9.30394432,3.11136891 C9.30394432,4.38283063 9.30394432,5.65429234 9.30394432,6.92575406 C9.30394432,7.21809745 9.30394432,7.51044084 9.30394432,7.80278422 C9.30394432,8.16705336 9.62412993,8.51508121 10,8.49883991 C10.3781903,8.48259861 10.6960557,8.19257541 10.6960557,7.80278422 C10.6960557,7.00464037 10.6960557,6.20881671 10.6960557,5.41067285 C10.6960557,4.13921114 10.6960557,2.86774942 10.6960557,1.5962877 C10.6960557,1.30394432 10.6960557,1.01160093 10.6960557,0.719257541 C10.6960557,0.354988399 10.3758701,0.00696055684 10,0.0232018561 C9.62180974,0.0394431555 9.30394432,0.329466357 9.30394432,0.719257541 L9.30394432,0.719257541 Z" id="Path"></path>
                    </g>
                </g>
            </g>
        </g>
    </g>
</svg>