<?xml version="1.0" encoding="UTF-8"?>
<svg width="49px" height="49px" viewBox="0 0 49 49" version="1.1" xmlns="http://www.w3.org/2000/svg" xmlns:xlink="http://www.w3.org/1999/xlink">
    <title>Group 34</title>
    <defs>
        <filter color-interpolation-filters="auto" id="filter-1">
            <feColorMatrix in="SourceGraphic" type="matrix" values="0 0 0 0 0.000000 0 0 0 0 0.341176 0 0 0 0 0.654902 0 0 0 1.000000 0"></feColorMatrix>
        </filter>
        <path d="M36.687,11.2945529 C40.113,14.6924315 42,19.2159509 42,24.0373461 C42,33.9420874 33.9255,41.9997 24,41.9997 C14.0745,41.9997 6,33.9420874 6,24.0373461 C6,19.2204415 7.8855,14.6954252 11.31,11.2990435 L11.31,11.2990435 L12.3675,12.3603192 C9.228,15.4752907 7.5,19.6216008 7.5,24.0373461 C7.5,33.1158191 14.9025,40.5028372 24,40.5028372 C33.0975,40.5028372 40.5,33.1158191 40.5,24.0373461 C40.5,19.618607 38.7705,15.4693033 35.6295,12.3558286 L35.6295,12.3558286 Z M24.7455,5.9997 L24.7455,25.5547159 L23.2455,25.5547159 L23.2455,5.9997 L24.7455,5.9997 Z" id="path-2"></path>
    </defs>
    <g id="HotWaterSystem" stroke="none" stroke-width="1" fill="none" fill-rule="evenodd">
        <g id="Group-34" transform="translate(0.250000, 0.500000)">
            <circle id="Oval" fill-opacity="0.71" fill="#82B3E0" cx="25.75" cy="26.5" r="17"></circle>
            <g id="Actions-/-Power-/-24px-Copy" filter="url(#filter-1)">
                <g>
                    <mask id="mask-3" fill="white">
                        <use xlink:href="#path-2"></use>
                    </mask>
                    <use id="Mask" fill="#303030" xlink:href="#path-2"></use>
                    <g id="Group" mask="url(#mask-3)" fill="#303030">
                        <g id="*Style*-/-Color-/-Action-/-Secondary">
                            <rect id="Light-Theme" x="0" y="0" width="48" height="48"></rect>
                        </g>
                    </g>
                </g>
            </g>
        </g>
    </g>
</svg>