<?xml version="1.0" encoding="UTF-8"?>
<svg width="24px" height="24px" viewBox="0 0 24 24" version="1.1" xmlns="http://www.w3.org/2000/svg" xmlns:xlink="http://www.w3.org/1999/xlink">
    <title>Icon / password / noshow</title>
    <defs>
        <path d="M19.5,3.79289322 L20.2071068,4.5 L17.7409464,6.96452957 C18.9715472,8.02351407 20.5638526,9.70186752 22.5287247,12.006095 L22.2839188,12.2150126 C19.8648326,15.1225972 18.0852781,16.9865308 16.803827,17.833192 C15.4564764,18.7233932 13.7256245,19.2067873 11.7874066,19.2067873 C10.0238533,19.2344231 8.27215599,18.764554 6.81762003,17.8905025 L4.5,20.2071068 L3.79289322,19.5 L5.98717092,17.3062057 C4.77146209,16.3238057 3.41429591,14.6985867 1.76233637,12.3636298 L1.51094247,12.006095 L1.51994247,11.9974562 L1.51094247,11.9912664 C3.66819761,9.15077944 5.46519161,7.24821077 6.92336656,6.27509554 C8.40998942,5.28299555 10.0749961,4.80104061 11.8963436,4.83184413 C13.8555025,4.83184413 15.5222907,5.31429722 16.8822067,6.28386807 L16.9559425,6.33689322 L19.5,3.79289322 Z M17.0318399,7.67358218 L15.1603774,9.54775533 C15.6866373,10.2250035 16,11.0759068 16,12 C16,14.209139 14.209139,16 12,16 C11.0759068,16 10.2250035,15.6866373 9.54775533,15.1603774 L7.57094247,17.1358932 L7.63506398,17.173318 C8.87564814,17.8722713 10.2823656,18.2302731 11.7874066,18.2067394 C13.5466669,18.2066783 15.0147736,17.7818892 16.1891283,17.0059872 C17.3005259,16.2716812 19.0125504,14.5637863 21.1911715,11.986352 C19.4869448,10.0207326 18.0975003,8.58158202 17.0318399,7.67358218 Z M11.8879081,5.83177297 C10.2600424,5.80430532 8.79476252,6.22844708 7.47846105,7.10688284 C6.23755922,7.93500053 4.66787459,9.55939824 2.78625542,11.9734246 C4.31566176,14.1075747 5.63247768,15.6683329 6.73265709,16.5607337 L8.83977306,14.4524382 C8.31342241,13.7751587 8,12.9241812 8,12 C8,9.790861 9.790861,8 12,8 C12.9241812,8 13.7751587,8.31342241 14.4524382,8.83977306 L16.2379425,7.05489322 L16.0615462,6.93517355 C14.9233202,6.20088447 13.5383237,5.83183939 11.8879081,5.83177297 Z M14.4454611,10.2618552 L10.2618552,14.4454611 C10.752242,14.7946387 11.3521387,15 12,15 C13.6568542,15 15,13.6568542 15,12 C15,11.3521387 14.7946387,10.752242 14.4454611,10.2618552 Z M12,9 C10.3431458,9 9,10.3431458 9,12 C9,12.6478836 9.20537542,13.2477991 9.55457487,13.7381953 L13.7381953,9.55457487 C13.2477991,9.20537542 12.6478836,9 12,9 Z" id="path-1"></path>
    </defs>
    <g id="Icon-/-password-/-noshow" stroke="none" stroke-width="1" fill="none" fill-rule="evenodd">
        <g id="Icon-/-Eyeball-No-Show-/-24px">
            <mask id="mask-2" fill="white">
                <use xlink:href="#path-1"></use>
            </mask>
            <use id="Combined-Shape" fill="#727272" fill-rule="nonzero" xlink:href="#path-1"></use>
            <g id="Color-/-primary" mask="url(#mask-2)" fill="#0057A7" fill-rule="evenodd">
                <g transform="translate(-5.000000, -5.000000)" id="tint">
                    <rect x="0" y="0" width="34" height="34"></rect>
                </g>
            </g>
        </g>
    </g>
</svg>