<?xml version="1.0" encoding="UTF-8"?>
<svg width="24px" height="24px" viewBox="0 0 24 24" version="1.1" xmlns="http://www.w3.org/2000/svg" xmlns:xlink="http://www.w3.org/1999/xlink">
    <title>Icon / password / show</title>
    <defs>
        <path d="M11.8963436,4.83184413 C13.8555025,4.83184413 15.5222907,5.31429722 16.8822067,6.28386807 C18.195407,7.22013233 20.0704896,9.12329512 22.5287247,12.006095 L22.2614961,12.2337206 C19.8470033,15.1232073 18.0080307,16.8468546 16.7293745,17.6916692 C15.3820239,18.5818705 13.7334419,19.1888946 11.795224,19.1888946 C9.99350716,19.2171285 8.34661563,18.6105418 6.87387939,17.6997487 C5.46970974,16.8313596 3.80072748,15.1566641 1.79921294,12.348247 L1.58894247,12.0494562 L1.51094247,11.9912664 C3.66819761,9.15077944 5.46519161,7.24821077 6.92336656,6.27509554 C8.40998942,5.28299555 10.0749961,4.80104061 11.8963436,4.83184413 Z M11.8879081,5.83177297 C10.2600424,5.80430532 8.79476252,6.22844708 7.47846105,7.10688284 C6.21852333,7.94770416 4.61963815,9.60942333 2.69944109,12.0850782 C4.73576785,14.5958428 6.11750109,16.2377185 7.31557105,16.9786481 C8.62362762,17.7875973 10.1744105,18.2350171 11.795224,18.2096731 C13.5544843,18.209612 15.0817715,17.7545501 16.2561261,16.9786481 C17.370035,16.2426829 19.0102843,14.5605204 21.1839824,11.9782624 C19.0624578,9.5316986 17.4291707,7.90196935 16.3016815,7.09811031 C15.1198226,6.25548774 13.6562105,5.83184413 11.8879081,5.83177297 Z M12,8 C14.209139,8 16,9.790861 16,12 C16,14.209139 14.209139,16 12,16 C9.790861,16 8,14.209139 8,12 C8,9.790861 9.790861,8 12,8 Z M12,9 C10.3431458,9 9,10.3431458 9,12 C9,13.6568542 10.3431458,15 12,15 C13.6568542,15 15,13.6568542 15,12 C15,10.3431458 13.6568542,9 12,9 Z" id="path-1"></path>
    </defs>
    <g id="Icon-/-password-/-show" stroke="none" stroke-width="1" fill="none" fill-rule="evenodd">
        <g id="Icon-/-Eyeball-Show-/-24px">
            <mask id="mask-2" fill="white">
                <use xlink:href="#path-1"></use>
            </mask>
            <use id="Combined-Shape" fill="#727272" fill-rule="nonzero" opacity="0.557082403" xlink:href="#path-1"></use>
            <g id="Color-/-primary" mask="url(#mask-2)" fill="#0057A7" fill-rule="evenodd">
                <g transform="translate(-5.000000, -5.000000)" id="tint">
                    <rect x="0" y="0" width="34" height="34"></rect>
                </g>
            </g>
        </g>
    </g>
</svg>