<?xml version="1.0" encoding="UTF-8"?>
<svg width="135px" height="163px" viewBox="0 0 135 163" version="1.1" xmlns="http://www.w3.org/2000/svg" xmlns:xlink="http://www.w3.org/1999/xlink">
    <title>Group 67</title>
    <g id="Master" stroke="none" stroke-width="1" fill="none" fill-rule="evenodd">
        <g id="Privacy-Copy" transform="translate(-106.000000, -108.000000)">
            <g id="Group-67" transform="translate(106.000000, 110.000000)">
                <g id="Group-66" transform="translate(0.000000, 91.000000)" stroke="#0057A7" stroke-width="3">
                    <rect id="Rectangle" fill="#FFFFFF" x="1.5" y="27.9" width="49" height="40" rx="4.8"></rect>
                    <path d="M25.6,0 C35.2,0 40.2666667,4.83555556 40.8,14.5066667 L40.8,27.2 L32,27.2 L32,16.96 C32,12.1555556 29.9546296,9.70328704 25.8638889,9.60319444 L25.6,9.6 C21.3333333,9.6 19.2,12.0533333 19.2,16.96 L19.2,16.96 L19.2,27.2 L10.4,27.2 L10.4,14.5066667 C10.9333333,4.83555556 16,0 25.6,0 Z" id="Combined-Shape" fill="#FFFFFF"></path>
                    <circle id="Oval" cx="25.5" cy="52.5" r="3"></circle>
                    <line x1="25.5" y1="57" x2="25.5" y2="62.25" id="Line-26" stroke-linecap="round"></line>
                </g>
                <path d="M59.2352941,157 L124,157 C128.970563,157 133,152.970563 133,148 L133,9 C133,4.02943725 128.970563,-9.13077564e-16 124,0 L43,0 C38.0294373,9.13077564e-16 34,4.02943725 34,9 L34,86 L34,86" id="Path-18" stroke="#0057A7" stroke-width="3" stroke-linecap="round"></path>
                <rect id="Rectangle" stroke="#0057A7" stroke-width="2" x="71" y="14" width="15" height="4" rx="2"></rect>
                <circle id="Oval" stroke="#0057A7" stroke-width="3" cx="84" cy="138" r="9.5"></circle>
                <circle id="Oval-Copy-18" stroke="#0057A7" stroke-width="3" cx="84" cy="76" r="33.5"></circle>
                <circle id="Oval-Copy-18" fill-opacity="0.4" fill="#0057A7" cx="89" cy="80" r="35"></circle>
                <circle id="Oval" stroke="#0057A7" stroke-width="2" cx="95" cy="16" r="2"></circle>
                <rect id="Rectangle" fill-opacity="0.4" fill="#0057A7" x="72" y="15" width="17" height="6" rx="3"></rect>
                <circle id="Oval" fill-opacity="0.4" fill="#0057A7" cx="97" cy="18" r="3"></circle>
                <rect id="Rectangle" stroke="#0057A7" stroke-width="2" x="71" y="14" width="15" height="4" rx="2"></rect>
                <circle id="Oval" stroke="#0057A7" stroke-width="2" cx="95" cy="16" r="2"></circle>
                <polyline id="Path-19" stroke="#FFFFFF" stroke-width="5" stroke-linecap="round" stroke-linejoin="round" points="70 76 79 85 98 66"></polyline>
            </g>
        </g>
    </g>
</svg>