<?xml version="1.0" encoding="UTF-8"?>
<svg width="50px" height="50px" viewBox="0 0 50 50" version="1.1" xmlns="http://www.w3.org/2000/svg" xmlns:xlink="http://www.w3.org/1999/xlink">
    <title>C77EA098-E7B0-4F57-8049-78EAE4EE8003</title>
    <g id="Splash-Landing-01" stroke="none" stroke-width="1" fill="none" fill-rule="evenodd">
        <g id="NAV-01" transform="translate(-43.000000, -574.000000)">
            <g id="Checkout" transform="translate(18.000000, 549.000000)">
                <g id="Group" transform="translate(25.000000, 25.000000)">
                    <rect id="Rectangle" fill-opacity="0.705228365" fill="#82B3E0" x="5" y="5" width="45" height="45" rx="2"></rect>
                    <g id="noun_QR-Code_2247014" fill="#0057A7" fill-rule="nonzero">
                        <path d="M14.9933941,43.0049875 L2.0132117,43.0049875 L2.0132117,29.9975062 C2.0132117,29.4465988 1.56253891,29 1.00660585,29 C0.45067279,29 0,29.4465988 0,29.9975062 L0,44.0024938 C0,44.5534012 0.45067279,45 1.00660585,45 L14.9933941,45 C15.5493272,45 16,44.5534012 16,44.0024938 C16,43.4515863 15.5493272,43.0049875 14.9933941,43.0049875 Z" id="Path"></path>
                        <path d="M44.0052844,29 C43.4559182,29 43.0105689,29.4465988 43.0105689,29.9975062 L43.0105689,43.0049875 L29.9947156,43.0049875 C29.4453493,43.0049875 29,43.4515863 29,44.0024938 C29,44.5534012 29.4453493,45 29.9947156,45 L44.0052844,45 C44.5546507,45 45,44.5534012 45,44.0024938 L45,29.9975062 C45,29.4465988 44.5546507,29 44.0052844,29 Z" id="Path"></path>
                        <path d="M43.9981215,0 L30.0018785,0 C29.4485563,0 29,0.45252331 29,1.0107391 C29,1.5689549 29.4485563,2.02147821 30.0018785,2.02147821 L42.996243,2.02147821 L42.996243,14.9892609 C42.996243,15.5474767 43.4447992,16 43.9981215,16 C44.5514437,16 45,15.5474767 45,14.9892609 L45,1.0107391 C45,0.45252331 44.5514437,0 43.9981215,0 Z" id="Path"></path>
                        <path d="M1.00282043,16 C1.55666286,16 2.00564086,15.5522847 2.00564086,15 L2.00564086,2 L14.9971796,2 C15.551022,2 16,1.55228475 16,1 C16,0.44771525 15.551022,0 14.9971796,0 L1.00282043,0 C0.448978001,0 0,0.44771525 0,1 L0,15 C0,15.5522847 0.448978001,16 1.00282043,16 Z" id="Path"></path>
                        <path d="M7,7 L7,15 C7,15.5522847 7.44771525,16 8,16 L16,16 C16.5522847,16 17,15.5522847 17,15 L17,7 C17,6.44771525 16.5522847,6 16,6 L8,6 C7.44771525,6 7,6.44771525 7,7 Z M9,8 L15,8 L15,14 L9,14 L9,8 Z" id="Shape"></path>
                        <path d="M29,16 L37,16 C37.5522847,16 38,15.5522847 38,15 L38,7 C38,6.44771525 37.5522847,6 37,6 L29,6 C28.4477153,6 28,6.44771525 28,7 L28,15 C28,15.5522847 28.4477153,16 29,16 Z M30,8 L36,8 L36,14 L30,14 L30,8 Z" id="Shape"></path>
                        <path d="M16,29 L8,29 C7.44771525,29 7,29.4477153 7,30 L7,38 C7,38.5522847 7.44771525,39 8,39 L16,39 C16.5522847,39 17,38.5522847 17,38 L17,30 C17,29.4477153 16.5522847,29 16,29 Z M15,37 L9,37 L9,31 L15,31 L15,37 Z" id="Shape"></path>
                        <rect id="Rectangle" x="10" y="10" width="4" height="4"></rect>
                        <rect id="Rectangle" x="10" y="31" width="4" height="4"></rect>
                        <rect id="Rectangle" x="31" y="10" width="4" height="4"></rect>
                        <polygon id="Path" points="22 15 20 15 20 13 18 13 18 15 18 17 20 17 22 17 24 17 24 15"></polygon>
                        <rect id="Rectangle" x="14" y="18" width="2" height="2"></rect>
                        <rect id="Rectangle" x="17" y="21" width="2" height="2"></rect>
                        <polygon id="Path" points="20 18 18 18 18 20 20 20 22 20 22 18"></polygon>
                        <rect id="Rectangle" x="22" y="21" width="2" height="2"></rect>
                        <polygon id="Path" points="14 25 14 27 16 27 16 25 16 23 14 23"></polygon>
                        <rect id="Rectangle" x="21" y="22" width="2" height="2"></rect>
                        <rect id="Rectangle" x="18" y="25" width="2" height="2"></rect>
                        <polygon id="Path" points="6 25 6 27 8 27 10 27 10 25 8 25"></polygon>
                        <rect id="Rectangle" x="34" y="18" width="2" height="2"></rect>
                        <polygon id="Path" points="35 37 35 39 37 39 39 39 39 37 37 37 37 35 35 35"></polygon>
                        <polygon id="Path" points="28 21 28 19 26 19 26 17 24 17 24 19 24 21 26 21"></polygon>
                        <rect id="Rectangle" x="25" y="29" width="2" height="2"></rect>
                        <rect id="Rectangle" x="22" y="30" width="2" height="2"></rect>
                        <rect id="Rectangle" x="21" y="33" width="2" height="2"></rect>
                        <polygon id="Path" points="22 27 20 27 20 29 18 29 18 31 20 31 22 31 22 29"></polygon>
                        <rect id="Rectangle" x="22" y="25" width="2" height="2"></rect>
                        <rect id="Rectangle" x="37" y="21" width="2" height="2"></rect>
                        <rect id="Rectangle" x="34" y="22" width="2" height="2"></rect>
                        <rect id="Rectangle" x="37" y="25" width="2" height="2"></rect>
                        <polygon id="Path" points="25 14 27 14 27 12 27 10 25 10 25 12"></polygon>
                        <rect id="Rectangle" x="21" y="10" width="2" height="2"></rect>
                        <rect id="Rectangle" x="21" y="37" width="2" height="2"></rect>
                        <rect id="Rectangle" x="18" y="34" width="2" height="2"></rect>
                        <polygon id="Path" points="25 8 25 6 23 6 21 6 21 8 23 8 23 10 25 10"></polygon>
                        <rect id="Rectangle" x="26" y="26" width="2" height="2"></rect>
                        <polygon id="Path" points="28 33 26 33 26 35 24 35 22 35 22 37 24 37 24 39 26 39 26 37 28 37 28 35"></polygon>
                        <polygon id="Path" points="33 32 31 32 31 34 31 36 33 36 33 34 35 34 35 32"></polygon>
                        <rect id="Rectangle" x="29" y="25" width="2" height="2"></rect>
                        <rect id="Rectangle" x="26" y="22" width="2" height="2"></rect>
                        <polygon id="Path" points="32 22 32 20 32 18 30 18 30 20 30 22 30 24 32 24"></polygon>
                        <rect id="Rectangle" x="6" y="21" width="2" height="2"></rect>
                        <rect id="Rectangle" x="29" y="37" width="2" height="2"></rect>
                        <polygon id="Path" points="37 35 39 35 39 33 39 31 37 31 37 33"></polygon>
                        <polygon id="Path" points="13 20 13 18 11 18 9 18 9 20 11 20 11 22 11 24 13 24 13 22 15 22 15 20"></polygon>
                        <polygon id="Path" points="30 27 30 29 32 29 32 31 34 31 36 31 36 29 34 29 34 27 34 25 32 25 32 27"></polygon>
                        <polygon id="Path" points="31 28 29 28 29 30 29 32 31 32 31 30"></polygon>
                    </g>
                </g>
            </g>
        </g>
    </g>
</svg>