<?xml version="1.0" encoding="UTF-8"?>
<svg width="20px" height="13px" viewBox="0 0 20 13" version="1.1" xmlns="http://www.w3.org/2000/svg" xmlns:xlink="http://www.w3.org/1999/xlink">
    <!-- Generator: Sketch 64 (93537) - https://sketch.com -->
    <title>Group 38</title>
    <desc>Created with Sketch.</desc>
    <g id="Master" stroke="none" stroke-width="1" fill="none" fill-rule="evenodd">
        <g id="Group-38" transform="translate(1.000000, 1.000000)">
            <g id="Group" transform="translate(1.000000, 1.000000)" fill="#82B3E0">
                <path d="M16.1604436,6.73767858 C16.0510036,6.71712522 15.97908,6.61354442 15.9996,6.50589366 C16.0646836,6.161981 16.0978473,5.8237663 16.0978473,5.5 C16.0978473,2.48354002 13.5983455,0.0295502139 10.5259418,0.0295502139 C7.99265455,0.0295502139 5.77794545,1.71228027 5.13975273,4.12170388 C5.12524364,4.17624151 5.08772727,4.22263919 5.03653091,4.24848351 C4.98512727,4.27453134 4.92522545,4.27778731 4.87133455,4.25764095 C4.46342182,4.10481349 4.04037818,4.02748402 3.61443273,4.02748402 C1.66482545,4.02748402 0.0785672727,5.58485892 0.0785672727,7.4989669 C0.0785672727,9.41307488 1.66482545,10.9702463 3.61443273,10.9702463 L15.7461055,10.9702463 C16.9458,10.9702463 17.9220545,10.0119713 17.9220545,8.83412132 C17.92164,7.81276177 17.1810545,6.93120576 16.1604436,6.73767858 Z" id="Path"></path>
            </g>
            <g id="Group" stroke="#0057A7" stroke-width="0.5">
                <path d="M16.1604436,6.73767858 C16.0510036,6.71712522 15.97908,6.61354442 15.9996,6.50589366 C16.0646836,6.161981 16.0978473,5.8237663 16.0978473,5.5 C16.0978473,2.48354002 13.5983455,0.0295502139 10.5259418,0.0295502139 C7.99265455,0.0295502139 5.77794545,1.71228027 5.13975273,4.12170388 C5.12524364,4.17624151 5.08772727,4.22263919 5.03653091,4.24848351 C4.98512727,4.27453134 4.92522545,4.27778731 4.87133455,4.25764095 C4.46342182,4.10481349 4.04037818,4.02748402 3.61443273,4.02748402 C1.66482545,4.02748402 0.0785672727,5.58485892 0.0785672727,7.4989669 C0.0785672727,9.41307488 1.66482545,10.9702463 3.61443273,10.9702463 L15.7461055,10.9702463 C16.9458,10.9702463 17.9220545,10.0119713 17.9220545,8.83412132 C17.92164,7.81276177 17.1810545,6.93120576 16.1604436,6.73767858 Z" id="Path"></path>
            </g>
        </g>
    </g>
</svg>