<?xml version="1.0" encoding="UTF-8"?>
<svg width="24px" height="23px" viewBox="0 0 24 23" version="1.1" xmlns="http://www.w3.org/2000/svg" xmlns:xlink="http://www.w3.org/1999/xlink">
    <title>Scan QR_New</title>
    <g id="Master" stroke="none" stroke-width="1" fill="none" fill-rule="evenodd">
        <g id="Scan-QR_New" transform="translate(1.000000, 1.000000)">
            <g id="Group" transform="translate(0.166667, 0.157290)">
                <g id="Group-5" transform="translate(2.583333, 2.578645)">
                    <g id="noun_QR-Code_2247014-(1)" transform="translate(0.060078, 0.059968)" fill="#0057A7" fill-rule="nonzero">
                        <polygon id="Path" points="7.68992248 3.83798309 6.72868217 3.83798309 6.72868217 2.87848732 5.76744186 2.87848732 5.76744186 3.83798309 5.76744186 4.79747886 6.72868217 4.79747886 7.68992248 4.79747886 8.65116279 4.79747886 8.65116279 3.83798309"></polygon>
                        <rect id="Rectangle" x="3.84496124" y="5.75697463" width="1" height="1"></rect>
                        <rect id="Rectangle" x="4.80620155" y="6.71647041" width="1" height="1"></rect>
                        <polygon id="Path" points="6.72868217 5.75697463 5.76744186 5.75697463 5.76744186 6.71647041 6.72868217 6.71647041 7.68992248 6.71647041 7.68992248 5.75697463"></polygon>
                        <rect id="Rectangle" x="7.68992248" y="6.71647041" width="1" height="1"></rect>
                        <polygon id="Path" points="3.84496124 8.63546195 3.84496124 9.59495772 4.80620155 9.59495772 4.80620155 8.63546195 4.80620155 7.67596618 3.84496124 7.67596618"></polygon>
                        <rect id="Rectangle" x="6.72868217" y="7.67596618" width="1" height="1"></rect>
                        <rect id="Rectangle" x="5.76744186" y="8.63546195" width="1" height="1"></rect>
                        <polygon id="Path" points="0 8.63546195 0 9.59495772 0.96124031 9.59495772 1.92248062 9.59495772 1.92248062 8.63546195 0.96124031 8.63546195"></polygon>
                        <rect id="Rectangle" x="13.4573643" y="5.75697463" width="1" height="1"></rect>
                        <polygon id="Path" points="13.4573643 14.3924366 13.4573643 15.3519324 14.4186047 15.3519324 15.379845 15.3519324 15.379845 14.3924366 14.4186047 14.3924366 14.4186047 13.4329408 13.4573643 13.4329408"></polygon>
                        <polygon id="Path" points="10.5736434 6.71647041 10.5736434 5.75697463 9.6124031 5.75697463 9.6124031 4.79747886 8.65116279 4.79747886 8.65116279 5.75697463 8.65116279 6.71647041 9.6124031 6.71647041"></polygon>
                        <rect id="Rectangle" x="8.65116279" y="10.5544535" width="1" height="1"></rect>
                        <rect id="Rectangle" x="7.68992248" y="11.5139493" width="1" height="1"></rect>
                        <rect id="Rectangle" x="6.72868217" y="12.473445" width="1" height="1"></rect>
                        <polygon id="Path" points="7.68992248 9.59495772 6.72868217 9.59495772 6.72868217 10.5544535 5.76744186 10.5544535 5.76744186 11.5139493 6.72868217 11.5139493 7.68992248 11.5139493 7.68992248 10.5544535"></polygon>
                        <rect id="Rectangle" x="7.68992248" y="8.63546195" width="1" height="1"></rect>
                        <rect id="Rectangle" x="14.4186047" y="6.71647041" width="1" height="1"></rect>
                        <rect id="Rectangle" x="13.4573643" y="7.67596618" width="1" height="1"></rect>
                        <rect id="Rectangle" x="14.4186047" y="8.63546195" width="1" height="1"></rect>
                        <polygon id="Path" points="8.65116279 3.83798309 9.6124031 3.83798309 9.6124031 2.87848732 9.6124031 1.91899154 8.65116279 1.91899154 8.65116279 2.87848732"></polygon>
                        <rect id="Rectangle" x="6.72868217" y="1.91899154" width="1" height="1"></rect>
                        <rect id="Rectangle" x="6.72868217" y="14.3924366" width="1" height="1"></rect>
                        <rect id="Rectangle" x="5.76744186" y="13.4329408" width="1" height="1"></rect>
                        <polygon id="Path" points="8.65116279 0.959495772 8.65116279 0 7.68992248 0 6.72868217 0 6.72868217 0.959495772 7.68992248 0.959495772 7.68992248 1.91899154 8.65116279 1.91899154"></polygon>
                        <rect id="Rectangle" x="9.6124031" y="9.59495772" width="1" height="1"></rect>
                        <polygon id="Path" points="10.5736434 12.473445 9.6124031 12.473445 9.6124031 13.4329408 8.65116279 13.4329408 7.68992248 13.4329408 7.68992248 14.3924366 8.65116279 14.3924366 8.65116279 15.3519324 9.6124031 15.3519324 9.6124031 14.3924366 10.5736434 14.3924366 10.5736434 13.4329408"></polygon>
                        <polygon id="Path" points="12.496124 12.473445 11.5348837 12.473445 11.5348837 13.4329408 11.5348837 14.3924366 12.496124 14.3924366 12.496124 13.4329408 13.4573643 13.4329408 13.4573643 12.473445"></polygon>
                        <rect id="Rectangle" x="10.5736434" y="8.63546195" width="1" height="1"></rect>
                        <rect id="Rectangle" x="9.6124031" y="7.67596618" width="1" height="1"></rect>
                        <polygon id="Path" points="12.496124 7.67596618 12.496124 6.71647041 12.496124 5.75697463 11.5348837 5.75697463 11.5348837 6.71647041 11.5348837 7.67596618 11.5348837 8.63546195 12.496124 8.63546195"></polygon>
                        <rect id="Rectangle" x="0" y="6.71647041" width="1" height="1"></rect>
                        <rect id="Rectangle" x="10.5736434" y="14.3924366" width="1" height="1"></rect>
                        <polygon id="Path" points="14.4186047 13.4329408 15.379845 13.4329408 15.379845 12.473445 15.379845 11.5139493 14.4186047 11.5139493 14.4186047 12.473445"></polygon>
                        <polygon id="Path" points="2.88372093 6.71647041 2.88372093 5.75697463 1.92248062 5.75697463 0.96124031 5.75697463 0.96124031 6.71647041 1.92248062 6.71647041 1.92248062 7.67596618 1.92248062 8.63546195 2.88372093 8.63546195 2.88372093 7.67596618 3.84496124 7.67596618 3.84496124 6.71647041"></polygon>
                        <polygon id="Path" points="11.5348837 9.59495772 11.5348837 10.5544535 12.496124 10.5544535 12.496124 11.5139493 13.4573643 11.5139493 14.4186047 11.5139493 14.4186047 10.5544535 13.4573643 10.5544535 13.4573643 9.59495772 13.4573643 8.63546195 12.496124 8.63546195 12.496124 9.59495772"></polygon>
                        <polygon id="Path" points="11.5348837 10.5544535 10.5736434 10.5544535 10.5736434 11.5139493 10.5736434 12.473445 11.5348837 12.473445 11.5348837 11.5139493"></polygon>
                    </g>
                    <rect id="Rectangle" stroke="#0057A7" stroke-width="0.5" stroke-linejoin="round" x="0.781007752" y="0.539716372" width="3.84496124" height="3.83798309"></rect>
                    <rect id="Rectangle-Copy-8" stroke="#0057A7" stroke-width="0.5" stroke-linejoin="round" x="0.781007752" y="11.0941699" width="3.84496124" height="3.83798309"></rect>
                    <rect id="Rectangle-Copy-7" stroke="#0057A7" stroke-width="0.5" stroke-linejoin="round" x="10.874031" y="0.539716372" width="3.84496124" height="3.83798309"></rect>
                    <rect id="Rectangle" fill="#0057A7" x="1.74224806" y="1.49921214" width="1.92248062" height="1.91899154" rx="0.186046512"></rect>
                    <rect id="Rectangle-Copy-10" fill="#0057A7" x="11.8352713" y="1.49921214" width="1.92248062" height="1.91899154" rx="0.186046512"></rect>
                    <rect id="Rectangle-Copy-9" fill="#0057A7" x="1.74224806" y="12.0536656" width="1.92248062" height="1.91899154" rx="0.186046512"></rect>
                </g>
                <polyline id="Path-3" stroke="#0057A7" stroke-width="0.744186047" stroke-linecap="round" stroke-linejoin="round" transform="translate(17.437500, 3.223306) scale(-1, 1) translate(-17.437500, -3.223306) " points="14.2083333 6.44661222 14.2083333 0 20.6666667 0"></polyline>
                <polyline id="Path-3" stroke="#0057A7" stroke-width="0.744186047" stroke-linecap="round" stroke-linejoin="round" transform="translate(3.229167, 17.405853) scale(1, -1) translate(-3.229167, -17.405853) " points="0 20.6291591 0 14.1825469 6.45833333 14.1825469"></polyline>
                <polyline id="Path-3" stroke="#0057A7" stroke-width="0.744186047" stroke-linecap="round" stroke-linejoin="round" transform="translate(17.437500, 17.405853) scale(-1, -1) translate(-17.437500, -17.405853) " points="14.2083333 20.6291591 14.2083333 14.1825469 20.6666667 14.1825469"></polyline>
                <polyline id="Path-3" stroke="#0057A7" stroke-width="0.744186047" stroke-linecap="round" stroke-linejoin="round" points="0 6.44661222 0 0 6.45833333 0"></polyline>
            </g>
        </g>
    </g>
</svg>