<?xml version="1.0" encoding="UTF-8"?>
<svg width="31px" height="28px" viewBox="0 0 31 28" version="1.1" xmlns="http://www.w3.org/2000/svg" xmlns:xlink="http://www.w3.org/1999/xlink">
    <!-- Generator: Sketch 64 (93537) - https://sketch.com -->
    <title>Group 22 Copy</title>
    <desc>Created with Sketch.</desc>
    <defs>
        <path d="M1.29166667,1.29166667 L1.29166667,16.7916667 L19.375,16.7916667 L19.375,1.29166667 L1.29166667,1.29166667 Z M6.45833333,0 L6.45833333,1.29166667 L14.2083333,1.29166667 L14.2083333,0 L20.6666667,0 L20.6666667,5.16666667 L19.375,5.16666667 L19.375,12.9166667 L20.6666667,12.9166667 L20.6666667,18.0833333 L14.2083333,18.0833333 L14.2083333,16.7916667 L6.45833333,16.7916667 L6.45833333,18.0833333 L0,18.0833333 L0,12.9166667 L1.29166667,12.9166667 L1.29166667,5.16666667 L0,5.16666667 L0,0 L6.45833333,0 Z M9.6875,5.16666667 L10.9791667,5.16666667 L10.9791667,12.9166667 L9.6875,12.9166667 L9.6875,5.16666667 Z M14.2083333,8.39583333 L14.2083333,9.6875 L6.45833333,9.6875 L6.45833333,8.39583333 L14.2083333,8.39583333 Z" id="path-1"></path>
    </defs>
    <g id="Thermostat" stroke="none" stroke-width="1" fill="none" fill-rule="evenodd">
        <g id="5.2.-Thermostat-settinga" transform="translate(-329.000000, -595.000000)">
            <g id="Group-22-Copy" transform="translate(324.000000, 589.000000)">
                <g id="Icon-/-Scan-/-16px">
                    <g id="Shape" transform="translate(5.166667, 6.458333)">
                        <mask id="mask-2" fill="white">
                            <use xlink:href="#path-1"></use>
                        </mask>
                        <use id="Mask" fill="#979797" fill-rule="nonzero" xlink:href="#path-1"></use>
                        <g id="*Style*-/-Icon-/-Tint-/-Actionable---Light-Background-/-Interactive" mask="url(#mask-2)">
                            <g transform="translate(-11.625000, -11.625000)" id="*Style*-/-Color-/-Action-/-Secondary">
                                <g>
                                    <rect id="Light-Theme" fill="#303030" x="0" y="0" width="43.9166667" height="43.9166667"></rect>
                                </g>
                            </g>
                        </g>
                    </g>
                </g>
                <g id="Group-23" transform="translate(19.000000, 17.000000)">
                    <g id="Assigned-Copy" fill="#F5A623" stroke="#FFFFFF" stroke-width="2">
                        <circle id="Oval" cx="8" cy="8" r="8"></circle>
                    </g>
                    <circle id="Mask" fill="#FFFFFF" cx="8" cy="11" r="1"></circle>
                    <polygon id="Path" fill="#FFFFFF" points="7 4 9 4 8.5 9 7.5 9"></polygon>
                </g>
            </g>
        </g>
    </g>
</svg>