<?xml version="1.0" encoding="UTF-8"?>
<svg width="24px" height="24px" viewBox="0 0 24 24" version="1.1" xmlns="http://www.w3.org/2000/svg" xmlns:xlink="http://www.w3.org/1999/xlink">
    <!-- Generator: Sketch 64 (93537) - https://sketch.com -->
    <title>Actions / Setting / 16px</title>
    <desc>Created with Sketch.</desc>
    <defs>
        <path d="M12.0384226,14.1431808 C10.817998,14.1431808 9.82608696,13.1607686 9.82608696,11.952031 C9.82608696,10.742292 10.817998,9.75887839 12.0384226,9.75887839 C13.2588473,9.75887839 14.2507583,10.742292 14.2507583,11.952031 C14.2507583,13.1607686 13.2588473,14.1431808 12.0384226,14.1431808 M12.0384226,8.75743882 C10.2608696,8.75743882 8.81496461,10.1904988 8.81496461,11.952031 C8.81496461,13.7115604 10.2608696,15.1446204 12.0384226,15.1446204 C13.8159757,15.1446204 15.2618807,13.7115604 15.2618807,11.952031 C15.2618807,10.1904988 13.8159757,8.75743882 12.0384226,8.75743882 M17.5551062,16.2936722 L16.5571284,17.3281592 L14.8361982,16.5400263 L13.4398382,17.1489015 L12.8827098,18.9154409 L11.5075834,18.9695187 L10.8847321,17.2310196 L9.31951466,16.603117 L7.59656218,17.4463291 L6.70171891,16.5700695 L7.47320526,14.8746323 L6.83822042,13.2673218 L5.01112235,12.5813357 L5.01112235,11.3285348 L6.82608696,10.7056394 L7.47927199,9.1223634 L6.68452983,7.43794204 L7.62082912,6.50960756 L9.3437816,7.35382112 L10.8958544,6.71790699 L11.4691608,5.01145397 L12.8473205,5.00544533 L13.5682508,6.87012581 L14.8715875,7.47299243 L16.4863498,6.62677599 L17.5480283,7.68930337 L16.6916077,9.38474056 L17.2628918,10.6906178 L18.9888777,11.2724542 L18.9888777,12.6794767 L17.1698686,13.3484384 L16.7047523,14.5922263 L17.5551062,16.2936722 Z M20,13.3754772 L20,10.5554234 L18.0131446,9.88546035 L17.8078868,9.41578519 L18.776542,7.49602554 L16.6784631,5.39400388 L14.843276,6.35438443 L14.3660263,6.13406772 L13.5419616,4 L10.7391304,4.01402015 L10.0819009,5.96682731 L9.38119312,6.25524191 L7.41961577,5.29385992 L5.46814965,7.22663829 L6.37512639,9.14940227 L6.06370071,9.90749202 L4,10.6165112 L4,13.2733304 L6.06066734,14.0454403 L6.37714863,14.8475934 L5.49039434,16.7933905 L7.39939333,18.6610753 L9.36097068,17.6996933 L10.082912,17.9891093 L10.80182,20 L13.6349848,19.8878388 L14.2669363,17.8829568 L14.826087,17.6396069 L16.7876643,18.5368968 L18.7755308,16.4799399 L17.8048534,14.5351443 L17.9575329,14.1265569 L20,13.3754772 Z" id="path-1"></path>
    </defs>
    <g id="Actions-/-Setting-/-16px" stroke="none" stroke-width="1" fill="none" fill-rule="evenodd">
        <mask id="mask-2" fill="white">
            <use xlink:href="#path-1"></use>
        </mask>
        <use id="Mask" fill="#0057A7" xlink:href="#path-1"></use>
        <g id="*Style*-/-Icon-/-Tint-/-Actionable---Light-Background-/-Interactive" mask="url(#mask-2)" fill="#0057A7">
            <g id="*Style*-/-Color-/-Action-/-Secondary">
                <rect id="Light-Theme" x="0" y="0" width="24" height="24"></rect>
            </g>
        </g>
    </g>
</svg>