<?xml version="1.0" encoding="UTF-8"?>
<svg width="16px" height="16px" viewBox="0 0 16 16" version="1.1" xmlns="http://www.w3.org/2000/svg" xmlns:xlink="http://www.w3.org/1999/xlink">
    <title>Settings</title>
    <defs>
        <path d="M5.82608696,7.95203104 C5.82608696,6.74229204 6.81799798,5.75887839 8.03842265,5.75887839 C9.25884732,5.75887839 10.2507583,6.74229204 10.2507583,7.95203104 C10.2507583,9.1607686 9.25884732,10.1431808 8.03842265,10.1431808 C6.81799798,10.1431808 5.82608696,9.1607686 5.82608696,7.95203104 Z M4.81496461,7.95203104 C4.81496461,9.71156037 6.26086957,11.1446204 8.03842265,11.1446204 C9.81597573,11.1446204 11.2618807,9.71156037 11.2618807,7.95203104 C11.2618807,6.19049884 9.81597573,4.75743882 8.03842265,4.75743882 C6.26086957,4.75743882 4.81496461,6.19049884 4.81496461,7.95203104 Z M13.5551062,12.2936722 L12.5571284,13.3281592 L10.8361982,12.5400263 L9.43983822,13.1489015 L8.88270981,14.9154409 L7.50758342,14.9695187 L6.88473205,13.2310196 L5.31951466,12.603117 L3.59656218,13.4463291 L2.70171891,12.5700695 L3.47320526,10.8746323 L2.83822042,9.26732178 L1.01112235,8.58133567 L1.01112235,7.32853477 L2.82608696,6.70563936 L3.47927199,5.1223634 L2.68452983,3.43794204 L3.62082912,2.50960756 L5.3437816,3.35382112 L6.8958544,2.71790699 L7.46916077,1.01145397 L8.84732053,1.00544533 L9.56825076,2.87012581 L10.8715875,3.47299243 L12.4863498,2.62677599 L13.5480283,3.68930337 L12.6916077,5.38474056 L13.2628918,6.69061776 L14.9888777,7.27245415 L14.9888777,8.67947675 L13.1698686,9.34843838 L12.7047523,10.5922263 L13.5551062,12.2936722 Z M16,9.37547725 L16,6.55542342 L14.0131446,5.88546035 L13.8078868,5.41578519 L14.776542,3.49602554 L12.6784631,1.39400388 L10.843276,2.35438443 L10.3660263,2.13406772 L9.54196158,1.77635684e-15 L6.73913043,0.014020154 L6.08190091,1.96682731 L5.38119312,2.25524191 L3.41961577,1.29385992 L1.46814965,3.22663829 L2.37512639,5.14940227 L2.06370071,5.90749202 L0,6.61651123 L0,9.27333041 L2.06066734,10.0454403 L2.37714863,10.8475934 L1.49039434,12.7933905 L3.39939333,14.6610753 L5.36097068,13.6996933 L6.08291203,13.9891093 L6.80182002,16 L9.63498483,15.8878388 L10.2669363,13.8829568 L10.826087,13.6396069 L12.7876643,14.5368968 L14.7755308,12.4799399 L13.8048534,10.5351443 L13.9575329,10.1265569 L16,9.37547725 Z" id="path-1"></path>
    </defs>
    <g id="Master" stroke="none" stroke-width="1" fill="none" fill-rule="evenodd">
        <g id="Overlay_1" transform="translate(-20.000000, -535.000000)">
            <g id="Chrome-/-Left-Nav-/-Mobile-/-*Element*-/-Item-/-Expanded-/-Unselected-+-Icon-Copy-3" transform="translate(0.000000, 515.000000)">
                <g id="*Element*-/-Mobile-/-Left-Nav-Item-/-Collapsed-/-Unselected" transform="translate(16.000000, 16.000000)">
                    <g id="*Style*-/-Icon-/-Placeholder-/-16px" transform="translate(4.000000, 4.000000)">
                        <mask id="mask-2" fill="white">
                            <use xlink:href="#path-1"></use>
                        </mask>
                        <use id="Settings" fill="#FFFFFF" xlink:href="#path-1"></use>
                    </g>
                </g>
            </g>
        </g>
    </g>
</svg>