<?xml version="1.0" encoding="UTF-8"?>
<svg width="16px" height="25px" viewBox="0 0 16 25" version="1.1" xmlns="http://www.w3.org/2000/svg" xmlns:xlink="http://www.w3.org/1999/xlink">
    <title>Shape</title>
    <g id="Page-1" stroke="none" stroke-width="1" fill="none" fill-rule="evenodd">
        <g id="18-copy" transform="translate(-10.000000, -115.000000)" fill="#FFFFFF" fill-rule="nonzero">
            <g id="Group-7" transform="translate(10.000000, 109.000000)">
                <g id="noun_Location_1822288" transform="translate(0.000000, 6.000000)">
                    <g id="Group">
                        <path d="M8,0.106081461 C3.58825434,0.106081461 0,3.75985112 0,8.25214888 C0,10.0147135 1.04565959,12.2886236 1.72413793,13.5716854 L7.51724138,24.5267416 C7.61443455,24.7055389 7.79930418,24.8165003 8,24.8165003 C8.20069582,24.8165003 8.38556545,24.7055389 8.48275862,24.5267416 L14.2758621,13.5716854 C14.954331,12.2886517 16,10.0147163 16,8.25214888 C16,3.75985112 12.4117434,0.106081461 8,0.106081461 L8,0.106081461 Z M8,1.22967697 C11.8153959,1.22967697 14.8965517,4.36708708 14.8965517,8.25214888 C14.8965517,9.50885112 13.9397766,11.845927 13.3103448,13.0362079 L8,23.0783427 L2.68965517,13.0362079 C2.06021076,11.8458989 1.10344828,9.50885393 1.10344828,8.25214888 C1.10344828,4.36708708 4.18460083,1.22967697 8,1.22967697 Z M8,4.03866573 C5.72121545,4.03866573 3.86206897,5.93178371 3.86206897,8.25214888 C3.86206897,10.5725365 5.72122041,12.465618 8,12.465618 C10.2787834,12.465618 12.137931,10.5725365 12.137931,8.25214888 C12.137931,5.93178652 10.278789,4.03866573 8,4.03866573 Z M8,5.16226124 C9.68243117,5.16226124 11.0344828,6.53902809 11.0344828,8.25214888 C11.0344828,9.96530056 9.68243641,11.3420365 8,11.3420365 C6.3175691,11.3420365 4.96551724,9.96530056 4.96551724,8.25214888 C4.96551724,6.5390309 6.31757407,5.16226124 8,5.16226124 Z" id="Shape"></path>
                    </g>
                </g>
            </g>
        </g>
    </g>
</svg>