<?xml version="1.0" encoding="UTF-8"?>
<svg width="21px" height="22px" viewBox="0 0 22 23" version="1.1" xmlns="http://www.w3.org/2000/svg" xmlns:xlink="http://www.w3.org/1999/xlink">
    <title>Icon / site mgmt b</title>
    <g id="Icon-/-site-mgmt-b" stroke="none" stroke-width="1" fill="none" fill-rule="evenodd">
        <g transform="translate(4.000000, 4.000000)" fill="#FFFFFF" fill-rule="nonzero" id="oval">
            <path d="M8,-0.5 C3.30557963,-0.5 -0.5,3.30557963 -0.5,8 C-0.5,12.6944204 3.30557963,16.5 8,16.5 C12.6944204,16.5 16.5,12.6944204 16.5,8 C16.5,3.30557963 12.6944204,-0.5 8,-0.5 Z M8,0.5 C12.1421356,0.5 15.5,3.85786438 15.5,8 C15.5,12.1421356 12.1421356,15.5 8,15.5 C3.85786438,15.5 0.5,12.1421356 0.5,8 C0.5,3.85786438 3.85786438,0.5 8,0.5 Z"></path>
            <path d="M8,-0.5 C5.42050501,-0.5 3.5,3.34101002 3.5,8 C3.5,12.65899 5.42050501,16.5 8,16.5 C10.579495,16.5 12.5,12.65899 12.5,8 C12.5,3.34101002 10.579495,-0.5 8,-0.5 Z M8,0.5 C9.83878301,0.5 11.5,3.82243399 11.5,8 C11.5,12.177566 9.83878301,15.5 8,15.5 C6.16121699,15.5 4.5,12.177566 4.5,8 C4.5,3.82243399 6.16121699,0.5 8,0.5 Z"></path>
            <path d="M8,4.5 C3.32194339,4.5 -0.5,5.93322877 -0.5,8 C-0.5,10.0667712 3.32194339,11.5 8,11.5 C12.6780566,11.5 16.5,10.0667712 16.5,8 C16.5,5.93322877 12.6780566,4.5 8,4.5 Z M8,5.5 C12.1584994,5.5 15.5,6.75306273 15.5,8 C15.5,9.24693727 12.1584994,10.5 8,10.5 C3.84150061,10.5 0.5,9.24693727 0.5,8 C0.5,6.75306273 3.84150061,5.5 8,5.5 Z"></path>
        </g>
    </g>
</svg>