<?xml version="1.0" encoding="UTF-8"?>
<svg width="238px" height="184px" viewBox="0 0 238 184" version="1.1" xmlns="http://www.w3.org/2000/svg" xmlns:xlink="http://www.w3.org/1999/xlink">
    <title>No sites</title>
    <g id="Gateway-configuration_New" stroke="none" stroke-width="1" fill="none" fill-rule="evenodd">
        <g id="Sites-failed-to-load" transform="translate(-67.000000, -212.000000)">
            <g id="No-sites" transform="translate(68.000000, 214.000000)">
                <g id="Group" transform="translate(0.000000, 2.000000)" fill="#FFFFFF">
                    <path d="M197.516533,83.9147241 C196.178933,83.6587414 195.299867,82.3686897 195.550667,81.0279483 C196.346133,76.7446724 196.751467,72.5323621 196.751467,68.5 C196.751467,30.9313621 166.202,0.368034483 128.6504,0.368034483 C97.688,0.368034483 70.6193333,21.3256724 62.8192,51.3339483 C62.6418667,52.0131897 62.1833333,52.5910517 61.5576,52.912931 C60.9293333,53.2373448 60.1972,53.2778966 59.5385333,53.0269828 C54.5529333,51.1235862 49.3824,50.1604828 44.1764,50.1604828 C20.3478667,50.1604828 0.960266667,69.5568793 0.960266667,93.3962241 C0.960266667,117.235569 20.3478667,136.629431 44.1764,136.629431 L192.4524,136.629431 C207.115333,136.629431 219.047333,124.694552 219.047333,110.024966 C219.042267,97.3043966 209.990667,86.3250172 197.516533,83.9147241 Z" id="Path"></path>
                </g>
                <g id="Group" transform="translate(17.000000, 10.000000)" fill="#AECFEF">
                    <path d="M197.516533,83.9147241 C196.178933,83.6587414 195.299867,82.3686897 195.550667,81.0279483 C196.346133,76.7446724 196.751467,72.5323621 196.751467,68.5 C196.751467,30.9313621 166.202,0.368034483 128.6504,0.368034483 C97.688,0.368034483 70.6193333,21.3256724 62.8192,51.3339483 C62.6418667,52.0131897 62.1833333,52.5910517 61.5576,52.912931 C60.9293333,53.2373448 60.1972,53.2778966 59.5385333,53.0269828 C54.5529333,51.1235862 49.3824,50.1604828 44.1764,50.1604828 C20.3478667,50.1604828 0.960266667,69.5568793 0.960266667,93.3962241 C0.960266667,117.235569 20.3478667,136.629431 44.1764,136.629431 L192.4524,136.629431 C207.115333,136.629431 219.047333,124.694552 219.047333,110.024966 C219.042267,97.3043966 209.990667,86.3250172 197.516533,83.9147241 Z" id="Path"></path>
                </g>
                <g id="noun_Cloud_3104300-Copy" stroke="#0057A7" stroke-width="3">
                    <g id="Group">
                        <path d="M197.516533,83.9147241 C196.178933,83.6587414 195.299867,82.3686897 195.550667,81.0279483 C196.346133,76.7446724 196.751467,72.5323621 196.751467,68.5 C196.751467,30.9313621 166.202,0.368034483 128.6504,0.368034483 C97.688,0.368034483 70.6193333,21.3256724 62.8192,51.3339483 C62.6418667,52.0131897 62.1833333,52.5910517 61.5576,52.912931 C60.9293333,53.2373448 60.1972,53.2778966 59.5385333,53.0269828 C54.5529333,51.1235862 49.3824,50.1604828 44.1764,50.1604828 C20.3478667,50.1604828 0.960266667,69.5568793 0.960266667,93.3962241 C0.960266667,117.235569 20.3478667,136.629431 44.1764,136.629431 L192.4524,136.629431 C207.115333,136.629431 219.047333,124.694552 219.047333,110.024966 C219.042267,97.3043966 209.990667,86.3250172 197.516533,83.9147241 Z" id="Path"></path>
                    </g>
                </g>
                <g id="Group-10" transform="translate(71.000000, 72.000000)" stroke="#0057A7">
                    <line x1="35" y1="33" x2="56.3333333" y2="33" id="Line-5" stroke-width="5" stroke-linecap="round"></line>
                    <circle id="Oval" fill="#0057A7" cx="6" cy="6" r="5.5"></circle>
                    <circle id="Oval-Copy" fill="#0057A7" cx="85" cy="6" r="5.5"></circle>
                </g>
                <polygon id="Path-7" stroke="#0057A7" stroke-width="2" fill="#FFEFA4" stroke-linejoin="round" points="108.833333 137 102 157.47619 117.375 157.47619 110.541667 180 143 143.142857 127.625 143.142857 127.625 137"></polygon>
            </g>
        </g>
    </g>
</svg>