<?xml version="1.0" encoding="UTF-8"?>
<svg width="45px" height="51px" viewBox="0 0 45 51" version="1.1" xmlns="http://www.w3.org/2000/svg" xmlns:xlink="http://www.w3.org/1999/xlink">
    <title>Group 2 Copy</title>
    <g id="Splash-Landing-01*" stroke="none" stroke-width="1" fill="none" fill-rule="evenodd">
        <g id="03-Initial-Setup-Select" transform="translate(-46.000000, -303.000000)">
            <g id="Group-10" transform="translate(19.000000, 291.000000)">
                <g id="Gateway" transform="translate(50.000000, 37.500000) scale(1, -1) translate(-50.000000, -37.500000) translate(28.000000, 12.000000)">
                    <g id="Group-15">
                        <rect id="Rectangle" fill-opacity="0.705228365" fill="#82B3E0" x="2.16282897" y="12.791826" width="41.8146934" height="10.659855"></rect>
                        <rect id="Rectangle" stroke="#0057A7" x="0.5" y="0.5" width="41.3663403" height="32.7174525"></rect>
                        <line x1="0.365227072" y1="11.1195854" x2="42.0011132" y2="11.1195854" id="Line-6" stroke="#0057A7" stroke-linecap="square"></line>
                        <line x1="0.365227072" y1="21.8804745" x2="42.0011132" y2="21.8804745" id="Line-7" stroke="#0057A7" stroke-linecap="square"></line>
                        <line x1="17.8961265" y1="11.1195854" x2="17.8961265" y2="21.8804745" id="Line-8" stroke="#0057A7" stroke-linecap="square"></line>
                        <ellipse id="Oval" stroke="#0057A7" fill="#FFFFFF" cx="34.3313447" cy="16.50003" rx="2.42181657" ry="2.36957043"></ellipse>
                        <path d="M35.5617989,33.7891081 L36.0227072,45.4717209 C36.0227072,45.535359 35.9969127,45.5929726 35.9552087,45.6346766 C35.9135047,45.6763806 35.8558912,45.702175 35.792253,45.702175 C35.7286149,45.702175 35.6710013,45.6763806 35.6292973,45.6346766 C35.5875933,45.5929726 35.5617989,45.535359 35.5617989,45.4717209 L35.5617989,45.4717209 L35.5617989,33.7891081 Z" id="Rectangle" stroke="#0057A7" fill="#D8D8D8"></path>
                        <line x1="22.2429037" y1="15.7826374" x2="26.197152" y2="15.7826374" id="Line-9" stroke="#0057A7" stroke-linecap="round" stroke-dasharray="0,3"></line>
                        <line x1="22.2429037" y1="17.9348152" x2="26.197152" y2="17.9348152" id="Line-9-Copy" stroke="#0057A7" stroke-linecap="round" stroke-dasharray="0,3"></line>
                    </g>
                    <g id="Group-16" transform="translate(26.674891, 41.500419)" stroke="#0057A7" stroke-linecap="round">
                        <path d="M5.91045472,2.68294036 C5.65624162,3.35367546 5.52913506,3.91262137 5.52913506,4.35977809 C5.52913506,4.80693482 5.65624162,5.36588073 5.91045472,6.03661582" id="Line-10"></path>
                        <path d="M4.19451625,1.34147018 C3.43187694,2.34757282 3.05055728,3.35367546 3.05055728,4.35977809 C3.05055728,5.36588073 3.43187694,6.37198337 4.19451625,7.378086" id="Line-11"></path>
                        <path d="M1.52527864,0 C0.508426213,1.78862691 0,3.24188627 0,4.35977809 C0,5.47766991 0.508426213,6.93092928 1.52527864,8.71955619" id="Line-12"></path>
                    </g>
                </g>
            </g>
        </g>
    </g>
</svg>