<?xml version="1.0" encoding="UTF-8"?>
<svg width="41px" height="38px" viewBox="0 0 41 38" version="1.1" xmlns="http://www.w3.org/2000/svg" xmlns:xlink="http://www.w3.org/1999/xlink">
    <title>Standby icon big</title>
    <defs>
        <path d="M3.00217792,0 L3.00217792,35.99955 L25.5185123,35.99955 L25.5185123,0 L3.00217792,0 Z M0,34.4995688 L3.00217792,34.4995688 L3.00217792,35.99955 L0,35.99955 L0,34.4995688 Z M25.5185123,34.5000187 L39.028313,34.5000187 L39.028313,36 L25.5185123,36 L25.5185123,34.5000187 Z M4.50326688,1.49998125 L24.0174234,1.49998125 L24.0174234,34.4995688 L4.50326688,34.4995688 L4.50326688,1.49998125 Z" id="path-1"></path>
    </defs>
    <g id="Discussion" stroke="none" stroke-width="1" fill="none" fill-rule="evenodd">
        <g id="schedule_icon-copy" transform="translate(-39.000000, 1.000000)">
            <g id="Standby-icon-big" transform="translate(40.000000, 0.000000)">
                <g id="Group-4">
                    <mask id="mask-2" fill="white">
                        <use xlink:href="#path-1"></use>
                    </mask>
                    <use id="Mask" stroke="#909090" stroke-width="0.5" fill="#909090" xlink:href="#path-1"></use>
                    <rect id="矩形" fill="#909090" x="9.00653376" y="4.50039375" width="3.00217792" height="1.49998125"></rect>
                    <rect id="矩形" fill="#909090" x="16.5119786" y="4.50039375" width="3.00217792" height="1.49998125"></rect>
                    <rect id="矩形" fill="#909090" x="9.00653376" y="10.5003187" width="3.00217792" height="1.49998125"></rect>
                    <rect id="矩形" fill="#909090" x="16.5119786" y="10.5003187" width="3.00217792" height="1.49998125"></rect>
                    <rect id="矩形" fill="#909090" x="9.00653376" y="16.5002437" width="3.00217792" height="1.49998125"></rect>
                    <rect id="矩形" fill="#909090" x="16.5119786" y="16.5002437" width="3.00217792" height="1.49998125"></rect>
                    <rect id="矩形" fill="#909090" x="9.00653376" y="22.5001687" width="3.00217792" height="1.49998125"></rect>
                    <rect id="矩形" fill="#909090" x="16.5119786" y="22.5001687" width="3.00217792" height="1.49998125"></rect>
                    <rect id="矩形" fill="#909090" x="9.00653376" y="28.5000937" width="3.00217792" height="1.49998125"></rect>
                    <rect id="矩形" fill="#909090" x="16.5119786" y="28.5000937" width="3.00217792" height="1.49998125"></rect>
                </g>
                <g id="编组-2" transform="translate(27.019601, 7.500356)" fill="#0057A7" fill-rule="nonzero">
                    <ellipse id="Combined-Shape" transform="translate(6.490199, 2.187216) scale(-1, 1) translate(-6.490199, -2.187216) " cx="6.49019936" cy="2.18721649" rx="2.16339979" ry="2.18721649"></ellipse>
                    <path d="M10.816982,5.83257732 L2.16341669,5.83257732 C0.96861155,5.83257732 0,6.81404455 0,8.02470747 L0,14.6010465 C0,15.3274237 0.581126366,15.9163143 1.29803987,15.9163143 C2.01490267,15.9163143 2.59607975,15.3274751 2.59607975,14.6010465 L2.59607975,8.90151843 L3.46145656,8.90151843 L3.46145656,24.6847322 C3.46145656,25.4111094 4.04263363,26 4.75949643,26 C5.47635924,26 6.05753631,25.4111608 6.05753631,24.6847322 L6.05753631,15.916263 L6.92291312,15.916263 L6.92291312,24.6847322 C6.92291312,25.4111094 7.5040902,26 8.220953,26 C8.9378158,26 9.51899287,25.4111608 9.51899287,24.6847322 L9.51899287,8.90151843 L10.384319,8.90151843 L10.384319,14.6009952 C10.384319,15.3273724 10.9654961,15.916263 11.6823589,15.916263 C12.3992217,15.916263 12.9803987,15.3274237 12.9803987,14.6009952 L12.9803987,8.02465609 C12.9803987,6.81399317 12.0118379,5.83257732 10.816982,5.83257732 Z" id="路径"></path>
                </g>
            </g>
        </g>
    </g>
</svg>