<?xml version="1.0" encoding="UTF-8"?>
<svg width="18px" height="18px" viewBox="0 0 18 18" version="1.1" xmlns="http://www.w3.org/2000/svg" xmlns:xlink="http://www.w3.org/1999/xlink">
    <title>Status log</title>
    <defs>
        <filter id="filter-1">
            <feColorMatrix in="SourceGraphic" type="matrix" values="0 0 0 0 1.000000 0 0 0 0 1.000000 0 0 0 0 1.000000 0 0 0 1.000000 0"></feColorMatrix>
        </filter>
    </defs>
    <g id="Symbols" stroke="none" stroke-width="1" fill="none" fill-rule="evenodd">
        <g id="noun_History_822004" transform="translate(-303.000000, -15.000000)" filter="url(#filter-1)">
            <g transform="translate(304.000000, 16.000000)" id="Group" fill="#000000" fill-rule="nonzero">
                <g id="Status-log">
                    <polygon id="Path" points="7 3 7 9.43333333 12.0666667 9.43333333 12.0666667 8.8 7.66666667 8.8 7.66666667 3"></polygon>
                    <path d="M15.9,6.73333333 L15.2666667,6.83333333 C15.3333333,7.23333333 15.3666667,7.6 15.3666667,8 C15.3666667,12.0666667 12.0666667,15.3666667 8,15.3666667 C3.93333333,15.3666667 0.633333333,12.0666667 0.633333333,8 C0.633333333,3.93333333 3.93333333,0.633333333 8,0.633333333 C10.5333333,0.633333333 12.8666667,1.93333333 14.2,4.03333333 L11.6333333,3.5 L11.5,4.13333333 L15.0666667,4.86666667 L15.8,1.3 L15.1666667,1.16666667 L14.6666667,3.6 C13.2333333,1.36666667 10.7333333,0 8,0 C3.6,0 0,3.6 0,8 C0,12.4 3.6,16 8,16 C12.4,16 16,12.4 16,8 C16,7.56666667 15.9666667,7.13333333 15.9,6.73333333 Z" id="Path" stroke="#979797" stroke-width="0.4" stroke-linejoin="round"></path>
                </g>
            </g>
        </g>
    </g>
</svg>