<?xml version="1.0" encoding="UTF-8"?>
<svg width="28px" height="28px" viewBox="0 0 28 28" version="1.1" xmlns="http://www.w3.org/2000/svg" xmlns:xlink="http://www.w3.org/1999/xlink">
    <title>Group 4</title>
    <defs>
        <path d="M3.375,7.875 C3.996,7.875 4.5,8.379 4.5,9 C4.5,9.621 3.996,10.125 3.375,10.125 C2.754,10.125 2.25,9.621 2.25,9 C2.25,8.379 2.754,7.875 3.375,7.875 Z M9,7.875 C9.621,7.875 10.125,8.379 10.125,9 C10.125,9.621 9.621,10.125 9,10.125 C8.379,10.125 7.875,9.621 7.875,9 C7.875,8.379 8.379,7.875 9,7.875 Z M14.625,7.875 C15.246,7.875 15.75,8.379 15.75,9 C15.75,9.621 15.246,10.125 14.625,10.125 C14.004,10.125 13.5,9.621 13.5,9 C13.5,8.379 14.004,7.875 14.625,7.875 Z" id="path-1"></path>
    </defs>
    <g id="Page-1" stroke="none" stroke-width="1" fill="none" fill-rule="evenodd">
        <g id="Group-4" transform="translate(1.000000, 1.000000)">
            <circle id="Oval-Copy-2" stroke="#0057A7" stroke-width="0.8" fill="#FFFFFF" transform="translate(13.000000, 13.000000) rotate(90.000000) translate(-13.000000, -13.000000) " cx="13" cy="13" r="13"></circle>
            <g id="Group" transform="translate(5.000000, 4.000000)">
                <g id="Icon" transform="translate(9.000000, 9.000000) rotate(180.000000) translate(-9.000000, -9.000000) ">
                    <mask id="mask-2" fill="white">
                        <use xlink:href="#path-1"></use>
                    </mask>
                    <use id="Mask" fill="#0057A7" xlink:href="#path-1"></use>
                    <g id="Group" mask="url(#mask-2)" fill="#0057A7">
                        <g id="Icon-/-Tint-/-Actionable---Light-Background-/-Interactive">
                            <rect id="Dark-Theme" x="0" y="0" width="18" height="18"></rect>
                        </g>
                    </g>
                </g>
            </g>
        </g>
    </g>
</svg>