<?xml version="1.0" encoding="UTF-8"?>
<svg width="16px" height="3px" viewBox="0 0 16 3" version="1.1" xmlns="http://www.w3.org/2000/svg" xmlns:xlink="http://www.w3.org/1999/xlink">
    <title>3 dots</title>
    <defs>
        <filter id="filter-1">
            <feColorMatrix in="SourceGraphic" type="matrix" values="0 0 0 0 0.000000 0 0 0 0 0.341176 0 0 0 0 0.654902 0 0 0 1.000000 0"></feColorMatrix>
        </filter>
        <path d="M1,0 C1.553,0 2,0.447 2,1 C2,1.553 1.553,2 1,2 C0.447,2 0,1.553 0,1 C0,0.447 0.447,0 1,0 Z M8,0 C8.553,0 9,0.447 9,1 C9,1.553 8.553,2 8,2 C7.447,2 7,1.553 7,1 C7,0.447 7.447,0 8,0 Z M15,0 C15.553,0 16,0.447 16,1 C16,1.553 15.553,2 15,2 C14.447,2 14,1.553 14,1 C14,0.447 14.447,0 15,0 Z" id="path-2"></path>
    </defs>
    <g id="Master" stroke="none" stroke-width="1" fill="none" fill-rule="evenodd">
        <g id="7.2.1-Edit-schedule-RTU" transform="translate(-89.000000, -279.000000)">
            <g id="Group-11" transform="translate(0.000000, 246.000000)">
                <g id="Group-2" transform="translate(24.000000, 0.000000)">
                    <g id="cells" transform="translate(0.000000, 0.411765)">
                        <g id="Actions-/-More-/-16px" transform="translate(61.000000, 8.000000)" filter="url(#filter-1)">
                            <g transform="translate(4.000000, 25.000000)">
                                <mask id="mask-3" fill="white">
                                    <use xlink:href="#path-2"></use>
                                </mask>
                                <use id="3-dots" fill="#0057A7" xlink:href="#path-2"></use>
                            </g>
                        </g>
                    </g>
                </g>
            </g>
        </g>
    </g>
</svg>