<?xml version="1.0" encoding="UTF-8"?>
<svg width="44px" height="55px" viewBox="0 0 44 55" version="1.1" xmlns="http://www.w3.org/2000/svg" xmlns:xlink="http://www.w3.org/1999/xlink">
    <title>Group 2</title>
    <defs>
        <path d="M10.7593302,11.4047575 L10.7593302,9.31403825 L12.5892433,8.26822587 L14.4191564,9.31403825 L14.4191564,11.4047575 L12.5892433,12.4505699 L10.7593302,11.4047575 Z M13.0613609,17.206979 L13.0613609,15.5834797 L14.1245404,16.6356304 L14.7714146,15.9954664 L13.0613609,14.3031519 L13.0613609,13.2265537 L15.3341129,11.9281165 L15.3341129,8.79067933 L13.0467216,7.48409295 L13.0467216,6.5288271 L14.7714146,4.82202508 L14.1245404,4.18186114 L13.0467216,5.24849922 L13.0467216,3.625 L12.131765,3.625 L12.131765,5.24849922 L11.0685855,4.19634858 L10.4217113,4.83651252 L12.131765,6.5288271 L12.131765,7.48409295 L10.3119165,8.52356708 L9.47198639,8.02012839 L8.89098899,5.67587882 L8.0025662,5.89137955 L8.36580394,7.35642235 L6.96226062,6.51433966 L6.48831313,7.28851246 L7.89002654,8.12968969 L6.43067087,8.4837266 L6.64843053,9.36293337 L8.99712395,8.79430119 L9.8443737,9.30317267 L9.8443737,11.4120013 L8.9413116,11.9054798 L6.59719296,11.2354355 L6.34375,12.1055877 L7.80768045,12.5239126 L6.3711987,13.3098565 L6.81403766,14.1021386 L8.24960446,13.3171002 L7.83329924,14.7459244 L8.71257247,14.9976437 L9.38232065,12.6986674 L10.3073417,12.1925123 L12.1464043,13.242852 L12.1464043,14.3031519 L10.4217113,16.0099539 L11.0685855,16.6501178 L12.1464043,15.5834797 L12.1464043,17.206979 L13.0613609,17.206979 Z M18.9876258,23.4985138 C20.2493509,23.4985138 21.2750172,22.4834872 21.2750172,21.2348506 C21.2750172,20.6182288 21.0243191,20.0604622 20.6180784,19.6520973 L20.6244831,19.6520973 C19.5375147,18.6506528 19.4460191,17.1792717 19.4460191,17.1792717 L19.4451041,17.1792717 L19.4451041,15.4118035 L18.5301476,15.4118035 L18.5301476,17.1792717 L18.5292326,17.1792717 C18.5292326,17.1792717 18.4834848,18.7801343 17.3471088,19.6466646 L17.3617481,19.6466646 C16.9527625,20.0550294 16.7002345,20.6155124 16.7002345,21.2348506 C16.7002345,22.4834872 17.7259008,23.4985138 18.9876258,23.4985138 M16.3544724,18.4672055 C16.4368185,18.3866191 17.1578043,17.6187846 17.1578043,15.3822854 L17.1513996,4.55925906 L20.8240351,4.55925906 L20.8240351,14.4867802 L20.8176304,15.3859072 C20.8176304,17.6187846 21.5386161,18.3866191 21.6291968,18.4744492 C22.1351678,18.9452912 22.6475435,19.8625275 22.6475435,20.8476737 C22.6475435,22.8451301 21.0061114,24.4695347 18.9877173,24.4695347 C16.9693232,24.4695347 15.3278912,22.8451301 15.3278912,20.8476737 C15.3278912,19.8625275 15.8402669,18.9452912 16.3544724,18.4672055 M18.9877173,25.375 C21.5102525,25.375 23.5625,23.3440414 23.5625,20.8476737 C23.5625,19.5048687 22.8579835,18.374848 22.2714963,17.8306634 C22.2660066,17.8252306 21.7325869,17.2212853 21.7325869,15.3895291 L21.7389916,3.6537938 L16.236443,3.6537938 L16.236443,14.4940239 L16.2428477,15.3859072 C16.2428477,17.2049869 15.7185776,17.8143651 15.7204075,17.8143651 L15.7213225,17.8143651 C15.1165362,18.374848 14.4129347,19.5048687 14.4129347,20.8476737 C14.4129347,23.3440414 16.4651822,25.375 18.9877173,25.375" id="path-1"></path>
    </defs>
    <g id="Choose-Thermostat" stroke="none" stroke-width="1" fill="none" fill-rule="evenodd">
        <g id="Group-2" transform="translate(-0.000000, 0.000000)">
            <rect id="Rectangle" stroke="#0057A7" fill="#FFFFFF" x="0.5" y="0.5" width="43" height="54" rx="8"></rect>
            <polygon id="Rectangle" fill-opacity="0.705228365" fill="#82B3E0" transform="translate(23.906250, 27.968750) rotate(90.000000) translate(-23.906250, -27.968750) " points="4.40625 11.96875 43.40625 11.96875 43.40625 43.96875 4.40625 43.96875"></polygon>
            <rect id="Rectangle-Copy-2" stroke="#0057A7" x="5.5" y="6.5" width="34" height="38"></rect>
            <g id="Weather-/-Temperature-Freezing-/-24px" transform="translate(8.000000, 11.000000)">
                <mask id="mask-2" fill="white">
                    <use xlink:href="#path-1"></use>
                </mask>
                <use id="Mask" fill="#0057A7" xlink:href="#path-1"></use>
                <g id="Group" mask="url(#mask-2)" fill="#0057A7">
                    <g id="*Style*-/-Color-/-Action-/-Secondary">
                        <rect id="Light-Theme" x="0" y="0" width="29" height="29"></rect>
                    </g>
                </g>
            </g>
        </g>
    </g>
</svg>