<?xml version="1.0" encoding="UTF-8"?>
<svg width="15px" height="13px" viewBox="0 0 15 13" version="1.1" xmlns="http://www.w3.org/2000/svg" xmlns:xlink="http://www.w3.org/1999/xlink">
    <title>Unlocked</title>
    <defs>
        <filter id="filter-1">
            <feColorMatrix in="SourceGraphic" type="matrix" values="0 0 0 0 1.000000 0 0 0 0 1.000000 0 0 0 0 1.000000 0 0 0 1.000000 0"></feColorMatrix>
        </filter>
    </defs>
    <g id="Master" stroke="none" stroke-width="1" fill="none" fill-rule="evenodd">
        <g id="Data-not-synced--Copy-3" transform="translate(-100.000000, -82.000000)">
            <g id="Group-11" transform="translate(88.000000, 70.000000)">
                <g id="Unlocked" transform="translate(4.000000, 4.000000)" filter="url(#filter-1)">
                    <g transform="translate(8.000000, 8.000000)">
                        <g id="Line" transform="translate(0.000000, 0.500000)">
                            <polygon id="Fill-1" fill="#FFFFFF" points="0 11.97755 0.5 11.97755 0.5 3.97755 0 3.97755"></polygon>
                            <polygon id="Fill-2" fill="#FFFFFF" points="9 11.97755 9.5 11.97755 9.5 3.97755 9 3.97755"></polygon>
                            <polygon id="Fill-3" fill="#FFFFFF" points="0 11.97755 9.5 11.97755 9.5 11.47755 0 11.47755"></polygon>
                            <polygon id="Fill-4" fill="#FFFFFF" points="0 4.47755 9.5 4.47755 9.5 3.97755 0 3.97755"></polygon>
                            <path d="M10.4165,4.4408921e-16 C8.921,4.4408921e-16 7.58,0.963 7,2.453 L7.552,2.453 C8.091,1.263 9.1915,0.5 10.4165,0.5 C12.1835,0.5 13.6215,2.0725 13.6215,4.0055 L14.1215,4.0055 C14.1215,1.797 12.4595,4.4408921e-16 10.4165,4.4408921e-16" id="Fill-6" fill="#FFFFFF" transform="translate(10.560750, 2.002750) scale(-1, 1) translate(-10.560750, -2.002750) "></path>
                            <line x1="4.75" y1="6" x2="4.75" y2="10.415" id="Stroke-5" stroke="#FFFFFF"></line>
                        </g>
                    </g>
                </g>
            </g>
        </g>
    </g>
</svg>