<?xml version="1.0" encoding="UTF-8"?>
<svg width="22px" height="21px" viewBox="0 0 23 27" version="1.1" xmlns="http://www.w3.org/2000/svg" xmlns:xlink="http://www.w3.org/1999/xlink">
    <title>*Style* / Icon / Placeholder / 16px</title>
    <defs>
        <path d="M18.742254,18.3668916 C18.3955223,16.9065067 17.8657413,15.2144747 16.549098,13.5037382 C16.9286286,13.5915052 17.3222159,13.6375468 17.7220507,13.6375468 C18.8434622,13.6375468 19.8664769,13.2677745 20.6880124,12.673549 C22.9183406,14.9195201 23.4715495,17.2921059 23.4278176,18.3668916 L18.742254,18.3668916 Z M1.5618545,22.9666462 C1.36215164,16.7925283 4.04635236,13.1847257 5.22711436,12.2331698 C6.39381968,13.3246125 7.68668691,13.7665236 9.37505163,13.7665236 C11.0259318,13.7665236 12.7616008,13.2823211 13.918935,12.2331698 C17.643958,16.2931416 17.1803995,21.3680527 17.1803995,22.9666462 L1.5618545,22.9666462 Z M9.37112702,3.03335378 C11.8604485,3.03335378 14.447511,4.90833878 14.447511,7.63310844 C14.447511,10.3563448 12.1465425,12.2331698 9.37112702,12.2331698 C6.59727343,12.2331698 4.68556351,10.3563448 4.68556351,7.63310844 C4.68556351,4.90833878 6.88180556,3.03335378 9.37112702,3.03335378 Z M16.2101755,7.9722863 C16.2101755,7.37734503 16.1024076,6.81153749 15.947784,6.26259683 C16.4741289,5.92832571 17.0863759,5.7397232 17.7220507,5.7397232 C19.5259926,5.7397232 20.9941359,7.1826091 20.9941359,8.95363272 C20.9941359,10.7246563 19.5259926,12.1675422 17.7220507,12.1675422 C16.8036802,12.1675422 15.9555932,11.7750037 15.3386607,11.1248617 C15.8775005,10.1879825 16.2101755,9.12230163 16.2101755,7.9722863 M22.5559904,9.15050573 C22.5559904,6.46393645 20.3881363,4.27785283 17.7220507,4.27785283 C16.881773,4.27785283 16.0649231,4.5060617 15.3449081,4.91841153 C14.2156873,2.88971334 12.0853178,1.5 9.61758767,1.5 C5.98159038,1.5 3.0249998,4.47930618 3.0249998,8.14323898 C3.0249998,9.53767389 3.39065003,10.0749802 3.95885245,11.3383523 C1.41606444,14.9254184 -4.97379915e-14,15.9252172 -4.97379915e-14,24.5 L18.742254,24.5 C18.860955,22.5958461 18.860955,21.0624924 18.742254,19.8999387 L24.9896721,19.8999387 C24.9896721,19.4762636 25.3532718,15.6694102 21.765692,11.8087456 C22.2623617,11.0422786 22.5559904,10.131017 22.5559904,9.15050573 Z" id="path-1"></path>
    </defs>
    <g id="Page-1" stroke="none" stroke-width="1" fill="none" fill-rule="evenodd">
        <g id="18-copy" transform="translate(-157.000000, -35.000000)">
            <g id="*Style*-/-Icon-/-Placeholder-/-16px" transform="translate(157.000000, 35.500000)">
                <mask id="mask-2" fill="white">
                    <use xlink:href="#path-1"></use>
                </mask>
                <use id="Mask" fill="#303030" xlink:href="#path-1"></use>
                <g id="*Style*-/-Color-/-Color-Picker-Swatches-/-White" mask="url(#mask-2)" fill="#FFFFFF" fill-rule="nonzero">
                    <g transform="translate(-6.000000, -6.500000)" id="Rectangle-5-Copy-5">
                        <rect x="0" y="0" width="38" height="38"></rect>
                    </g>
                </g>
            </g>
        </g>
    </g>
</svg>