<?xml version="1.0" encoding="UTF-8"?>
<svg width="50px" height="39px" viewBox="0 0 50 39" version="1.1" xmlns="http://www.w3.org/2000/svg" xmlns:xlink="http://www.w3.org/1999/xlink">
    <title>Group 8</title>
    <defs>
        <path d="M46.1680672,12.6285714 C46.1680672,9.15378151 43.3403361,6.32605042 39.8655462,6.32605042 C36.3907563,6.32605042 33.5630252,9.15378151 33.5630252,12.6285714 L35.6638655,12.6285714 C35.6638655,10.3113445 37.5483193,8.42689076 39.8655462,8.42689076 C42.1827731,8.42689076 44.0672269,10.3113445 44.0672269,12.6285714 C44.0672269,14.9457983 42.1827731,16.8302521 39.8655462,16.8302521 L0,16.8302521 L0,18.9310924 L39.8655462,18.9310924 C43.3403361,18.9310924 46.1680672,16.1033613 46.1680672,12.6285714 M28.1960084,21.0094538 C32.2506303,21.0094538 35.5489496,24.3077731 35.5489496,28.362395 C35.5489496,32.4170168 32.2506303,35.7153361 28.1960084,35.7153361 C24.1413866,35.7153361 20.8430672,32.4170168 20.8430672,28.362395 C20.8430672,27.9569328 20.8766807,27.5577731 20.937605,27.1691176 L20.937605,27.1691176 L23.0132353,27.4968487 C22.9691176,27.7804622 22.9439076,28.0661765 22.9439076,28.362395 C22.9439076,31.2594538 25.2989496,33.6144958 28.1960084,33.6144958 C31.0930672,33.6144958 33.4481092,31.2594538 33.4481092,28.362395 C33.4481092,25.4653361 31.0930672,23.1102941 28.1960084,23.1102941 L28.1960084,23.1102941 L0.000630252101,23.1102941 L0.000630252101,21.0094538 Z M23.9943277,0 C28.0489496,0 31.3472689,3.29831933 31.3472689,7.35294118 C31.3472689,11.407563 28.0489496,14.7058824 23.9943277,14.7058824 L23.9943277,14.7058824 L0.000630252101,14.7058824 L0.000630252101,12.605042 L23.9943277,12.605042 C26.8913866,12.605042 29.2464286,10.2478992 29.2464286,7.35294118 C29.2464286,4.45798319 26.8913866,2.10084034 23.9943277,2.10084034 C21.0972689,2.10084034 18.7422269,4.45798319 18.7422269,7.35294118 L18.7422269,7.35294118 L16.6413866,7.35294118 C16.6413866,3.29831933 19.9397059,0 23.9943277,0 Z" id="path-1"></path>
    </defs>
    <g id="Splash-Landing-01*" stroke="none" stroke-width="1" fill="none" fill-rule="evenodd">
        <g id="03-Initial-Setup-Select" transform="translate(-41.000000, -468.000000)">
            <g id="Group-9" transform="translate(19.000000, 447.000000)">
                <g id="Group-8" transform="translate(22.000000, 21.800000)">
                    <circle id="Oval" fill-opacity="0.705228365" fill="#82B3E0" cx="31.092437" cy="18.907563" r="18.907563"></circle>
                    <g id="Weather-/-Breeze-/-24px-Copy" transform="translate(0.000000, 0.420168)">
                        <mask id="mask-2" fill="white">
                            <use xlink:href="#path-1"></use>
                        </mask>
                        <use id="Mask" fill="#0057A7" xlink:href="#path-1"></use>
                        <g id="Group" mask="url(#mask-2)">
                            <g transform="translate(-10.503361, -16.806723)" id="*Style*-/-Color-/-Action-/-Secondary" fill="#0057A7">
                                <rect id="Light-Theme" x="0" y="0" width="67.2268908" height="67.2268908"></rect>
                            </g>
                        </g>
                    </g>
                </g>
            </g>
        </g>
    </g>
</svg>