<?xml version="1.0" standalone="no"?>
<!DOCTYPE svg PUBLIC "-//W3C//DTD SVG 20010904//EN"
 "http://www.w3.org/TR/2001/REC-SVG-20010904/DTD/svg10.dtd">
<svg version="1.0" xmlns="http://www.w3.org/2000/svg"
 width="980.000000pt" height="980.000000pt" viewBox="0 0 980.000000 980.000000"
 preserveAspectRatio="xMidYMid meet">

<g transform="translate(0.000000,980.000000) scale(0.100000,-0.100000)"
fill="#000000" stroke="none">
<path d="M4560 9789 c-1035 -75 -1998 -463 -2800 -1128 -150 -123 -501 -475
-622 -621 -881 -1068 -1270 -2403 -1098 -3765 119 -934 501 -1801 1124 -2545
98 -117 370 -393 496 -504 1328 -1166 3158 -1531 4825 -962 895 305 1700 879
2281 1627 540 695 884 1519 993 2384 179 1408 -248 2798 -1185 3865 -112 128
-386 398 -509 501 -761 641 -1667 1026 -2665 1134 -174 19 -664 27 -840 14z
m752 -204 c390 -34 703 -99 1078 -225 1509 -503 2662 -1738 3064 -3280 110
-422 152 -794 143 -1270 -5 -284 -17 -442 -53 -660 -310 -1935 -1811 -3489
-3733 -3864 -355 -70 -604 -90 -1001 -83 -401 7 -676 41 -1026 127 -1787 439
-3157 1878 -3503 3680 -58 304 -81 551 -81 890 0 659 124 1269 377 1854 697
1609 2191 2684 3943 2835 164 14 612 12 792 -4z"/>
<path d="M2400 5857 c0 -14 527 -2313 535 -2335 3 -10 70 -12 307 -10 l302 3
268 1165 c147 641 268 1171 268 1178 0 9 -55 12 -240 12 -240 0 -241 0 -249
-22 -4 -13 -84 -404 -177 -870 -93 -467 -171 -848 -174 -848 -3 0 -79 386
-170 858 -90 471 -165 863 -168 870 -6 18 -502 18 -502 -1z"/>
<path d="M4260 4691 l0 -1181 235 0 235 0 0 501 0 501 173 -4 c198 -5 236 -15
292 -80 60 -71 66 -102 76 -418 10 -315 18 -386 48 -454 l20 -46 255 0 c218 0
256 2 256 15 0 8 -9 19 -19 24 -55 30 -77 148 -86 461 -9 320 -38 455 -117
544 -49 56 -99 84 -193 106 l-70 17 65 21 c156 52 257 165 306 343 14 49 18
100 18 219 0 139 -3 163 -26 232 -32 97 -74 164 -144 227 -64 59 -131 93 -239
123 -76 20 -104 22 -582 26 l-503 4 0 -1181z m839 804 c38 -12 67 -30 101 -64
63 -63 84 -125 83 -251 -1 -120 -27 -194 -87 -255 -65 -64 -113 -77 -303 -83
l-163 -4 0 334 c0 184 3 338 8 342 13 15 303 -1 361 -19z"/>
<path d="M6090 4690 l0 -1180 235 0 235 0 0 510 0 510 395 0 395 0 0 195 0
195 -392 2 -393 3 0 275 0 275 418 3 417 2 0 195 0 195 -655 0 -655 0 0 -1180z"/>
</g>
</svg>
