<?xml version="1.0" encoding="UTF-8"?>
<svg width="21px" height="22px" viewBox="0 0 26 27" version="1.1" xmlns="http://www.w3.org/2000/svg" xmlns:xlink="http://www.w3.org/1999/xlink">
    <title>5EE80D72-022B-4045-83C3-631C0717CBEB</title>
    <defs>
        <polygon id="path-1" points="3 9.27082023 12.051222 1 21 9.23583881 21 19 13.6319384 19 13.6319384 14.2165762 13.6319384 13.1877108 12.4267158 13.1877108 11.6058252 13.1877108 10.4018078 13.1877108 10.4018078 14.2165762 10.4018078 19 3 19"></polygon>
    </defs>
    <g id="Splash-Landing-01" stroke="none" stroke-width="1" fill="none" fill-rule="evenodd">
        <g id="NAV-02" transform="translate(-16.000000, -182.000000)">
            <rect fill="#FFFFFF" x="0" y="0" width="375" height="812"></rect>
            <rect id="Rectangle" fill="#303030" x="0" y="0" width="290" height="812"></rect>
            <g id="Group-12" transform="translate(16.000000, 182.000000)">
                <g id="Actions-/-Home-/-24px" transform="translate(4.000000, 6.000000)">
                    <mask id="mask-2" fill="white">
                        <use xlink:href="#path-1"></use>
                    </mask>
                    <path stroke="#FFFFFF" stroke-width="1.5" d="M12.0494112,2.01761892 L20.25,9.5648759 L20.25,18.25 L14.3819384,18.25 L14.3819384,12.4377108 L9.65180783,12.4377108 L9.65180783,18.25 L3.75,18.25 L3.75,9.60144998 L12.0494112,2.01761892 Z"></path>
                </g>
            </g>
        </g>
    </g>
</svg>